<svg width="26" height="21" viewBox="0 0 26 21" fill="none" xmlns="http://www.w3.org/2000/svg">
<path fill-rule="evenodd" clip-rule="evenodd" d="M5.27647 0.866113C4.78831 0.377962 3.99685 0.377962 3.50869 0.866113C3.02054 1.35428 3.02054 2.14573 3.50869 2.63389L21.0087 20.1339C21.4969 20.622 22.2884 20.622 22.7765 20.1339C23.2646 19.6458 23.2646 18.8543 22.7765 18.3662L20.935 16.5247C22.857 14.9905 24.3164 12.9014 25.0706 10.5C23.4777 5.42861 18.7399 1.75 13.1428 1.75C11.1134 1.75 9.19689 2.23365 7.50232 3.09198L5.27647 0.866113ZM10.6028 6.1924L12.4951 8.08476C12.7017 8.02949 12.9189 8.00001 13.143 8.00001C14.5236 8.00001 15.643 9.1193 15.643 10.5C15.643 10.724 15.6135 10.9413 15.5582 11.1478L17.4505 13.0401C17.8905 12.2958 18.143 11.4274 18.143 10.5C18.143 7.73859 15.9043 5.50001 13.143 5.50001C12.2156 5.50001 11.3472 5.75247 10.6028 6.1924Z" fill="#1F5460"/>
<path d="M16.2102 18.8709L12.8297 15.4904C10.3178 15.3351 8.30784 13.3251 8.15256 10.8133L3.56123 6.22192C2.51837 7.46529 1.71304 8.91462 1.21509 10.5C2.80793 15.5714 7.5458 19.25 13.1428 19.25C14.2012 19.25 15.2287 19.1185 16.2102 18.8709Z" fill="#1F5460"/>
</svg>
