<svg width="20" height="22" viewBox="0 0 20 22" fill="none" xmlns="http://www.w3.org/2000/svg">
<g clip-path="url(#clip0_293_243)">
<path d="M10.0044 6.05859C7.16511 6.05859 4.87493 8.26289 4.87493 10.9957C4.87493 13.7285 7.16511 15.9328 10.0044 15.9328C12.8437 15.9328 15.1339 13.7285 15.1339 10.9957C15.1339 8.26289 12.8437 6.05859 10.0044 6.05859ZM10.0044 14.2055C8.16957 14.2055 6.66957 12.766 6.66957 10.9957C6.66957 9.22539 8.16511 7.78593 10.0044 7.78593C11.8437 7.78593 13.3392 9.22539 13.3392 10.9957C13.3392 12.766 11.8392 14.2055 10.0044 14.2055ZM16.5401 5.85664C16.5401 6.49687 16.0044 7.0082 15.3437 7.0082C14.6785 7.0082 14.1473 6.49258 14.1473 5.85664C14.1473 5.2207 14.683 4.70507 15.3437 4.70507C16.0044 4.70507 16.5401 5.2207 16.5401 5.85664ZM19.9374 7.02539C19.8615 5.48281 19.4955 4.1164 18.3214 2.99062C17.1517 1.86484 15.7321 1.5125 14.1294 1.43515C12.4776 1.34492 7.52672 1.34492 5.87493 1.43515C4.27672 1.5082 2.85707 1.86054 1.68297 2.98633C0.508859 4.11211 0.147252 5.47851 0.0668945 7.02109C-0.0268555 8.61093 -0.0268555 13.3762 0.0668945 14.966C0.142787 16.5086 0.508859 17.875 1.68297 19.0008C2.85707 20.1266 4.27225 20.4789 5.87493 20.5562C7.52672 20.6465 12.4776 20.6465 14.1294 20.5562C15.7321 20.4832 17.1517 20.1309 18.3214 19.0008C19.491 17.875 19.8571 16.5086 19.9374 14.966C20.0312 13.3762 20.0312 8.61523 19.9374 7.02539ZM17.8035 16.6719C17.4553 17.5141 16.7812 18.1629 15.9017 18.5023C14.5848 19.0051 11.4598 18.8891 10.0044 18.8891C8.54904 18.8891 5.41957 19.0008 4.10707 18.5023C3.23207 18.1672 2.55797 17.5184 2.20529 16.6719C1.68297 15.4043 1.8035 12.3965 1.8035 10.9957C1.8035 9.59492 1.68743 6.58281 2.20529 5.31953C2.5535 4.47734 3.22761 3.82851 4.10707 3.48906C5.42404 2.98632 8.54904 3.10234 10.0044 3.10234C11.4598 3.10234 14.5892 2.99062 15.9017 3.48906C16.7767 3.82422 17.4508 4.47304 17.8035 5.31953C18.3258 6.58711 18.2053 9.59492 18.2053 10.9957C18.2053 12.3965 18.3258 15.4086 17.8035 16.6719Z" fill="#FF0000"/>
</g>
<defs>
<clipPath id="clip0_293_243">
<rect width="20" height="22" fill="white"/>
</clipPath>
</defs>
</svg>
