<svg width="250" height="256" viewBox="0 0 250 256" fill="none" xmlns="http://www.w3.org/2000/svg">
<path d="M0 157.374C0.57963 160.436 7.17224 210.993 7.17224 210.993L31.3163 223.307L29.209 190.338L0 157.374Z" fill="#EBEBEB"/>
<path d="M220.525 187.178L227.204 234.754L228.937 234.809C227.832 218.652 226.651 202.17 220.525 187.178Z" fill="#E0E0E0"/>
<path d="M239.068 184.95C234.403 190.061 232.529 197.097 231.348 203.92C229.674 213.595 229.523 225.015 230.021 234.814L232.459 234.868C231.495 217.961 233.737 201.024 239.068 184.95Z" fill="#E0E0E0"/>
<path d="M221.749 215.324C221.207 212.966 220.6 210.571 219.257 208.565C217.442 205.855 214.479 204.137 211.505 202.798C208.531 201.46 205.395 200.397 202.702 198.549C205.703 203.476 212.518 204.787 215.991 209.389C217.713 211.682 218.434 214.56 219.105 217.345C220.584 223.427 221.489 228.689 222.968 234.771H224.94C224.288 228.227 223.223 221.732 221.749 215.324Z" fill="#E0E0E0"/>
<path d="M234.241 234.809C234.241 234.809 235.909 215.915 237.15 212.446C238.39 208.977 250.113 199.395 249.999 199.844C249.885 200.294 241.207 210.809 239.967 212.923C238.726 215.037 236.586 234.809 236.586 234.809H234.241Z" fill="#E0E0E0"/>
<path d="M247.654 255.388L244.626 237.502L213.591 220.158L192.773 228.353L189.111 234.288C186.887 237.876 183.856 240.893 180.26 243.101C175.807 245.844 168.884 250.965 166.717 255.356L247.654 255.388Z" fill="#E0E0E0"/>
<path d="M216.137 35.9397C217.22 36.8394 225.167 47.4191 225.167 47.4191L241.743 45.0506V27.5604L221.733 13.6257L216.137 35.9397Z" fill="#FAFAFA"/>
<path d="M47.1829 25.6418L54.1709 43.4301L77.7895 51.4733L92.4915 32.6661L76.8252 9.57166L53.6888 11.4795L47.1829 25.6418Z" fill="#FAFAFA"/>
<path d="M171.565 49.5492L178.553 67.3374L202.172 75.3861L216.874 56.5734L201.207 33.479L178.071 35.3868L171.565 49.5492Z" fill="#EBEBEB"/>
<path d="M138.412 33.9939L148.271 32.0265L154.637 20.5362L146.267 11.1705L132.854 17.1379L131.684 29.3057L138.412 33.9939Z" fill="#F5F5F5"/>
<path d="M59.9944 86.768L67.6867 79.7763L66.2836 57.6574L41.82 44.01L20.975 66.2264L25.287 76.3183L14.3607 82.7572L13.0498 96.6215L31.0129 99.1743L34.3715 86.3127L48.6185 88.123L59.9944 86.768Z" fill="#EBEBEB"/>
<path d="M225.433 72.5244C223.618 73.5108 214.523 84.0797 214.523 84.0797L234.94 130.783L233.315 96.3776L225.433 72.5244Z" fill="#F5F5F5"/>
<path d="M25.9427 47.4192L41.9773 33.994L37.4865 17.3276L16.3923 20.3953V40.834L25.9427 47.4192Z" fill="#FAFAFA"/>
<path d="M218.986 164.794L228.938 154.658L247.654 157.173L249.999 168.571L231.126 177.238L218.038 164.794" fill="#FAFAFA"/>
<path d="M35.1678 185.433H53.4505L70.9749 216.69L74.7885 231.941L112.123 235.752L132.697 219.741L165.46 214.402L196.7 194.582L212.702 180.1V165.612L229.463 150.366H240.129L227.941 142.745L206.11 86.7192L168.618 72.2588L154.03 41.3488H123.553L119.61 24.5795L110.601 18.482L101.224 0.623291L102.979 20.7693L99.1709 37.5386L98.4071 53.5491L74.0247 66.5082L74.7885 85.5648L63.3584 95.4779L42.0204 93.9549L35.1678 114.356L10.78 127.494V146.555L26.7821 174.002L35.1678 185.433Z" fill="#E0E0E0"/>
<path d="M103.748 90.3668L98.8729 109.803L92.7841 97.1201L87.5891 163.58L96.6898 179.915L105.78 173.606C105.78 173.606 108.38 192.544 109.49 193.286C110.601 194.029 121.739 200.332 121.739 200.332L129.902 195.877H138.808L154.767 189.194L157.735 172.869L162.93 165.823L167.383 169.536L169.609 178.078L175.178 171.032L178.889 160.268L172.22 139.217C172.22 139.217 169.252 145.672 167.02 139.217C164.788 132.762 163.683 119.022 163.683 119.022L158.114 101.201L151.072 110.854L148.104 116.052L143.277 109.006L142.166 98.9791L140.308 89.3262L133.266 86.3561V97.1255L129.929 103.087L123.25 95.2882L121.766 88.2422V82.2803L113.602 93.4183L103.748 90.3668Z" fill="#EBEBEB"/>
<path d="M74.653 231.405L85.953 209.075L70.4818 198.544L61.1969 185.536L58.4125 184.609C58.4125 184.609 57.4862 139.407 59.0355 133.829C60.5848 128.252 63.3691 121.136 66.7711 125.781C70.173 130.426 73.51 140.176 75.6768 136.464C77.8436 132.751 81.316 110.301 81.316 110.301L85.953 88.936V67.5814C85.953 67.5814 95.2271 90.8059 97.3289 91.7002C99.1762 92.4969 99.5879 66.622 99.5879 66.622L102.34 56.8824L106.267 35.5007C106.267 35.5007 107.849 56.0965 109.696 58.7306C111.543 61.3647 114.447 64.0096 115.503 64.5408C116.56 65.0719 118.401 52.3947 118.401 51.0776V43.9233C118.401 43.9233 123.77 74.0148 125.444 71.6409C127.118 69.267 127.118 60.2861 127.118 60.2861V46.5845L131.338 43.6794L146.11 45.7932L159.306 59.7821C159.306 59.7821 168.011 99.3802 169.859 96.4751C171.706 93.57 174.609 78.7898 174.609 78.7898L187.274 94.1012L189.647 164.561L182.925 203.319L194.918 195.704L212.692 180.1V165.612L202.323 99.6241L206.115 86.7192L168.623 72.2588L154.035 41.3651H123.553L119.609 24.5795L110.601 18.482L101.224 0.623291L102.979 20.7692L99.187 37.5386L98.4232 53.5491L74.0463 66.5082L74.8101 85.5648L63.3366 95.4779L42.0204 93.9548L35.1677 114.334L36.4353 120.193L35.1677 185.433H53.4504L70.9748 216.69L74.653 231.405Z" fill="#EBEBEB"/>
<path d="M132.697 219.741L134.377 210.099L148.38 210.24L146.722 204.793L146.798 197.357L151.635 199.405L157.665 209.183L150.07 184.809L150.173 174.512L156.235 168.571L167.87 176.983L174.723 205.584L174.826 195.357L177.459 189.378L180.308 190.549L184.647 202.229L165.46 214.402L132.697 219.741Z" fill="#F5F5F5"/>
<path d="M132.676 219.741L165.422 214.321H165.384L184.561 202.126L184.512 202.273L180.178 190.593L180.249 190.668L177.405 189.498L177.572 189.427C176.754 191.297 175.855 193.335 174.945 195.389V195.335C174.913 198.56 174.875 202.029 174.842 205.562V206.674L174.582 205.59C172.6 197.324 170.503 188.571 168.342 179.574L167.724 176.994L167.778 177.075L156.148 168.663H156.327C154.279 170.672 152.258 172.66 150.265 174.625L150.303 174.528C150.27 178.029 150.234 181.462 150.194 184.826V184.793C152.903 193.498 155.449 201.671 157.778 209.183L158.06 210.088L157.567 209.286L151.543 199.503L151.592 199.546L146.755 197.487L146.901 197.395C146.868 200.018 146.841 202.489 146.814 204.831C147.415 206.804 147.952 208.587 148.466 210.283L148.499 210.392H148.385L134.382 210.218L134.436 210.175L132.676 219.741C132.676 219.741 132.676 219.535 132.773 219.123L133.082 217.275C133.358 215.649 133.77 213.215 134.301 210.088V210.039H134.349L148.353 210.153L148.271 210.267C147.73 208.571 147.188 206.793 146.603 204.82V204.787C146.603 202.446 146.646 199.98 146.673 197.357V197.199L146.814 197.259L151.657 199.308H151.684V199.34L157.724 209.096L157.508 209.194C155.167 201.693 152.632 193.519 149.897 184.804V184.793C149.929 181.44 149.963 178.007 149.999 174.495V174.441L150.037 174.398L156.099 168.436L156.186 168.354L156.278 168.425L167.914 176.837L167.957 176.864V176.918L168.575 179.498C170.741 188.5 172.827 197.254 174.804 205.514L174.533 205.541C174.571 202.012 174.609 198.544 174.642 195.313V195.286L177.28 189.324L177.334 189.205L177.448 189.254L180.346 190.43H180.395V190.484L184.728 202.164L184.761 202.256L184.68 202.31L165.481 214.467L141.43 218.326L134.929 219.362L133.255 219.627L132.676 219.741Z" fill="#263238"/>
<path d="M66.0129 207.839L68.7865 200.609L71.17 199.655L73.3152 204.668V214.934L79.2848 189.389L89.0681 182.463L94.0789 187.476V196.072L86.9175 217.318L92.6434 208.245L96.7008 206.576V212.782L95.2707 217.318H106.961L109.111 230.212L117.92 231.237L112.123 235.752L74.7886 231.941L70.975 216.69L66.0129 207.839Z" fill="#FAFAFA"/>
<path d="M35.1678 185.433L26.755 174.024L10.7258 146.588C10.7258 140.886 10.7258 134.458 10.7258 127.531V127.483H10.7692L35.1461 114.334L35.1028 114.383L41.9554 93.9765V93.9007H42.0367L63.3692 95.4182L63.2934 95.4453L74.7126 85.4835L74.6747 85.5702C74.4363 79.6787 74.1763 73.1748 73.9055 66.5136V66.4378L73.9705 66.4052L98.3474 53.4407L98.2824 53.5437C98.5154 48.6007 98.7808 43.1049 99.0408 37.5332C100.216 32.3354 101.522 26.5903 102.833 20.7584V20.8018C102.291 14.5309 101.684 7.64213 101.072 0.655814L101.018 0L101.327 0.585355C104.252 6.15164 107.454 12.2599 110.704 18.4387L110.66 18.3899L119.675 24.4657L119.718 24.4928V24.547C120.953 29.7935 122.302 35.5278 123.662 41.3163L123.532 41.2133H154.095L154.133 41.2946L168.726 72.1883L168.651 72.1124L179.804 76.4267L206.142 86.5891H206.202V86.6433C213.678 105.83 220.969 124.583 228.027 142.669L227.973 142.604L240.162 150.23L240.568 150.48H229.463L229.555 150.447L212.789 165.688L212.832 165.59C212.832 170.495 212.832 175.314 212.832 180.078V180.132L212.795 180.175L196.787 194.652L165.541 214.467H165.514L132.751 219.795H132.8L112.215 235.795H112.183H112.091L74.756 231.963H74.7126V231.909C73.2771 226.137 72.0582 221.248 70.9207 216.663C63.288 203.021 57.5404 192.755 53.4234 185.389H53.4559L35.1678 185.433L53.4505 185.395L71.0019 216.635L74.8643 231.947L74.7939 231.887L112.134 235.681H112.064L132.649 219.665H132.676L165.438 214.321H165.395L196.63 194.495L212.632 180.007L212.589 180.105C212.589 175.341 212.589 170.523 212.589 165.617V165.563L212.632 165.52L229.371 150.268L229.409 150.23H240.129L240.059 150.48L227.865 142.859H227.827V142.816C220.785 124.697 213.472 105.96 205.991 86.7897L206.072 86.871L179.734 76.714L168.586 72.4105H168.531V72.3618C163.526 61.7603 158.58 51.2836 153.943 41.468L154.068 41.5493H123.467L123.439 41.4409C122.08 35.6524 120.731 29.9127 119.496 24.6716L119.555 24.7529L110.525 18.5904H110.493V18.5579C107.242 12.3792 104.046 6.27088 101.121 0.704594L101.37 0.628714C101.977 7.61503 102.578 14.5038 103.125 20.7693V20.8126C101.804 26.6391 100.493 32.3896 99.3333 37.5819C99.0679 43.1536 98.7916 48.6495 98.5695 53.5925V53.6304L98.5099 53.6629L74.133 66.6166L74.198 66.5082C74.458 73.1693 74.7397 79.6787 74.951 85.5702V85.6244L74.9076 85.6569L63.4776 95.5646H63.445H63.3367L42.0042 94.0307L42.1071 93.9657L35.2545 114.388V114.421L10.8775 127.548L10.9208 127.483C10.9208 134.409 10.9208 140.837 10.9208 146.539V146.507C17.7139 158.176 23.1093 167.455 26.8959 173.964L35.1678 185.433Z" fill="#263238"/>
<path d="M10.856 127.775C11.9827 137.916 16.013 148.279 20.4063 157.487C19.4854 157.487 25.9426 127.819 25.9426 127.819L32.1722 144.593C32.1722 144.593 39.1332 119.515 41.0238 111.114L10.856 127.775Z" fill="#EBEBEB"/>
<path d="M101.798 1.82117C101.798 1.82117 101.798 1.93499 101.842 2.15178C101.885 2.36858 101.896 2.69378 101.939 3.13822C102.015 4.01625 102.134 5.3062 102.28 6.93218C102.567 10.2329 102.985 14.9916 103.494 20.8506V20.8831C102.41 25.6419 101.11 31.2623 99.7018 37.4357C99.4634 42.4979 99.2034 48.0479 98.9271 53.8419V53.9232L98.8567 53.9611L94.5555 56.2321L74.4689 66.8389L74.5393 66.7197C74.8156 73.9445 75.0811 80.3779 75.2598 85.657V85.7057L75.2273 85.7328L66.56 93.2937L64.2089 95.3207L63.5968 95.8627L63.3801 96.0308L63.5806 95.8411L64.1764 95.2991L66.495 93.2341L75.119 85.6082L75.0865 85.6841C74.8698 80.4105 74.5989 73.977 74.301 66.7468V66.6384L74.3714 66.6004L94.4472 55.9773L98.743 53.7064L98.6725 53.8202C98.9488 48.0263 99.2142 42.4816 99.4634 37.414L103.31 20.8777V20.9102C102.838 15.0404 102.459 10.2817 102.194 6.98096C102.069 5.35498 101.972 4.06503 101.901 3.18699C101.874 2.76424 101.852 2.43362 101.836 2.20056C101.816 2.07499 101.803 1.94829 101.798 1.82117Z" fill="#FF725E"/>
<path d="M201.841 85.0662C201.785 85.0567 201.73 85.0403 201.679 85.0174L201.191 84.8548L199.322 84.2044L192.307 81.7166L167.93 72.9742H167.876V72.92C165.422 67.6193 162.735 61.8146 159.934 55.7551C157.703 50.915 155.541 46.243 153.515 41.8475L153.64 41.9288L123.304 41.8691H123.244V41.8095C122.546 38.964 121.988 36.7093 121.619 35.1538C121.435 34.3896 121.294 33.7988 121.191 33.3815C121.148 33.1918 121.115 33.04 121.088 32.9262C121.073 32.8751 121.064 32.8223 121.061 32.769C121.083 32.8177 121.099 32.8686 121.11 32.9208L121.235 33.3761L121.701 35.1321C122.096 36.6822 122.676 38.9261 123.407 41.7716L123.331 41.712L153.667 41.6578H153.753L153.786 41.7336L160.216 55.6358C163.011 61.7007 165.693 67.5109 168.141 72.8116L168.065 72.7412L192.404 81.5757L199.393 84.1393L201.251 84.8331L201.727 85.0174C201.766 85.0308 201.804 85.0471 201.841 85.0662Z" fill="#FF725E"/>
<path d="M248.943 152.414C245.838 151.965 242.763 151.33 239.734 150.512C242.839 150.962 245.914 151.597 248.943 152.414Z" fill="#263238"/>
<path d="M87.8715 48.5573C87.5315 47.1294 87.2834 45.6811 87.129 44.2214C86.877 42.7735 86.7213 41.3105 86.6628 39.842C86.9997 41.2706 87.2477 42.7187 87.4054 44.178C87.6538 45.6264 87.8095 47.0891 87.8715 48.5573Z" fill="#263238"/>
<path d="M99.4525 53.7225C99.2828 53.7065 99.1165 53.6644 98.9595 53.5979C98.6508 53.4949 98.2066 53.3377 97.6594 53.1317C96.576 52.7198 95.0755 52.1128 93.4558 51.3648C91.8361 50.6169 90.4059 49.8798 89.3875 49.3161C88.8458 49.0343 88.4666 48.7741 88.1904 48.6223C88.0372 48.5462 87.895 48.4495 87.7678 48.3351C88.3568 48.5612 88.9289 48.8293 89.4796 49.1372C90.5197 49.6792 91.9607 50.3676 93.575 51.1101C95.1893 51.8526 96.6627 52.4922 97.7353 52.9475C98.3241 53.1677 98.8978 53.4266 99.4525 53.7225Z" fill="#263238"/>
<path d="M78.261 47.4191C79.8908 47.4208 81.5189 47.5222 83.1364 47.7226C84.7573 47.8207 86.3709 48.0161 87.9684 48.3079C86.3389 48.2995 84.7111 48.1982 83.093 48.0044C81.4727 47.8994 79.8595 47.704 78.261 47.4191Z" fill="#263238"/>
<path d="M125.222 16.9916C124.425 18.3054 123.553 19.5722 122.611 20.7855C121.739 22.0503 120.789 23.2594 119.767 24.4061C120.562 23.09 121.436 21.823 122.383 20.6121C123.252 19.3468 124.2 18.1376 125.222 16.9916Z" fill="#263238"/>
<path d="M154.751 34.8503C154.754 35.985 154.663 37.118 154.48 38.2378C154.393 39.3693 154.212 40.4916 153.938 41.5928C153.935 40.4583 154.024 39.3254 154.203 38.2053C154.291 37.0736 154.474 35.9513 154.751 34.8503Z" fill="#263238"/>
<path d="M160.303 32.8612C159.473 33.3828 158.595 33.8239 157.681 34.1783C156.814 34.624 155.907 34.9869 154.972 35.2622C156.667 34.2904 158.452 33.4862 160.303 32.8612Z" fill="#263238"/>
<path d="M162.903 22.3573C162.604 24.1056 162.213 25.8369 161.733 27.5442C161.349 29.2743 160.872 30.9823 160.303 32.6606C160.602 30.912 160.995 29.1806 161.478 27.4737C161.862 25.7441 162.337 24.0362 162.903 22.3573Z" fill="#263238"/>
<path d="M168.266 28.6119C167.275 28.7024 166.278 28.7024 165.286 28.6119C164.291 28.6247 163.297 28.5394 162.318 28.3572C163.308 28.2576 164.305 28.2485 165.297 28.3301C166.294 28.3267 167.288 28.4211 168.266 28.6119Z" fill="#263238"/>
<path d="M217.941 79.2506C217.804 79.3833 217.649 79.4964 217.48 79.5866C217.117 79.8143 216.684 80.0853 216.18 80.4105C215.097 81.1042 213.569 82.069 211.933 83.1855C210.297 84.302 208.84 85.3535 207.795 86.1231L206.549 87.0282C206.404 87.1513 206.244 87.2551 206.072 87.3372C206.191 87.1877 206.33 87.0547 206.484 86.9415C206.755 86.703 207.161 86.367 207.67 85.9605C208.688 85.1529 210.129 84.0744 211.776 82.9524C213.423 81.8305 214.951 80.8874 216.077 80.2425C216.619 79.9173 217.101 79.6625 217.426 79.4945C217.587 79.3916 217.76 79.3096 217.941 79.2506Z" fill="#263238"/>
<path d="M243.282 160.284C242.651 158.741 242.108 157.163 241.657 155.558C241.12 153.98 240.674 152.373 240.319 150.745C240.949 152.289 241.491 153.867 241.944 155.471C242.481 157.049 242.928 158.656 243.282 160.284Z" fill="#263238"/>
<path d="M0.400692 135.51C0.351938 135.45 2.56753 133.634 5.33567 131.455C8.10381 129.277 10.3898 127.564 10.4386 127.624C10.4873 127.683 8.27174 129.499 5.50902 131.678C2.7463 133.857 0.449446 135.569 0.400692 135.51Z" fill="#263238"/>
<path d="M0.747803 128.643C1.46752 129.073 2.13626 129.584 2.7413 130.166C3.4078 130.676 4.01473 131.259 4.55061 131.905C3.83203 131.473 3.16347 130.962 2.55711 130.382C1.89213 129.871 1.28539 129.287 0.747803 128.643Z" fill="#263238"/>
<path d="M27.6814 106.415C28.9344 107.58 30.1208 108.814 31.235 110.112C32.4179 111.348 33.5336 112.647 34.5774 114.003C33.3252 112.836 32.1389 111.6 31.0237 110.301C29.8418 109.066 28.7261 107.769 27.6814 106.415Z" fill="#263238"/>
<path d="M130.26 112.708L144.517 107.743L140.259 91.6297L144.642 90.1067C144.642 90.1067 153.726 105.001 154.301 110.161C154.875 115.32 138.25 121.77 138.25 121.77L130.26 112.708Z" fill="#FFBE9D"/>
<path d="M148.83 106.307C148.433 106.557 148.005 106.752 147.557 106.887C146.744 107.19 145.617 107.57 144.371 107.971L141.181 109.028C140.749 109.198 140.307 109.345 139.859 109.467C140.243 109.197 140.664 108.985 141.11 108.838C141.907 108.507 143.033 108.112 144.285 107.705C145.536 107.299 146.668 106.946 147.492 106.692C147.928 106.533 148.375 106.405 148.83 106.307Z" fill="#EB996E"/>
<path d="M142.616 82.8982C142.351 82.5621 142.378 82.4591 142.074 82.3887C141.771 82.3182 141.137 82.0364 140.921 82.1502C140.704 82.264 140.552 82.6922 140.552 82.6922C140.552 82.6922 139.81 82.031 139.29 82.1123C138.77 82.1936 138.564 82.4266 138.553 82.6055C138.439 82.4977 138.301 82.4173 138.151 82.3704C138.001 82.3234 137.842 82.3112 137.687 82.3345C137.145 82.4212 136.798 82.6651 136.798 83.0337C136.578 82.9943 136.352 82.9943 136.132 83.0337C136.006 83.077 135.889 83.1411 135.785 83.2234C135.653 83.3245 135.558 83.4668 135.516 83.6278C135.474 83.7888 135.487 83.9593 135.552 84.1122L135.828 84.7951C135.828 84.7951 135.222 85.0228 135.189 85.2775C135.167 85.5142 135.204 85.7527 135.298 85.9713C135.563 86.5591 135.784 87.166 135.958 87.787C136.051 88.1211 136.228 88.4255 136.473 88.6704L139.144 90.0796C139.301 90.1891 139.451 90.3086 139.593 90.4373C139.857 90.8392 140.041 91.2882 140.135 91.7598C140.59 93.0172 141.95 96.0957 141.95 96.0957L146.533 94.1229L144.805 90.1121L144.263 88.8113C144.344 88.3145 144.329 87.8067 144.22 87.3154C144.053 86.7435 143.856 86.1808 143.629 85.6298C143.51 85.3155 142.887 83.2234 142.616 82.8982Z" fill="#FFBE9D"/>
<path d="M137.286 83.9822C137.064 83.6954 136.882 83.38 136.744 83.0445V82.9903C136.744 83.0825 136.776 83.05 136.744 83.0608H136.646H136.462C136.328 83.0761 136.195 83.1052 136.067 83.1475C135.938 83.1949 135.826 83.2815 135.749 83.3952C135.671 83.5089 135.631 83.644 135.633 83.7817V83.7275C135.742 83.9659 135.839 84.2153 135.937 84.47C136.3 85.4239 136.587 86.2965 136.798 86.9252C136.933 87.2614 137.034 87.6099 137.101 87.9659C136.888 87.67 136.721 87.3427 136.608 86.9957C136.348 86.3832 136.034 85.516 135.671 84.5676C135.574 84.3182 135.482 84.0689 135.384 83.8413V83.8142C135.381 83.6211 135.439 83.432 135.552 83.2749C135.664 83.1177 135.823 83.0009 136.007 82.9416C136.156 82.9011 136.308 82.8739 136.462 82.8603C136.532 82.8548 136.603 82.8548 136.673 82.8603H136.787H136.858C136.858 82.8603 136.928 82.8603 136.939 82.9958V82.9416C137.099 83.2721 137.215 83.6218 137.286 83.9822Z" fill="#EB996E"/>
<path d="M139.117 83.581C139.041 83.581 138.922 83.4076 138.792 83.1745C138.662 82.9414 138.553 82.7301 138.613 82.6759C138.672 82.6217 138.884 82.768 139.035 83.0336C139.187 83.2992 139.176 83.5647 139.117 83.581Z" fill="#EB996E"/>
<path d="M140.996 83.5269C140.915 83.5269 140.861 83.3535 140.78 83.1692C140.698 82.9849 140.628 82.8169 140.688 82.7573C140.747 82.6976 140.942 82.8115 141.045 83.0608C141.148 83.3101 141.072 83.5377 140.996 83.5269Z" fill="#EB996E"/>
<path d="M144.452 107.51C144.377 107.51 143.369 103.949 142.194 99.5103C141.018 95.0714 140.13 91.4563 140.205 91.44C140.281 91.4237 141.289 95.0009 142.464 99.4398C143.64 103.879 144.528 107.494 144.452 107.51Z" fill="#FF725E"/>
<path d="M131.966 81.386L129.024 79.8467L128.748 81.9171L131.857 83.4618C132.036 83.6569 152.643 93.7597 152.643 93.7597L153.298 92.3668L131.966 81.386Z" fill="#455A64"/>
<path d="M134.74 64.5354C134.935 61.0667 132.719 57.9827 130.606 55.2294C129.853 54.2429 128.884 53.1535 127.649 53.2511C127.227 53.3167 126.828 53.4843 126.487 53.7394C126.145 53.9944 125.87 54.3292 125.688 54.7145C125.323 55.4774 125.059 56.2845 124.902 57.1155C124.198 59.8689 122.995 62.4596 121.961 65.0991C120.926 67.7386 120.048 70.5191 120.048 73.3483C120.048 76.1775 121.034 79.1368 123.201 80.9742C125.184 82.6598 128.244 83.1421 130.465 81.8522C132.156 81.5704 133.174 79.6192 133.244 77.8631C133.315 76.107 132.741 74.2101 132.844 72.3727C132.995 69.6627 134.593 67.2183 134.74 64.5354Z" fill="#FF725E"/>
<g opacity="0.8">
<path d="M134.74 64.5354C134.935 61.0667 132.719 57.9827 130.606 55.2294C129.853 54.2429 128.884 53.1535 127.649 53.2511C127.227 53.3167 126.828 53.4843 126.487 53.7394C126.145 53.9944 125.87 54.3292 125.688 54.7145C125.323 55.4774 125.059 56.2845 124.902 57.1155C124.198 59.8689 122.995 62.4596 121.961 65.0991C120.926 67.7386 120.048 70.5191 120.048 73.3483C120.048 76.1775 121.034 79.1368 123.201 80.9742C125.184 82.6598 128.244 83.1421 130.465 81.8522C132.156 81.5704 133.174 79.6192 133.244 77.8631C133.315 76.107 132.741 74.2101 132.844 72.3727C132.995 69.6627 134.593 67.2183 134.74 64.5354Z" fill="white"/>
</g>
<path d="M131.738 77.0338C131.652 74.8658 131.197 72.6978 131.343 70.5298C131.429 69.2615 131.717 67.9987 131.608 66.7358C131.5 65.473 130.877 64.1343 129.701 63.6573C129.38 63.5295 129.035 63.4719 128.69 63.4882C128.345 63.5045 128.007 63.5945 127.699 63.752C127.391 63.9095 127.121 64.1311 126.906 64.4017C126.69 64.6723 126.535 64.9858 126.451 65.3212C126.278 66.0313 126.424 66.8063 126.142 67.4892C125.698 68.5732 124.338 69.0068 123.856 70.0637C123.59 70.8483 123.632 71.7051 123.976 72.4593C124.316 73.2048 124.541 73.9981 124.642 74.8116C124.685 76.1286 123.829 77.3373 123.775 78.6543C123.786 79.3759 123.993 80.081 124.375 80.6932C124.757 81.3055 125.299 81.8018 125.942 82.1285C127.24 82.7671 128.712 82.9577 130.129 82.6705C132.627 80.9361 131.825 79.2072 131.738 77.0338Z" fill="#FF725E"/>
<g opacity="0.3">
<path d="M130.823 77.2777C130.531 76.042 129.826 74.9309 129.539 73.6897C129.45 73.059 129.314 72.4358 129.133 71.8253C129.036 71.5209 128.856 71.2498 128.612 71.0428C128.369 70.8359 128.073 70.7013 127.757 70.6545C127.399 70.6824 127.06 70.8284 126.793 71.0697C126.526 71.3109 126.347 71.6338 126.284 71.9878C126.185 72.7049 126.249 73.435 126.473 74.1233C126.696 74.8124 126.746 75.5457 126.619 76.2588C126.446 76.9363 125.964 77.5108 125.818 78.1937C125.744 78.7212 125.823 79.2586 126.043 79.7432C126.264 80.2279 126.618 80.6397 127.064 80.9308C127.46 81.2262 127.935 81.3978 128.429 81.424C128.881 81.4539 129.333 81.3528 129.73 81.1327C130.127 80.9126 130.452 80.5828 130.666 80.1828C131.06 79.2635 131.116 78.2342 130.823 77.2777Z" fill="white"/>
</g>
<g opacity="0.3">
<path d="M128.239 66.4703C128.102 66.5451 127.989 66.6573 127.914 66.7938C127.838 66.9302 127.803 67.0854 127.812 67.2411C127.821 67.3969 127.874 67.5469 127.965 67.6736C128.056 67.8003 128.181 67.8986 128.326 67.957C128.471 68.0154 128.629 68.0315 128.782 68.0035C128.936 67.9754 129.078 67.9044 129.193 67.7986C129.308 67.6928 129.39 67.5566 129.43 67.4059C129.471 67.2552 129.467 67.0961 129.421 66.9472C129.352 66.7538 129.215 66.5921 129.035 66.4924C128.855 66.3926 128.646 66.3617 128.445 66.4052" fill="white"/>
</g>
<path d="M129.426 57.1046C129.426 57.1046 128.233 58.4325 128.282 59.4623C128.272 59.747 128.365 60.0259 128.544 60.2472C128.723 60.4685 128.977 60.6171 129.258 60.6655L129.545 58.8824L129.426 57.1046Z" fill="#FF725E"/>
<path d="M135.005 84.9685C134.159 84.7073 133.344 84.3566 132.573 83.9225C131.76 83.5702 130.987 83.1342 130.265 82.6217C131.111 82.8824 131.926 83.2331 132.697 83.6678C133.509 84.0207 134.282 84.4566 135.005 84.9685Z" fill="#FF725E"/>
<path d="M117.259 78.3779C117.166 78.1122 117.098 77.8381 117.058 77.5595C116.939 77.0175 116.82 76.2587 116.706 75.2993C116.582 74.1745 116.52 73.0436 116.522 71.9119C116.524 69.1335 116.9 66.3681 117.638 63.6898C117.938 62.5971 118.3 61.5222 118.721 60.4704C119.084 59.5761 119.409 58.8444 119.659 58.3837C119.777 58.1295 119.914 57.8849 120.07 57.652C119.988 57.9198 119.885 58.1808 119.761 58.4325C119.539 58.9202 119.22 59.6411 118.906 60.5408C118.591 61.4405 118.223 62.5299 117.893 63.7548C117.204 66.4109 116.84 69.1409 116.809 71.8848C116.809 73.153 116.847 74.2966 116.934 75.256C117.02 76.2153 117.107 76.9849 117.194 77.5161C117.238 77.8011 117.26 78.0893 117.259 78.3779Z" fill="#FF725E"/>
<path d="M114.507 72.4809C114.413 72.1368 114.369 71.7808 114.377 71.4241C114.303 69.7029 114.485 67.9804 114.919 66.313C114.986 65.9609 115.107 65.621 115.276 65.3049C115.358 65.3049 114.94 66.8984 114.734 68.8767C114.528 70.855 114.593 72.4755 114.507 72.4809Z" fill="#FF725E"/>
<path d="M137.156 66.2589C137.069 66.2589 137.448 64.6871 137.416 62.7414C137.383 60.7956 136.977 59.2509 137.058 59.2292C137.228 59.5375 137.341 59.8733 137.394 60.2211C137.776 61.8753 137.8 63.592 137.465 65.2562C137.42 65.6057 137.315 65.9448 137.156 66.2589Z" fill="#FF725E"/>
<path d="M138.862 66.4216C139.18 65.12 139.394 63.7951 139.502 62.4596C139.514 61.1193 139.421 59.7801 139.225 58.4542C139.4 58.8143 139.516 59.2006 139.567 59.5978C139.942 61.4949 139.854 63.4544 139.312 65.3105C139.222 65.7023 139.07 66.0774 138.862 66.4216Z" fill="#FF725E"/>
<path d="M115.536 84.3344L115.785 84.2694C116.178 83.6061 116.731 83.0523 117.393 82.6592C118.056 82.2661 118.807 82.0463 119.577 82.0201C121.121 81.9787 122.62 82.5383 123.759 83.581C124.555 84.2856 125.184 85.1582 125.98 85.8628C126.355 86.2405 126.81 86.5272 127.313 86.701C127.815 86.8748 128.351 86.9311 128.878 86.8655C129.003 87.2558 128.282 87.4834 128.337 87.8899C128.361 87.9841 128.414 88.0687 128.487 88.1326C128.561 88.1964 128.652 88.2365 128.748 88.2476C129.031 88.2693 129.316 88.2693 129.599 88.2476C129.741 88.2368 129.883 88.2714 130.005 88.3463C130.127 88.4213 130.221 88.5328 130.276 88.6649C130.3 88.8028 130.289 88.9445 130.243 89.0769C129.97 90.3021 129.391 91.4379 128.559 92.3776C128.139 92.842 127.612 93.1968 127.024 93.4112C126.436 93.6256 125.804 93.6931 125.184 93.6079C124.218 93.3427 123.333 92.8438 122.605 92.1554L118.174 88.5999C117.467 88.084 116.832 87.4772 116.284 86.7951C115.72 86.1053 115.452 85.2211 115.536 84.3344Z" fill="#263238"/>
<path d="M116.462 84.5784C115.867 84.0758 115.159 83.7244 114.398 83.554C114.018 83.4721 113.626 83.4679 113.244 83.5414C112.863 83.615 112.5 83.7649 112.177 83.9822C111.634 84.4597 111.176 85.026 110.823 85.6569C110.644 85.9696 110.404 86.2433 110.117 86.462C109.831 86.6807 109.503 86.8401 109.155 86.9306C109.026 86.9302 108.901 86.97 108.797 87.0444C108.635 87.1962 108.754 87.4997 108.954 87.5864C109.169 87.6553 109.4 87.6553 109.615 87.5864C109.258 88.0003 108.767 88.2764 108.228 88.3669C108.262 88.4964 108.321 88.6179 108.403 88.7244C108.484 88.8309 108.585 88.9202 108.701 88.9872C108.817 89.0542 108.945 89.0976 109.078 89.1149C109.21 89.1322 109.345 89.1229 109.474 89.0878C109.233 89.9186 109.095 90.776 109.063 91.6406C109.035 92.5132 109.332 93.365 109.897 94.0308C110.541 94.7299 111.592 95.1148 111.874 96.0253" fill="#263238"/>
<path d="M122.681 115.038L111.148 114.876L112.437 105.033C112.437 105.033 111.646 104.865 111.592 100.583C111.538 96.3017 111.343 89.0335 111.343 89.0335C113.772 87.9871 116.436 87.6091 119.06 87.9388C121.684 88.2685 124.172 89.2939 126.267 90.9088L126.901 91.3966L122.681 115.038Z" fill="#FFBE9D"/>
<path d="M125.563 96.6811C125.633 96.6486 128.499 95.8085 128.402 98.7353C128.304 101.662 125.395 100.963 125.395 100.903C125.395 100.844 125.563 96.6811 125.563 96.6811Z" fill="#FFBE9D"/>
<path d="M111.841 96.0687C111.771 96.0362 109.165 95.3316 109.257 98.2367C109.349 101.142 112.264 100.47 112.269 100.405C112.275 100.34 111.841 96.0687 111.841 96.0687Z" fill="#FFBE9D"/>
<path d="M126.505 96.3505C126.072 98.8057 126.159 100.096 125.752 101.733C125.113 104.323 123.829 106.312 121.5 107.608C119.171 108.903 116.018 108.876 114.013 107.115C112.627 105.89 111.641 104.508 111.435 102.67C111.229 100.833 110.687 97.3694 110.671 95.5158C110.671 92.1771 110.763 89.1799 110.763 89.1799L120.286 87.4509L125.704 90.7029L126.505 96.3505Z" fill="#263238"/>
<path d="M116.679 109.082C117.211 109.286 117.789 109.337 118.348 109.228C118.916 109.209 119.469 109.035 119.946 108.724C119.919 108.648 119.214 108.871 118.321 108.963C117.427 109.055 116.69 109.006 116.679 109.082Z" fill="#263238"/>
<path d="M126.045 100.524C126.327 98.009 126.505 95.1364 126.901 92.4861C127.047 91.4888 127.399 90.0579 127.313 89.0552C127.226 88.0525 126.95 88.356 126.505 87.4292C125.964 86.291 123.835 85.5323 122.6 85.2613C121.365 84.9903 121.207 83.9388 120.254 84.7735C119.901 84.2484 119.395 83.8442 118.805 83.6156C118.215 83.387 117.569 83.3449 116.955 83.4949C116.34 83.645 115.786 83.98 115.368 84.4548C114.95 84.9295 114.687 85.5212 114.615 86.1501C114.268 85.8381 113.829 85.6465 113.365 85.6038C112.9 85.5612 112.434 85.6697 112.036 85.9133C111.638 86.1568 111.329 86.5225 111.155 86.9558C110.982 87.389 110.953 87.8668 111.072 88.3181C110.729 88.3765 110.405 88.5192 110.13 88.7335C109.855 88.9477 109.637 89.2268 109.497 89.5459C109.356 89.8649 109.297 90.2138 109.324 90.5614C109.351 90.9089 109.464 91.2444 109.653 91.5376C110.097 92.2205 110.893 92.5944 111.381 93.2448C111.655 93.6247 111.814 94.0753 111.84 94.5432C111.866 95.011 111.758 95.4765 111.527 95.8844" fill="#263238"/>
<path d="M113.77 99.9982C113.636 100.87 113.751 101.763 114.101 102.573C114.367 103.419 114.872 104.172 115.553 104.741C115.094 104.026 114.691 103.275 114.35 102.497C114.093 101.68 113.899 100.845 113.77 99.9982Z" fill="#455A64"/>
<path d="M112.492 97.8627C112.23 98.6061 112.167 99.4048 112.307 100.18C112.448 100.956 112.788 101.681 113.294 102.285C112.99 101.585 112.747 100.86 112.568 100.117C112.477 99.3694 112.452 98.615 112.492 97.8627Z" fill="#455A64"/>
<path d="M124.49 87.7761C123.81 86.5809 122.769 85.6321 121.516 85.0661C120.894 84.7971 120.211 84.7 119.538 84.7848C118.866 84.8696 118.228 85.1333 117.692 85.5485" fill="#263238"/>
<path d="M124.252 94.2258C124.203 94.2258 124.252 93.8844 124.344 93.3587C124.479 92.691 124.553 92.0126 124.567 91.3316C124.564 90.6605 124.414 89.998 124.128 89.3912C123.9 88.9305 123.667 88.6921 123.705 88.6541C123.743 88.6162 124.03 88.8059 124.333 89.272C124.711 89.8902 124.908 90.6018 124.903 91.3262C124.898 92.0357 124.788 92.7407 124.577 93.4183C124.522 93.7058 124.411 93.9799 124.252 94.2258Z" fill="#455A64"/>
<path d="M122.28 95.1905C122.193 95.1472 122.432 94.5672 122.66 93.841C122.887 93.1147 123.034 92.5022 123.131 92.5185C123.234 92.9972 123.182 93.4961 122.985 93.944C122.741 94.7082 122.383 95.2393 122.28 95.1905Z" fill="#455A64"/>
<path d="M113.131 94.4427C112.828 94.1547 112.602 93.7949 112.475 93.3967C112.086 92.4542 111.984 91.4176 112.183 90.4174C112.381 89.4172 112.871 88.4982 113.591 87.7762C113.862 87.4581 114.208 87.2139 114.599 87.0662C114.631 87.1095 114.247 87.3805 113.77 87.9388C113.145 88.6642 112.716 89.5373 112.524 90.4753C112.342 91.4161 112.402 92.3876 112.697 93.2991C112.925 94.0145 113.174 94.4102 113.131 94.4427Z" fill="#455A64"/>
<path d="M123.548 83.554C123.219 83.4603 122.902 83.3274 122.605 83.1583C121.887 82.8146 121.104 82.6297 120.308 82.6163C119.918 82.6091 119.531 82.6841 119.172 82.8363C118.812 82.9885 118.489 83.2145 118.223 83.4998C118.019 83.7621 117.838 84.0413 117.681 84.3344C117.643 84.3344 117.632 83.89 118.028 83.348C118.263 83.0346 118.567 82.7789 118.916 82.6C119.344 82.3896 119.815 82.2802 120.292 82.2803C121.142 82.2941 121.973 82.5315 122.703 82.9686C123.266 83.2613 123.569 83.516 123.548 83.554Z" fill="#455A64"/>
<path d="M110.514 86.2639C110.482 86.2639 110.547 85.9225 110.855 85.4889C111.266 84.9217 111.853 84.5074 112.525 84.3111C113.197 84.1149 113.915 84.1478 114.566 84.4049C115.059 84.6054 115.292 84.8439 115.27 84.8764C115.249 84.9089 114.967 84.7626 114.49 84.6325C113.879 84.4555 113.231 84.4558 112.62 84.6333C112.009 84.8108 111.461 85.1583 111.04 85.6352C110.709 86.0038 110.563 86.2856 110.514 86.2639Z" fill="#455A64"/>
<path d="M113.656 97.0225C113.656 96.9791 114.128 96.8545 114.897 96.5076C115.941 96.037 116.895 95.3898 117.719 94.5944L118.261 94.0524L117.957 94.7678C117.769 95.2137 117.631 95.679 117.546 96.1553C117.497 96.3992 117.459 96.6973 117.546 96.7407C117.632 96.784 117.871 96.6865 118.087 96.5293C118.825 96.0543 119.487 95.4695 120.048 94.7949L120.558 94.1879L120.325 94.9412L119.675 97.0442L119.458 96.9087C120.17 96.1992 120.796 95.4078 121.321 94.551C121.259 94.823 121.149 95.0817 120.996 95.3152C120.629 95.9693 120.174 96.5693 119.642 97.0984L119.285 97.4561L119.42 96.9683C119.599 96.3233 119.799 95.6187 120.016 94.8545L120.292 95.0009C119.717 95.7105 119.033 96.3251 118.266 96.822C118.145 96.9032 118.018 96.9757 117.887 97.0388C117.805 97.0863 117.711 97.1114 117.616 97.1114C117.521 97.1114 117.428 97.0863 117.345 97.0388C117.276 96.9761 117.223 96.8974 117.191 96.8096C117.159 96.7217 117.148 96.6274 117.161 96.5347C117.171 96.3962 117.191 96.2585 117.221 96.1228C117.312 95.6224 117.463 95.1348 117.67 94.6702L117.925 94.8437C117.068 95.6509 116.061 96.2824 114.962 96.7027C114.547 96.8811 114.106 96.9892 113.656 97.0225Z" fill="#455A64"/>
<path d="M119.23 85.7382C119.133 85.5633 119.001 85.4099 118.843 85.287C118.684 85.1641 118.503 85.0742 118.309 85.0228C117.921 84.9333 117.517 84.9333 117.129 85.0228C116.157 85.1988 115.278 85.7087 114.642 86.4645C114.496 86.6325 114.371 86.8981 114.523 87.0607C114.614 87.1369 114.729 87.1774 114.848 87.1745C116.284 87.2922 117.73 87.2413 119.155 87.0228" fill="#263238"/>
<path d="M128.927 86.5784C128.927 86.5784 128.878 86.6542 128.743 86.7464C128.539 86.8782 128.307 86.9599 128.066 86.9848C127.681 87.0254 127.292 86.9695 126.933 86.8223C126.467 86.6209 126.05 86.3214 125.709 85.9442C125.314 85.5486 124.956 85.0608 124.523 84.5947C124.065 84.0917 123.555 83.6393 123.001 83.2451C122.402 82.8015 121.726 82.4726 121.007 82.2749C120.233 82.088 119.425 82.0992 118.656 82.3074C117.534 82.5567 116.547 83.2206 115.893 84.1665L115.796 84.3237L115.677 84.1882C115.295 83.757 114.765 83.4844 114.192 83.4239C113.664 83.3722 113.131 83.4679 112.654 83.7004C111.711 84.1177 111.305 85.0012 110.856 85.619C110.633 85.9334 110.46 86.2261 110.254 86.4645C110.084 86.6704 109.859 86.8228 109.604 86.9036C109.446 86.9482 109.28 86.9611 109.117 86.9415C109.06 86.9413 109.005 86.9283 108.954 86.9036C109.165 86.9025 109.374 86.8733 109.577 86.8168C109.806 86.7249 110.006 86.5733 110.157 86.3778C110.335 86.1502 110.503 85.8358 110.698 85.5269C110.893 85.2179 111.121 84.8548 111.386 84.4429C111.686 84.0305 112.08 83.6959 112.535 83.4673C113.05 83.2072 113.629 83.0982 114.203 83.1529C114.842 83.211 115.434 83.5093 115.861 83.9876H115.644C116.332 82.9765 117.377 82.2638 118.569 81.9931C119.387 81.7845 120.244 81.7845 121.061 81.9931C121.811 82.2023 122.514 82.5497 123.136 83.0174C123.699 83.4268 124.217 83.8956 124.68 84.4158C125.113 84.909 125.465 85.3968 125.834 85.7925C126.095 86.1292 126.429 86.4019 126.811 86.5898C127.193 86.7776 127.613 86.8757 128.039 86.8764C128.354 86.8506 128.659 86.7483 128.927 86.5784Z" fill="#FF725E"/>
<path d="M114.442 93.9332C114.21 93.6468 114.047 93.3112 113.965 92.9522C113.696 92.1018 113.638 91.1985 113.798 90.3208C113.957 89.4432 114.329 88.6179 114.88 87.917C115.087 87.6115 115.359 87.356 115.677 87.1691C115.709 87.2016 115.411 87.4943 115.043 88.0363C114.554 88.7379 114.221 89.5368 114.068 90.3784C113.915 91.2201 113.944 92.085 114.155 92.9142C114.306 93.5375 114.485 93.9115 114.442 93.9332Z" fill="#FF725E"/>
<path d="M124.252 89.0823C124.209 89.1094 123.992 88.7734 123.564 88.3073C123.004 87.7038 122.346 87.1982 121.619 86.8114C120.891 86.4282 120.104 86.1717 119.29 86.0526C118.945 86.0283 118.601 85.9848 118.261 85.9225C118.602 85.823 118.96 85.799 119.312 85.852C120.165 85.9217 120.995 86.1637 121.752 86.5633C122.509 86.963 123.177 87.512 123.716 88.1772C123.954 88.4398 124.136 88.7476 124.252 89.0823Z" fill="#FF725E"/>
<path d="M107.329 208.641L113.326 244.109L121.408 247.123C121.408 247.123 121.105 223.231 120.796 220.213C120.184 214.251 119.859 207.075 119.859 207.075L107.329 208.641Z" fill="#FFBE9D"/>
<path d="M126.625 206.679L140.52 244.277L148.705 241.345L138.423 204.056L126.625 206.679Z" fill="#FFBE9D"/>
<path d="M103.531 175.037L104.967 208.901L121.76 206.815L121.105 194.007L122.188 191.297L121.733 192.435L124.929 206.95L139.951 203.763L136.289 168.804C136.289 168.804 134.333 163.834 134.198 162.918C134.062 162.002 128.851 159.26 128.851 159.26L103.531 171.785V175.037Z" fill="#263238"/>
<path d="M127.166 181.14C127.12 181.33 127.047 181.512 126.95 181.682L126.289 183.053C125.747 184.208 124.962 185.807 124.122 187.584L122.015 192.143C121.765 192.685 121.549 193.14 121.365 193.519C121.298 193.695 121.206 193.861 121.094 194.013C121.127 193.825 121.185 193.643 121.267 193.471C121.392 193.134 121.587 192.652 121.809 192.056C122.302 190.869 123.011 189.238 123.84 187.46C124.669 185.682 125.465 184.089 126.072 182.956C126.375 182.387 126.614 181.937 126.814 181.628C126.909 181.45 127.027 181.286 127.166 181.14Z" fill="#455A64"/>
<path d="M111.045 111.971C110.352 112.068 101.771 115.505 100.58 117.673C99.9782 118.757 98.0876 134.567 98.0876 134.567L108.38 134.962C108.38 134.962 106.305 152.105 106.798 153.591C106.798 153.591 105.872 158.29 105.547 159.233C104.821 161.352 103.537 171.785 103.537 171.785C103.537 171.785 138.45 169.742 138.25 169.444C138.05 169.146 137.362 161.352 137.362 161.352L136.278 117.916L129.967 111.927L124.117 111.478L111.045 111.971Z" fill="#FF725E"/>
<path d="M98.5479 134.583C98.6199 134.576 98.6925 134.576 98.7645 134.583H99.3929L101.755 134.626L109.945 134.848L109.81 134.978C109.81 133.244 109.761 131.347 109.637 129.369C109.561 128.198 109.463 127.055 109.35 125.954C109.285 125.412 109.225 124.87 109.165 124.328C109.117 123.814 109.035 123.304 108.922 122.8C108.713 121.864 108.44 120.944 108.104 120.047C107.774 119.291 107.249 118.638 106.581 118.155C105.598 117.452 104.402 117.11 103.196 117.185C102.754 117.23 102.316 117.306 101.885 117.412C102.295 117.224 102.735 117.11 103.185 117.076C104.427 116.953 105.672 117.278 106.695 117.992C107.404 118.487 107.966 119.165 108.32 119.954C108.67 120.862 108.956 121.793 109.176 122.74C109.291 123.254 109.378 123.773 109.436 124.296C109.496 124.838 109.561 125.38 109.626 125.922C109.745 127.006 109.843 128.171 109.918 129.347C110.043 131.325 110.092 133.233 110.075 134.973V135.114H109.94L101.749 134.789L99.3875 134.67L98.7591 134.632C98.6871 134.623 98.6162 134.607 98.5479 134.583Z" fill="#263238"/>
<path d="M139.745 109.179L147.194 118.193L138.824 123.456L129.323 114.209L129.951 111.927L139.745 109.179Z" fill="#FF725E"/>
<g opacity="0.3">
<path d="M108.943 122.588C109.257 126.075 109.573 129.558 109.891 133.038C110.005 133.605 109.935 134.194 109.691 134.718C109.393 135.211 108.607 135.434 108.244 134.995L107.053 147.146C108.419 144.158 109.439 141.023 110.092 137.802C110.311 136.757 110.469 135.7 110.563 134.637C110.888 130.594 109.924 126.545 108.943 122.588Z" fill="black"/>
</g>
<path d="M100.715 175.731C101.527 176.488 102.031 177.519 102.129 178.625C102.132 179.064 102.174 179.501 102.253 179.932C102.448 180.663 103.028 181.227 103.31 181.932C103.445 182.227 103.477 182.559 103.402 182.875C103.359 183.03 103.269 183.169 103.144 183.271C103.018 183.373 102.864 183.434 102.703 183.444C102.579 183.434 102.458 183.398 102.348 183.339C102.238 183.281 102.141 183.2 102.064 183.102C101.408 182.408 101.294 181.319 100.601 180.663" fill="#FFBE9D"/>
<path d="M100.612 180.663C100.612 180.663 100.774 180.75 100.969 181.005C101.219 181.376 101.433 181.769 101.608 182.181C101.732 182.451 101.89 182.705 102.08 182.934C102.275 183.173 102.573 183.389 102.854 183.292C103.008 183.23 103.136 183.118 103.22 182.975C103.303 182.832 103.336 182.665 103.315 182.501C103.261 182.11 103.114 181.738 102.887 181.417C102.651 181.07 102.439 180.708 102.253 180.333C102.1 179.956 102.026 179.552 102.036 179.146C102.045 178.499 101.923 177.858 101.679 177.259C101.426 176.717 101.106 176.209 100.725 175.747C100.725 175.747 100.882 175.834 101.105 176.062C101.416 176.39 101.672 176.767 101.863 177.178C102.145 177.792 102.292 178.459 102.296 179.135C102.294 179.507 102.365 179.875 102.508 180.219C102.691 180.594 102.899 180.956 103.131 181.303C103.381 181.666 103.539 182.084 103.591 182.522C103.615 182.747 103.563 182.973 103.443 183.165C103.324 183.357 103.143 183.503 102.93 183.579C102.827 183.609 102.718 183.617 102.612 183.602C102.506 183.587 102.403 183.55 102.313 183.492C102.153 183.398 102.013 183.272 101.901 183.124C101.706 182.875 101.547 182.599 101.43 182.305C101.274 181.895 101.093 181.495 100.888 181.108C100.715 180.804 100.595 180.679 100.612 180.663Z" fill="#EB996E"/>
<path d="M99.4742 134.604C99.4742 134.604 97.5728 145.477 97.4753 146.425C97.3778 147.374 95.7744 176.831 95.7744 176.831C95.7744 176.831 95.0214 183.368 95.7744 184.69C96.0519 185.175 96.4439 185.584 96.9161 185.881C97.3884 186.179 97.9263 186.356 98.4829 186.398C99.068 186.398 102.156 184.338 102.156 184.338L101.256 177.091L100.742 175.731L101.652 170.929L107.172 146.198L108.391 134.962L99.4742 134.604Z" fill="#FFBE9D"/>
<path d="M97.719 175.037C98.3404 175.842 98.7325 176.8 98.8537 177.81C98.9748 178.819 98.8204 179.843 98.407 180.772L101.906 181.216C102.006 181.214 102.105 181.232 102.198 181.268C102.291 181.304 102.376 181.358 102.448 181.427C102.516 181.541 102.54 181.675 102.516 181.804C102.492 181.934 102.422 182.051 102.318 182.132C102.099 182.286 101.843 182.378 101.576 182.398C100.612 182.56 99.6439 182.699 98.6724 182.815" fill="#FFBE9D"/>
<path d="M98.6617 182.826C98.8352 182.756 99.0175 182.71 99.2034 182.69C99.5717 182.62 100.103 182.528 100.753 182.419C101.078 182.365 101.451 182.327 101.836 182.235C102.01 182.2 102.168 182.113 102.291 181.986C102.342 181.925 102.374 181.85 102.383 181.771C102.392 181.692 102.377 181.612 102.34 181.541C102.259 181.422 102.053 181.384 101.798 181.357L101.099 181.27L99.6313 181.086L98.3529 180.923H98.1687L98.2445 180.75C98.8217 179.445 98.8875 177.971 98.4287 176.62C98.225 176.084 97.9748 175.567 97.6812 175.075C97.8029 175.173 97.9073 175.29 97.9899 175.422C98.2423 175.773 98.448 176.156 98.6021 176.56C99.1369 177.952 99.0999 179.499 98.4991 180.864L98.3908 180.669L99.6638 180.831L101.132 181.021L101.831 181.113C101.962 181.111 102.093 181.138 102.214 181.191C102.334 181.244 102.442 181.323 102.529 181.422C102.595 181.539 102.621 181.674 102.606 181.807C102.59 181.94 102.533 182.065 102.443 182.164C102.289 182.335 102.084 182.45 101.858 182.49C101.457 182.576 101.105 182.598 100.774 182.647C100.113 182.728 99.5771 182.788 99.2088 182.826C99.0269 182.844 98.8436 182.844 98.6617 182.826Z" fill="#EB996E"/>
<path d="M102.172 184.338C102.448 184.3 102.71 184.19 102.93 184.018C103.04 183.932 103.112 183.806 103.131 183.668C103.15 183.529 103.115 183.389 103.033 183.276C102.827 183.043 101.982 183.308 101.69 183.395C102.045 183.276 102.383 183.112 102.697 182.907C102.766 182.837 102.811 182.747 102.826 182.649C102.841 182.552 102.824 182.452 102.779 182.365C102.705 182.279 102.607 182.218 102.498 182.188C102.389 182.158 102.274 182.161 102.166 182.197C101.032 182.568 99.8536 182.787 98.6616 182.848" fill="#FFBE9D"/>
<path d="M98.6616 182.826C98.6616 182.782 99.1654 182.761 99.9617 182.604C100.363 182.522 100.834 182.414 101.348 182.273C101.614 182.203 101.89 182.121 102.166 182.034C102.348 181.985 102.542 182.007 102.708 182.094C102.803 182.146 102.88 182.226 102.93 182.323C102.979 182.419 102.998 182.528 102.984 182.636C102.968 182.802 102.889 182.955 102.762 183.064C102.652 183.145 102.534 183.214 102.41 183.27C102.177 183.373 101.955 183.465 101.739 183.547L101.652 183.292C102.056 183.137 102.489 183.076 102.919 183.113C102.978 183.126 103.033 183.153 103.08 183.19C103.127 183.228 103.165 183.275 103.19 183.33C103.23 183.426 103.245 183.53 103.234 183.633C103.214 183.803 103.136 183.96 103.012 184.078C102.84 184.221 102.632 184.315 102.41 184.349C102.264 184.376 102.183 184.376 102.177 184.349C102.172 184.322 102.248 184.305 102.389 184.251C102.577 184.191 102.749 184.089 102.892 183.953C102.981 183.859 103.033 183.736 103.039 183.606C103.039 183.476 102.984 183.33 102.865 183.319C102.477 183.316 102.093 183.39 101.733 183.536C101.699 183.546 101.663 183.543 101.632 183.527C101.6 183.51 101.576 183.483 101.565 183.449C101.556 183.416 101.559 183.381 101.574 183.35C101.589 183.319 101.615 183.294 101.646 183.281C101.852 183.2 102.074 183.108 102.291 183.005C102.394 182.959 102.492 182.902 102.584 182.837C102.651 182.774 102.695 182.69 102.708 182.598C102.746 182.387 102.459 182.251 102.237 182.311C102.015 182.371 101.695 182.474 101.419 182.533C100.951 182.651 100.477 182.743 99.9996 182.81C99.5581 182.894 99.1051 182.9 98.6616 182.826Z" fill="#EB996E"/>
<path d="M110.921 196.251C110.405 196.252 109.891 196.196 109.388 196.083C106.549 195.454 104.041 192.967 103.001 189.758C102.109 186.714 102.223 183.464 103.326 180.49C103.538 179.868 103.793 179.261 104.09 178.674C104.245 177.351 104.717 176.085 105.466 174.983C106.092 174.131 106.886 173.417 107.799 172.885C108.712 172.353 109.725 172.013 110.774 171.888C111.92 171.72 113.088 171.788 114.206 172.089C115.324 172.39 116.369 172.918 117.275 173.639C120.081 175.932 121.522 180.143 121.067 184.674C120.812 187.059 120.01 190.457 117.632 193.102C116.793 194.064 115.763 194.84 114.607 195.382C113.452 195.924 112.196 196.22 110.921 196.251ZM104.149 182.083C103.477 184.46 103.494 186.979 104.198 189.346C105.103 192.137 107.248 194.294 109.664 194.831C112.08 195.368 114.778 194.338 116.663 192.235C118.342 190.37 119.453 187.628 119.778 184.517C120.119 181.308 119.425 177.016 116.462 174.593C115.536 173.847 114.433 173.352 113.261 173.157C114.915 173.62 116.332 174.693 117.226 176.159C118.217 178.045 118.483 180.495 118.022 183.4C117.708 185.362 116.776 188.82 114.014 190.121C111.251 191.422 108.304 189.828 106.646 187.872C105.321 186.195 104.459 184.199 104.149 182.083ZM105.314 179.048C105.033 181.912 105.855 184.775 107.611 187.053C108.97 188.679 111.403 189.942 113.488 188.972C115.715 187.942 116.506 184.918 116.776 183.205C117.194 180.56 116.971 178.387 116.11 176.745C115.189 174.983 112.112 173.666 110.336 174.262C108.055 175.13 106.365 177.092 105.314 179.07V179.048Z" fill="#455A64"/>
<path d="M114.258 173.411C114.258 173.46 113.586 173.27 112.492 173.195C111.074 173.084 109.656 173.416 108.434 174.143C107.26 174.933 106.36 176.07 105.861 177.395C105.673 177.956 105.535 178.533 105.449 179.119C105.412 178.959 105.402 178.794 105.422 178.631C105.448 178.188 105.534 177.75 105.677 177.33C106.135 175.92 107.055 174.706 108.288 173.883C109.555 173.12 111.039 172.8 112.508 172.972C112.947 173.021 113.382 173.104 113.808 173.222C113.967 173.26 114.119 173.324 114.258 173.411Z" fill="#263238"/>
<path d="M104.599 183.996C104.114 182.981 103.866 181.869 103.873 180.745C103.764 178.891 104.252 177.428 104.328 177.465C104.191 178.544 104.133 179.631 104.155 180.717C104.244 181.818 104.392 182.912 104.599 183.996Z" fill="#263238"/>
<path d="M105.412 181.314C105.177 181.308 104.943 181.329 104.713 181.379C104.492 181.46 104.282 181.566 104.084 181.693C104.15 181.585 104.238 181.491 104.341 181.417C104.445 181.344 104.562 181.292 104.686 181.265C104.803 181.221 104.929 181.202 105.054 181.21C105.18 181.219 105.302 181.254 105.412 181.314Z" fill="#263238"/>
<path d="M106.674 185.823C106.477 185.896 106.283 185.979 106.094 186.072C105.927 186.2 105.768 186.337 105.617 186.484C105.699 186.275 105.846 186.098 106.036 185.979C106.227 185.86 106.45 185.805 106.674 185.823Z" fill="#263238"/>
<path d="M109.014 189.85C108.981 189.734 108.976 189.612 108.999 189.493C109.022 189.375 109.071 189.263 109.144 189.167C109.197 189.063 109.274 188.972 109.368 188.902C109.462 188.831 109.57 188.783 109.686 188.761C109.51 188.894 109.353 189.051 109.22 189.227C109.123 189.424 109.053 189.634 109.014 189.85Z" fill="#263238"/>
<path d="M114.594 189.861C114.472 189.863 114.351 189.839 114.238 189.791C114.126 189.743 114.026 189.671 113.944 189.581C113.862 189.49 113.8 189.384 113.762 189.267C113.725 189.151 113.713 189.028 113.727 188.907C113.79 189.123 113.893 189.325 114.03 189.503C114.193 189.658 114.384 189.78 114.594 189.861Z" fill="#263238"/>
<path d="M117.714 184.88C117.619 184.957 117.508 185.01 117.389 185.036C117.269 185.062 117.146 185.059 117.028 185.029C116.91 184.998 116.801 184.94 116.709 184.86C116.617 184.779 116.546 184.679 116.5 184.566C116.653 184.721 116.838 184.841 117.042 184.918C117.266 184.952 117.495 184.939 117.714 184.88Z" fill="#263238"/>
<path d="M118.186 179.736C118.223 179.736 118.055 180.094 117.644 180.159C117.519 180.19 117.389 180.183 117.268 180.14C117.147 180.096 117.042 180.018 116.966 179.915C117.167 180.011 117.388 180.057 117.611 180.051C117.827 179.998 118.025 179.89 118.186 179.736Z" fill="#263238"/>
<path d="M116.132 174.772C116.151 174.901 116.135 175.033 116.085 175.154C116.036 175.275 115.955 175.381 115.85 175.46C115.757 175.552 115.641 175.616 115.514 175.645C115.387 175.675 115.254 175.669 115.13 175.628C115.362 175.597 115.583 175.509 115.775 175.373C115.942 175.206 116.065 174.999 116.132 174.772Z" fill="#263238"/>
<path d="M110.195 174.295C110.195 174.295 110.146 174.371 110.038 174.327C109.98 174.298 109.93 174.257 109.891 174.207C109.852 174.156 109.824 174.097 109.81 174.035C109.777 173.954 109.765 173.866 109.773 173.779C109.782 173.693 109.811 173.609 109.859 173.536C109.871 173.692 109.891 173.848 109.918 174.002C109.941 174.102 109.996 174.192 110.076 174.257C110.135 174.306 110.184 174.279 110.195 174.295Z" fill="#263238"/>
<path d="M106.733 177.081C106.733 177.108 106.544 177.081 106.381 176.934C106.218 176.788 106.186 176.598 106.213 176.593C106.24 176.587 106.316 176.723 106.457 176.853C106.598 176.983 106.744 177.048 106.733 177.081Z" fill="#263238"/>
<path d="M106.095 176.614C105.994 176.384 105.838 176.183 105.639 176.029C105.418 175.911 105.17 175.851 104.918 175.856C105.046 175.807 105.183 175.789 105.318 175.803C105.454 175.817 105.584 175.863 105.699 175.937C105.814 176.011 105.909 176.111 105.978 176.228C106.047 176.346 106.087 176.478 106.095 176.614Z" fill="#263238"/>
<path d="M109.653 173.471C109.597 173.257 109.526 173.047 109.442 172.842C109.33 172.652 109.203 172.471 109.062 172.3C109.171 172.346 109.27 172.412 109.353 172.496C109.435 172.58 109.501 172.679 109.545 172.788C109.669 172.993 109.708 173.238 109.653 173.471Z" fill="#263238"/>
<path d="M114.594 172.192C114.64 172.306 114.658 172.431 114.644 172.554C114.631 172.677 114.588 172.794 114.518 172.896C114.465 173.01 114.385 173.108 114.285 173.182C114.184 173.256 114.067 173.303 113.943 173.319C113.943 173.287 114.236 173.173 114.42 172.842C114.517 172.638 114.576 172.417 114.594 172.192Z" fill="#263238"/>
<path d="M119.177 175.905C119.209 175.905 119.095 176.203 118.787 176.387C118.7 176.452 118.6 176.496 118.494 176.518C118.388 176.539 118.279 176.537 118.174 176.512C118.36 176.452 118.542 176.378 118.716 176.289C118.879 176.173 119.033 176.045 119.177 175.905Z" fill="#263238"/>
<path d="M120.937 180.999C120.882 181.096 120.804 181.178 120.709 181.236C120.615 181.295 120.507 181.329 120.395 181.335C120.289 181.363 120.177 181.365 120.069 181.341C119.962 181.316 119.862 181.266 119.778 181.194C119.976 181.234 120.178 181.245 120.379 181.227C120.575 181.177 120.762 181.1 120.937 180.999Z" fill="#263238"/>
<path d="M120.791 186.278C120.709 186.373 120.602 186.443 120.482 186.48C120.362 186.516 120.234 186.518 120.114 186.484C119.99 186.466 119.873 186.414 119.778 186.334C119.682 186.253 119.611 186.148 119.572 186.029C119.722 186.186 119.908 186.305 120.114 186.376C120.344 186.403 120.578 186.37 120.791 186.278Z" fill="#263238"/>
<path d="M117.979 192.522C117.867 192.531 117.753 192.516 117.646 192.48C117.539 192.444 117.441 192.386 117.356 192.311C117.292 192.259 117.239 192.194 117.202 192.12C117.165 192.046 117.143 191.965 117.139 191.883C117.139 191.752 117.188 191.682 117.199 191.687C117.21 191.693 117.199 191.763 117.199 191.872C117.231 192.01 117.307 192.134 117.416 192.224C117.692 192.43 117.996 192.484 117.979 192.522Z" fill="#263238"/>
<path d="M113.478 195.947C113.362 195.897 113.262 195.817 113.186 195.717C113.11 195.616 113.061 195.498 113.044 195.373C113.005 195.254 112.997 195.127 113.02 195.004C113.043 194.881 113.096 194.766 113.174 194.668C113.132 194.894 113.132 195.126 113.174 195.351C113.234 195.568 113.337 195.771 113.478 195.947Z" fill="#263238"/>
<path d="M107.692 195.53C107.573 195.318 107.538 195.068 107.594 194.831C107.65 194.594 107.794 194.387 107.996 194.251C107.876 194.441 107.779 194.645 107.708 194.858C107.673 195.08 107.667 195.306 107.692 195.53Z" fill="#263238"/>
<path d="M104.876 191.124C104.678 191.193 104.494 191.298 104.334 191.433C104.2 191.595 104.094 191.778 104.019 191.975C104.014 191.864 104.032 191.753 104.072 191.65C104.112 191.546 104.173 191.452 104.252 191.374C104.331 191.296 104.425 191.235 104.529 191.196C104.632 191.156 104.743 191.139 104.854 191.145L104.876 191.124Z" fill="#263238"/>
<path d="M103.657 187.357C103.475 187.351 103.293 187.366 103.115 187.4C102.937 187.472 102.766 187.561 102.605 187.666C102.649 187.57 102.715 187.486 102.798 187.42C102.881 187.355 102.978 187.311 103.082 187.292C103.176 187.257 103.277 187.244 103.377 187.256C103.477 187.267 103.573 187.302 103.657 187.357Z" fill="#263238"/>
<path d="M121.966 237.99L122.882 254.353L103.212 255.665C103.212 253.778 113.954 249.334 113.954 249.334L112.54 239.432L121.966 237.99Z" fill="#FF725E"/>
<g opacity="0.6">
<path d="M119.133 248.066C119.327 248.109 119.498 248.223 119.612 248.385C119.727 248.547 119.776 248.747 119.751 248.944C119.714 249.139 119.603 249.312 119.442 249.427C119.28 249.542 119.08 249.59 118.884 249.562C118.68 249.515 118.5 249.393 118.381 249.221C118.261 249.048 118.211 248.837 118.239 248.629C118.3 248.431 118.434 248.264 118.615 248.163C118.796 248.062 119.009 248.035 119.209 248.087" fill="white"/>
</g>
<g opacity="0.6">
<path d="M122.882 254.353L122.724 252.759L103.922 254.613C103.922 254.613 103.071 255.052 103.212 255.665L122.882 254.353Z" fill="white"/>
</g>
<path d="M113.667 249.535C113.667 249.627 114.16 249.643 114.653 249.919C115.147 250.196 115.423 250.581 115.51 250.537C115.596 250.494 115.418 249.946 114.816 249.621C114.214 249.296 113.64 249.448 113.667 249.535Z" fill="#263238"/>
<path d="M111.148 250.597C111.148 250.694 111.56 250.83 111.912 251.215C112.264 251.6 112.389 252.022 112.487 252.011C112.584 252.001 112.606 251.469 112.156 250.982C111.706 250.494 111.148 250.505 111.148 250.597Z" fill="#263238"/>
<path d="M110.179 253.052C110.265 253.052 110.368 252.575 110.086 252.066C109.805 251.556 109.344 251.377 109.306 251.459C109.268 251.54 109.566 251.805 109.794 252.228C110.021 252.651 110.081 253.047 110.179 253.052Z" fill="#263238"/>
<path d="M113.645 246.89C113.694 246.971 114.122 246.808 114.669 246.808C115.216 246.808 115.65 246.955 115.693 246.868C115.736 246.781 115.308 246.467 114.664 246.478C114.019 246.489 113.591 246.814 113.645 246.89Z" fill="#263238"/>
<path d="M113.374 245.296C113.304 245.125 113.275 244.939 113.288 244.754C113.289 244.227 113.429 243.709 113.694 243.253C113.877 242.935 114.117 242.653 114.404 242.424C114.49 242.336 114.6 242.276 114.72 242.25C114.84 242.224 114.965 242.233 115.079 242.277C115.194 242.32 115.294 242.396 115.366 242.496C115.438 242.595 115.48 242.713 115.487 242.836C115.488 243.332 115.34 243.817 115.062 244.228C114.783 244.639 114.388 244.956 113.927 245.139C113.471 245.316 112.974 245.358 112.494 245.262C112.014 245.166 111.572 244.936 111.218 244.597C111.05 244.446 110.915 244.262 110.823 244.055C110.772 243.939 110.759 243.81 110.785 243.686C110.804 243.623 110.836 243.565 110.879 243.514C110.922 243.464 110.975 243.423 111.034 243.394C111.235 243.32 111.456 243.32 111.657 243.394C111.821 243.452 111.98 243.523 112.134 243.605C112.598 243.841 113.01 244.167 113.347 244.564C113.483 244.701 113.59 244.863 113.661 245.041C113.204 244.523 112.653 244.097 112.036 243.784C111.76 243.659 111.397 243.48 111.126 243.594C111.097 243.612 111.071 243.635 111.05 243.662C111.029 243.69 111.015 243.721 111.007 243.755C110.998 243.788 110.997 243.823 111.003 243.857C111.009 243.891 111.021 243.923 111.04 243.952C111.127 244.12 111.244 244.271 111.386 244.396C111.709 244.695 112.11 244.896 112.542 244.977C112.974 245.059 113.42 245.017 113.829 244.857C114.233 244.695 114.581 244.419 114.832 244.063C115.083 243.707 115.226 243.287 115.243 242.852C115.236 242.77 115.208 242.692 115.162 242.624C115.115 242.557 115.052 242.502 114.978 242.467C114.901 242.451 114.822 242.453 114.747 242.474C114.671 242.494 114.602 242.533 114.544 242.586C114.274 242.793 114.043 243.046 113.862 243.334C113.599 243.759 113.44 244.24 113.396 244.738C113.369 245.096 113.401 245.296 113.374 245.296Z" fill="#263238"/>
<path d="M147.247 232.668L150.991 248.646L132.09 254.261C131.668 252.418 140.942 245.746 140.942 245.746L137.112 235.611L147.247 232.668Z" fill="#FF725E"/>
<g opacity="0.6">
<path d="M145.975 243.329C146.173 243.329 146.365 243.403 146.512 243.536C146.659 243.669 146.752 243.852 146.772 244.049C146.777 244.248 146.706 244.44 146.574 244.588C146.442 244.736 146.259 244.828 146.062 244.846C145.852 244.844 145.65 244.765 145.496 244.622C145.342 244.48 145.246 244.286 145.227 244.077C145.241 243.869 145.335 243.674 145.49 243.535C145.645 243.395 145.848 243.321 146.056 243.329" fill="white"/>
</g>
<g opacity="0.6">
<path d="M150.991 248.646L150.487 247.128L132.556 253.09C132.556 253.09 131.82 253.703 132.091 254.272L150.991 248.646Z" fill="white"/>
</g>
<path d="M140.85 245.827C140.877 245.919 141.354 245.827 141.896 245.99C142.437 246.153 142.789 246.467 142.865 246.402C142.941 246.337 142.643 245.86 141.988 245.665C141.332 245.47 140.801 245.751 140.85 245.827Z" fill="#263238"/>
<path d="M138.721 247.567C138.721 247.665 139.171 247.703 139.605 248.001C140.038 248.299 140.244 248.684 140.336 248.651C140.428 248.619 140.336 248.082 139.794 247.724C139.252 247.367 138.699 247.48 138.721 247.567Z" fill="#263238"/>
<path d="M138.31 250.174C138.402 250.174 138.391 249.67 138.006 249.237C137.622 248.803 137.128 248.727 137.112 248.814C137.096 248.9 137.443 249.096 137.757 249.459C138.071 249.822 138.218 250.196 138.31 250.174Z" fill="#263238"/>
<path d="M140.054 243.453C140.119 243.524 140.503 243.269 141.034 243.15C141.565 243.031 142.02 243.074 142.047 242.982C142.074 242.89 141.581 242.673 140.964 242.825C140.346 242.976 139.989 243.394 140.054 243.453Z" fill="#263238"/>
<path d="M139.718 241.909C139.611 241.745 139.54 241.56 139.512 241.367C139.396 240.853 139.418 240.318 139.577 239.817C139.681 239.464 139.854 239.136 140.086 238.852C140.149 238.744 140.243 238.657 140.356 238.602C140.468 238.547 140.594 238.527 140.718 238.544C140.842 238.561 140.958 238.614 141.052 238.697C141.146 238.779 141.213 238.888 141.246 239.009C141.355 239.493 141.316 239.998 141.136 240.46C140.955 240.921 140.641 241.318 140.233 241.6C139.827 241.88 139.349 242.038 138.856 242.053C138.363 242.068 137.876 241.941 137.454 241.686C137.255 241.577 137.082 241.428 136.944 241.247C136.87 241.143 136.83 241.018 136.831 240.89C136.834 240.825 136.852 240.761 136.882 240.703C136.912 240.645 136.953 240.594 137.004 240.554C137.184 240.438 137.399 240.392 137.611 240.424C137.784 240.447 137.956 240.482 138.125 240.527C138.631 240.656 139.106 240.884 139.523 241.199C139.684 241.301 139.823 241.434 139.935 241.589C139.377 241.194 138.753 240.902 138.093 240.727C137.795 240.673 137.399 240.575 137.161 240.727C137.136 240.75 137.117 240.779 137.103 240.81C137.09 240.841 137.083 240.875 137.083 240.909C137.083 240.943 137.09 240.976 137.103 241.008C137.117 241.039 137.136 241.067 137.161 241.09C137.284 241.237 137.432 241.36 137.6 241.453C137.98 241.674 138.415 241.782 138.854 241.766C139.293 241.749 139.718 241.609 140.081 241.361C140.439 241.113 140.718 240.767 140.885 240.364C141.051 239.961 141.097 239.519 141.018 239.09C140.995 239.012 140.951 238.943 140.89 238.888C140.83 238.834 140.756 238.797 140.677 238.781C140.598 238.779 140.52 238.798 140.451 238.835C140.382 238.872 140.323 238.926 140.281 238.993C140.063 239.252 139.894 239.55 139.783 239.871C139.617 240.342 139.565 240.845 139.631 241.34C139.68 241.703 139.75 241.898 139.718 241.909Z" fill="#263238"/>
<g opacity="0.3">
<path d="M137.356 161.233L105.542 159.233C115.179 162.273 125.195 164.506 135.292 164.832C136.084 164.768 136.869 164.646 137.643 164.468C137.643 164.468 137.291 161.076 137.356 161.233Z" fill="black"/>
</g>
<path d="M106.5 113.824C106.5 113.824 116.137 117.445 116.982 118.377C119.025 120.632 121.127 123.456 121.127 129.19V150.778C121.127 151.216 121.039 151.65 120.867 152.053C120.696 152.456 120.445 152.821 120.129 153.124C119.813 153.428 119.44 153.665 119.03 153.82C118.621 153.976 118.184 154.047 117.746 154.03L106.793 153.596C105.966 155.362 105.538 157.288 105.542 159.238C105.542 159.238 118.884 161.097 125.081 162.143C131.278 163.189 138.624 161.872 138.624 161.872L136.294 117.922L125.926 111.678L124.111 111.483C124.111 111.483 125.298 112.86 124.144 113.651C122.595 114.708 117.28 114.312 117.28 114.312L110.357 112.166L106.5 113.824Z" fill="#263238"/>
<path d="M125.043 114.469C124.081 115.078 123.3 115.933 122.78 116.947C122.261 117.96 122.023 119.094 122.091 120.231C122.578 129.694 124.008 157.254 124.106 157.542C124.203 157.829 129.945 161.677 133.488 162.073C135.715 162.322 140.877 161.639 144.404 161.092C145.409 160.931 146.326 160.422 146.994 159.653C147.661 158.884 148.037 157.904 148.055 156.886L148.141 151.217C148.141 151.217 150.438 150.328 150.53 150.089C150.812 149.385 150.693 143.152 150.601 139.683C150.582 138.988 150.372 138.311 149.995 137.727C149.617 137.143 149.087 136.674 148.461 136.371L147.443 135.878C147.443 135.878 147.443 124.344 147.193 118.215C147.149 117.157 146.786 116.138 146.15 115.292C145.515 114.446 144.637 113.814 143.634 113.477C143.05 113.281 142.436 113.191 141.82 113.212C138.336 113.326 126.213 113.754 125.081 114.442L125.043 114.469Z" fill="#455A64"/>
<path d="M145.509 114.583H145.352H144.902L143.152 114.654L140.395 114.789C139.312 114.854 138.093 114.925 136.755 115.125C135.293 115.269 133.844 115.524 132.421 115.889C131.64 116.094 130.92 116.483 130.319 117.022C129.748 117.658 129.393 118.459 129.306 119.309C128.978 121.149 128.854 123.02 128.938 124.887C129.003 126.843 129.062 128.865 129.133 130.935C129.371 139.211 129.593 146.702 129.75 152.149C129.815 154.859 129.87 157.027 129.907 158.577C129.907 159.32 129.907 159.905 129.935 160.328V160.783C129.939 160.833 129.939 160.884 129.935 160.935C129.928 160.884 129.928 160.833 129.935 160.783L129.907 160.328C129.907 159.905 129.864 159.325 129.826 158.582C129.767 157.043 129.685 154.853 129.582 152.154C129.404 146.707 129.154 139.222 128.884 130.946C128.819 128.876 128.754 126.854 128.694 124.903C128.612 123.013 128.743 121.121 129.084 119.261C129.167 118.818 129.287 118.383 129.442 117.96C129.526 117.751 129.628 117.55 129.745 117.358C129.873 117.175 130.018 117.005 130.178 116.849C130.81 116.282 131.568 115.875 132.388 115.662C133.83 115.305 135.297 115.058 136.776 114.925C138.125 114.74 139.355 114.681 140.433 114.632C141.511 114.583 142.443 114.556 143.201 114.545H144.945H145.4L145.509 114.583Z" fill="#263238"/>
<path d="M147.529 136.138C147.529 136.214 143.467 136.604 138.44 137.011C133.412 137.417 129.328 137.678 129.323 137.602C129.317 137.526 133.385 137.136 138.418 136.729C143.45 136.323 147.524 136.063 147.529 136.138Z" fill="#263238"/>
<path d="M149.723 137.954C149.612 137.985 149.498 138.005 149.382 138.014L148.385 138.127L144.664 138.518L131.939 139.764L132.064 139.613C132.297 141.331 132.172 143.152 132.264 145C132.282 146.548 132.668 148.07 133.391 149.439C133.722 150.068 134.188 150.616 134.757 151.043C135.326 151.469 135.982 151.764 136.679 151.905C137.34 152.024 138.011 152.082 138.683 152.078H140.596C141.831 152.078 142.979 152.04 144.025 151.948C145.677 151.834 147.303 151.468 148.846 150.864C149.117 150.761 149.355 150.648 149.555 150.55C149.756 150.452 149.929 150.366 150.065 150.29C150.198 150.204 150.34 150.131 150.487 150.073C149.988 150.428 149.452 150.727 148.889 150.967C147.346 151.615 145.709 152.012 144.041 152.143C142.99 152.252 141.836 152.301 140.596 152.311H138.678C137.992 152.316 137.306 152.26 136.63 152.143C135.907 152.013 135.225 151.716 134.637 151.276C134.031 150.809 133.527 150.225 133.152 149.558C132.403 148.152 132.002 146.587 131.982 144.995C131.89 143.125 132.02 141.314 131.793 139.634V139.488H131.939L144.669 138.339L148.396 138.03L149.398 137.959C149.506 137.949 149.615 137.947 149.723 137.954Z" fill="#263238"/>
<path d="M130.834 114.074C130.247 114.277 129.687 114.55 129.165 114.887C127.78 115.874 126.731 117.263 126.159 118.865C125.379 120.876 125.265 123.477 125.422 126.317C125.579 129.157 125.731 132.279 125.904 135.591C126.224 142.16 126.511 148.111 126.722 152.447C126.809 154.582 126.885 156.322 126.939 157.553C126.939 158.138 126.971 158.604 126.982 158.946C126.995 159.106 126.995 159.267 126.982 159.428C126.951 159.269 126.933 159.107 126.928 158.946C126.928 158.604 126.874 158.143 126.83 157.558C126.76 156.328 126.657 154.593 126.527 152.452C126.294 148.116 125.985 142.154 125.628 135.602C125.465 132.312 125.308 129.179 125.167 126.328C125.026 123.477 125.167 120.838 125.98 118.795C126.577 117.165 127.672 115.765 129.111 114.795C129.504 114.544 129.926 114.342 130.368 114.193L130.72 114.095C130.757 114.084 130.795 114.077 130.834 114.074Z" fill="#263238"/>
<path d="M150.704 140.1C150.704 140.182 146.554 140.74 141.408 141.352C136.262 141.965 132.085 142.398 132.08 142.322C132.074 142.247 136.229 141.683 141.375 141.07C146.522 140.458 150.698 140.024 150.704 140.1Z" fill="#263238"/>
<path d="M135.465 126.339L143.217 125.483V121.797L140.823 124.258L140.444 122.664L138.071 124.561V123.13L135.465 126.339Z" fill="white"/>
<g opacity="0.3">
<path d="M148.488 151.19C144.347 152.131 140.072 152.333 135.861 151.786C134.133 151.526 133.027 149.358 132.524 147.683C132.67 149.52 132.583 153.173 134.024 154.317C135.039 155.162 136.335 155.596 137.654 155.531C140.244 155.483 142.82 155.134 145.33 154.49C146.176 154.33 146.976 153.982 147.67 153.471C148.011 153.21 148.269 152.855 148.414 152.451C148.559 152.046 148.585 151.608 148.488 151.19Z" fill="black"/>
</g>
<path d="M71.6087 135.629C65.3519 139.569 60.8232 145.824 57.7517 152.55C54.6802 159.276 52.9414 166.528 51.2512 173.72L52.2425 210.002C58.7756 196.408 63.6185 180.669 64.0193 165.591L58.9164 165.563C62.2696 164.761 64.9186 162.062 66.5004 158.989C68.0821 155.916 68.7214 152.485 69.3552 149.087L63.2555 150.518C67.8476 146.812 70.8387 141.481 71.6087 135.629Z" fill="#455A64"/>
<g opacity="0.3">
<path d="M71.6087 135.629C65.3519 139.569 60.8232 145.824 57.7517 152.55C54.6802 159.276 52.9414 166.528 51.2512 173.72L52.2425 210.002C58.7756 196.408 63.6185 180.669 64.0193 165.591L58.9164 165.563C62.2696 164.761 64.9186 162.062 66.5004 158.989C68.0821 155.916 68.7214 152.485 69.3552 149.087L63.2555 150.518C67.8476 146.812 70.8387 141.481 71.6087 135.629Z" fill="black"/>
</g>
<path d="M51.793 218.56C51.793 218.56 33.6241 200.132 32.2373 181.243L38.9166 180.701C38.9166 180.701 31.2677 176.533 31.6198 173.818C31.9719 171.102 31.3164 160.945 31.3164 160.945L37.5461 161.964C37.5461 161.964 32.779 160.057 31.9069 156.479C31.0347 152.902 31.5385 135.954 31.5385 135.954C31.5385 135.954 39.6262 143.152 42.584 150.978C45.5417 158.805 52.3348 167.65 52.5948 192.219C52.8548 216.787 51.793 218.56 51.793 218.56Z" fill="#455A64"/>
<path d="M60.3246 219.725C60.3246 219.725 77.2314 206.305 79.94 190.744L74.4524 189.731C74.4524 189.731 81.1371 186.907 81.0721 184.625C81.0071 182.344 82.3831 173.997 82.3831 173.997L77.1339 174.327C77.1339 174.327 81.2401 173.14 82.2639 170.246C83.2877 167.352 84.2628 153.255 84.2628 153.255C84.2628 153.255 76.9606 158.561 73.862 164.799C70.7634 171.037 64.4091 177.807 62.1556 198.164C59.9021 218.522 60.3246 219.725 60.3246 219.725Z" fill="#455A64"/>
<path d="M37.4917 152.816C37.4917 152.816 37.4917 152.881 37.5621 153.016L37.7571 153.612L38.4776 155.921C38.7864 156.918 39.1601 158.149 39.561 159.58C39.9619 161.011 40.4548 162.637 40.9424 164.458C41.9554 168.067 43.0659 172.392 44.2414 177.205C45.4169 182.018 46.587 187.346 47.7192 192.95C48.8513 198.555 49.7939 203.931 50.5902 208.825C51.3865 213.72 52.0095 218.137 52.47 221.86C52.7192 223.719 52.9033 225.405 53.0767 226.885C53.25 228.364 53.3855 229.638 53.483 230.679C53.5805 231.719 53.6563 232.521 53.7105 233.085C53.7105 233.345 53.7484 233.557 53.7592 233.708C53.7653 233.78 53.7653 233.853 53.7592 233.925C53.7408 233.856 53.7282 233.785 53.7213 233.714C53.7213 233.557 53.6726 233.351 53.6401 233.09C53.5751 232.548 53.483 231.719 53.3584 230.695C53.2338 229.67 53.0983 228.375 52.9087 226.901C52.7192 225.427 52.5241 223.741 52.2641 221.887C51.7766 218.169 51.1157 213.757 50.3248 208.88C49.5339 204.002 48.548 198.625 47.4321 193.021C46.3161 187.417 45.1135 182.1 43.976 177.276C42.8384 172.452 41.7279 168.138 40.7257 164.523C40.249 162.707 39.7831 161.081 39.3822 159.645C38.9814 158.208 38.6347 156.978 38.3367 155.97C38.0388 154.962 37.8275 154.198 37.6704 153.65C37.6 153.395 37.5459 153.195 37.5025 153.049C37.492 152.971 37.4883 152.893 37.4917 152.816Z" fill="#263238"/>
<path d="M50.5143 230.863C50.5143 230.863 33.9596 214.955 28.4017 204.972L31.8199 203.162C29.2847 203.801 26.5599 202.918 24.4309 201.405C22.302 199.893 20.639 197.807 19.0138 195.752L23.6184 194.576C19.2384 193.703 15.3605 191.181 12.7842 187.53C18.3692 187.975 23.6184 190.587 28.0279 194.034C31.614 196.826 34.7234 200.148 37.7299 203.557C39.2026 205.216 40.5124 207.013 41.6411 208.923C44.6151 213.953 49.9942 224.56 50.5143 230.863Z" fill="#455A64"/>
<path d="M77.9629 163.845C77.9536 163.907 77.9353 163.967 77.9088 164.024C77.86 164.154 77.795 164.328 77.7192 164.566C77.535 165.032 77.2804 165.699 76.95 166.544C76.6195 167.39 76.2078 168.452 75.7474 169.677C75.2869 170.902 74.7127 172.273 74.171 173.818C73.0226 176.907 71.7116 180.609 70.3194 184.734C68.9272 188.858 67.4917 193.433 66.067 198.256C64.6423 203.08 63.4126 207.709 62.3346 211.931C61.2566 216.153 60.3736 219.974 59.6694 223.194C59.301 224.82 59.0085 226.261 58.7322 227.53C58.456 228.798 58.2339 229.914 58.0551 230.82C57.8763 231.725 57.7247 232.402 57.6272 232.895L57.508 233.437C57.4984 233.499 57.4821 233.559 57.4592 233.616C57.4508 233.555 57.4508 233.493 57.4592 233.432C57.4592 233.291 57.508 233.112 57.5459 232.89C57.638 232.397 57.7626 231.698 57.9251 230.803C58.0876 229.909 58.2935 228.787 58.5589 227.503C58.8243 226.218 59.1006 224.755 59.4527 223.167C60.1353 219.942 61.0128 216.121 62.0638 211.882C63.1147 207.644 64.366 203.021 65.7745 198.191C67.1829 193.362 68.6618 188.799 70.054 184.669C71.4462 180.539 72.7896 176.848 73.9597 173.769C74.5339 172.219 75.0865 170.837 75.5848 169.617C76.0832 168.398 76.4787 167.352 76.8362 166.501C77.1937 165.65 77.4537 165 77.6488 164.539L77.8654 164.029C77.8938 163.966 77.9263 163.904 77.9629 163.845Z" fill="#263238"/>
<path d="M170.725 226.646C171.228 226.641 171.727 226.737 172.193 226.929C172.658 227.121 173.08 227.404 173.434 227.763C174.139 228.487 174.669 229.364 174.983 230.326C175.639 232.158 175.525 234.397 175.135 236.288C173.049 235.746 171.614 233.67 170.953 232.576C169.907 230.852 169.068 227.101 170.72 226.614" fill="#FF725E"/>
<path d="M178.255 238.337C177.91 237.89 177.69 237.36 177.616 236.8C177.543 236.24 177.62 235.671 177.838 235.15C178.064 234.634 178.391 234.168 178.799 233.78C179.208 233.392 179.689 233.09 180.216 232.89C180.448 232.771 180.703 232.704 180.963 232.695C181.223 232.685 181.482 232.733 181.722 232.836C181.928 232.966 182.096 233.15 182.208 233.367C182.319 233.584 182.37 233.828 182.356 234.071C182.316 234.558 182.152 235.027 181.879 235.432C181.002 236.852 179.896 238.061 178.255 238.337Z" fill="#FF725E"/>
<path d="M178.997 244.586C178.946 244.463 178.904 244.336 178.872 244.207C178.797 243.93 178.699 243.578 178.575 243.155C178.204 242.002 178.021 240.796 178.033 239.584C178.084 238.361 178.458 237.173 179.116 236.142C179.318 235.836 179.554 235.554 179.82 235.302C179.892 235.232 179.968 235.167 180.048 235.107C180.074 235.083 180.103 235.063 180.135 235.047C179.522 235.635 179.034 236.34 178.698 237.12C178.362 237.9 178.186 238.74 178.179 239.589C178.164 240.786 178.324 241.978 178.656 243.128C178.77 243.578 178.856 243.941 178.91 244.212C178.951 244.334 178.98 244.459 178.997 244.586Z" fill="#263238"/>
<path d="M171.614 229.443C171.652 229.49 171.684 229.541 171.711 229.595C171.776 229.703 171.858 229.849 171.955 230.028C172.172 230.408 172.47 230.955 172.833 231.654C173.564 233.02 174.544 234.906 175.584 237.074C176.625 239.242 177.513 241.155 178.141 242.575C178.456 243.28 178.683 243.86 178.873 244.261L179.062 244.722C179.085 244.774 179.103 244.829 179.116 244.884C179.116 244.884 179.084 244.836 179.035 244.733C178.986 244.63 178.911 244.467 178.819 244.283L178.049 242.613C177.399 241.204 176.489 239.264 175.454 237.134C174.42 235.004 173.45 233.096 172.746 231.714L171.906 230.088C171.82 229.909 171.744 229.757 171.684 229.643C171.656 229.578 171.632 229.511 171.614 229.443Z" fill="#263238"/>
<path d="M176.246 240.619C175.549 239.654 174.635 238.869 173.576 238.327C172.518 237.785 171.346 237.503 170.157 237.502C169.55 237.502 168.84 237.67 168.618 238.234C168.396 238.798 168.808 239.405 169.252 239.817C170.199 240.656 171.373 241.196 172.627 241.368C173.88 241.539 175.157 241.335 176.294 240.781" fill="#FF725E"/>
<path d="M171.202 239.058C171.328 239.044 171.455 239.044 171.581 239.058C171.729 239.048 171.878 239.048 172.026 239.058C172.193 239.058 172.394 239.058 172.605 239.118C172.816 239.177 173.06 239.188 173.309 239.253C173.575 239.315 173.837 239.391 174.095 239.481C175.285 239.888 176.357 240.582 177.215 241.502C177.409 241.7 177.59 241.91 177.757 242.131C177.914 242.332 178.039 242.538 178.158 242.722C178.26 242.888 178.354 243.06 178.439 243.237C178.521 243.388 178.575 243.524 178.624 243.638C178.68 243.751 178.722 243.872 178.748 243.996C178.748 243.996 178.531 243.502 178.071 242.776C177.952 242.597 177.822 242.397 177.665 242.202C177.508 242.006 177.329 241.8 177.123 241.589C176.694 241.148 176.218 240.756 175.704 240.418C175.184 240.088 174.63 239.813 174.052 239.6C173.798 239.508 173.539 239.43 173.277 239.367C173.05 239.305 172.821 239.256 172.589 239.221C171.744 239.074 171.202 239.09 171.202 239.058Z" fill="#263238"/>
<path d="M73.9326 236.846L58.678 228.147L31.8796 237.909L10.2329 255.665L86.8036 255.274L73.9326 236.846Z" fill="#F5F5F5"/>
<path d="M10.2329 255.665L37.6922 239.725L73.9326 236.847L58.0659 227.443L31.8796 237.909L10.2329 255.665Z" fill="#E0E0E0"/>
<path d="M49.6858 255.464L63.3965 246.061L75.9046 245.172L65.4441 247.497L60.0216 255.41L49.6858 255.464Z" fill="#E0E0E0"/>
<path d="M10.249 255.665C10.2776 255.63 10.3103 255.599 10.3465 255.572L10.6391 255.312C10.9153 255.079 11.3054 254.77 11.7983 254.331L16.2078 250.657L31.7982 237.795L50.8989 230.034L57.9412 227.177L58.017 227.15L58.0874 227.188L73.9812 236.749C77.8273 242.304 81.0234 246.917 83.2769 250.158C84.3604 251.784 85.2434 253.036 85.8501 253.914C86.1372 254.337 86.3593 254.667 86.5164 254.911C86.6735 255.155 86.7385 255.258 86.7385 255.258C86.7385 255.258 86.6464 255.15 86.4839 254.933L85.7796 253.963L83.1415 250.256L73.7483 236.906L73.7916 236.95L57.9466 227.448H58.0929L51.0506 230.305L31.9174 238.05H31.9553L16.3108 250.798C14.4039 252.337 12.8926 253.556 11.8471 254.407C11.3054 254.808 10.937 255.123 10.6553 255.35L10.3465 255.589C10.317 255.618 10.2843 255.643 10.249 255.665Z" fill="#263238"/>
<path d="M76.3378 245.139C76.0113 245.208 75.6798 245.252 75.3465 245.269L72.638 245.513L63.4289 246.223H63.5101L62.0042 247.258C58.6347 249.567 55.5741 251.648 53.3368 253.133L50.6933 254.884L49.962 255.345C49.8808 255.406 49.7914 255.455 49.6965 255.491C49.6965 255.491 49.767 255.415 49.9241 255.291L50.6174 254.781L53.2068 252.944C55.3737 251.405 58.4343 249.296 61.8092 246.982L63.3151 245.947L63.353 245.92H63.3964L72.6055 245.318L75.3465 245.172C75.6755 245.134 76.0071 245.123 76.3378 245.139Z" fill="#263238"/>
<path d="M199.306 222.961C198.736 219.469 199.098 215.889 200.356 212.583C201.614 209.276 203.722 206.361 206.467 204.132C206.467 204.132 208.033 203.59 207.86 205.34C207.751 206.381 208.716 207.877 209.561 207.259C211.034 206.175 210.644 203.904 211.294 202.208C212.074 200.219 214.23 199.2 216.207 198.414C219.853 196.918 223.553 195.476 227.448 194.869C231.343 194.262 235.471 194.544 238.959 196.365L236.251 201.481C236.169 201.706 236.044 201.912 235.883 202.088C235.721 202.264 235.527 202.406 235.311 202.507C235.094 202.607 234.86 202.664 234.622 202.674C234.383 202.685 234.145 202.647 233.921 202.565L229.241 202.105C228.558 202.04 227.675 202.105 227.464 202.744C227.226 203.476 228.093 204.05 228.813 204.327L233.688 206.218C231.997 208.548 229.7 210.37 227.047 211.487C224.409 212.588 221.676 213.45 218.883 214.061C217.995 214.283 217.047 214.506 216.175 214.202C214.75 213.709 213.802 211.888 212.307 212.072C212.37 212.898 212.596 213.703 212.974 214.44C213.352 215.177 213.873 215.832 214.506 216.365C208.651 218.5 204.539 221.188 199.29 222.966" fill="#455A64"/>
<path d="M193.694 248.613C193.717 248.565 193.733 248.514 193.742 248.461L193.851 248.022C193.948 247.611 194.084 247.041 194.252 246.321L195.671 240.039L196.641 235.703L197.182 233.286C197.274 232.868 197.367 232.445 197.464 232.017C197.562 231.589 197.61 231.15 197.686 230.706C198.309 227.183 199.046 223.259 200.861 219.541C202.675 215.822 205.552 212.993 208.266 210.684C210.714 208.659 213.317 206.829 216.05 205.21C218.374 203.806 220.303 202.755 221.624 202.012L223.141 201.162L223.537 200.934C223.623 200.88 223.672 200.853 223.667 200.847L223.526 200.907L223.119 201.113L221.565 201.915C220.221 202.63 218.277 203.655 215.936 205.042C213.181 206.639 210.556 208.451 208.087 210.462C206.636 211.666 205.276 212.976 204.019 214.381C202.662 215.894 201.511 217.58 200.595 219.394C198.764 223.161 198.033 227.112 197.421 230.641C197.345 231.08 197.274 231.519 197.204 231.952C197.134 232.386 197.02 232.798 196.933 233.215C196.749 234.044 196.576 234.841 196.391 235.632C196.056 237.193 195.741 238.651 195.46 239.968C194.918 242.608 194.447 244.754 194.127 246.261C193.975 246.993 193.862 247.567 193.775 247.979C193.742 248.163 193.715 248.31 193.694 248.423C193.687 248.487 193.687 248.55 193.694 248.613Z" fill="#263238"/>
<path d="M195.184 200.392L194.999 200.56C205.747 194.305 212.475 181.709 211.7 169.292C209.918 169.525 208.949 171.412 208.011 172.945C207.074 174.479 205.238 176.013 203.678 175.113C202.34 174.371 202.34 172.349 203.136 171.048C203.932 169.748 205.27 168.88 206.289 167.731C208.683 165.049 209.165 161.076 208.401 157.558C207.638 154.041 205.796 150.881 203.981 147.775C201.557 148.37 199.28 149.456 197.291 150.965C195.302 152.474 193.642 154.375 192.416 156.55C193.856 157.667 195.357 158.859 196.029 160.555C196.7 162.252 196.137 164.572 194.404 165.168C193.131 165.612 191.695 164.962 190.801 163.948C189.985 162.874 189.392 161.646 189.057 160.339C187.035 166.619 186.203 173.221 186.603 179.807C188.228 178.268 191.505 179.921 191.229 182.154C190.953 184.387 187.394 185.205 186.175 183.314C188.031 189.542 191.092 195.345 195.184 200.392ZM195.568 171.515C195.531 171.814 195.416 172.099 195.235 172.341C195.053 172.583 194.811 172.772 194.534 172.891C194.139 173.062 193.713 173.144 193.283 173.133C192.854 173.122 192.432 173.017 192.047 172.826C191.279 172.433 190.634 171.834 190.184 171.097C189.881 170.665 189.677 170.171 189.588 169.65C189.546 169.391 189.559 169.126 189.628 168.873C189.696 168.62 189.817 168.384 189.983 168.181C190.155 167.981 190.386 167.84 190.643 167.778C190.9 167.717 191.169 167.738 191.413 167.84C192.631 168.242 193.743 168.914 194.664 169.807C194.927 170.012 195.143 170.269 195.299 170.564C195.455 170.858 195.547 171.182 195.568 171.515Z" fill="#455A64"/>
<path d="M191.359 248.554C191.359 248.554 191.359 248.489 191.359 248.358C191.359 248.228 191.359 248.028 191.397 247.816C191.43 247.274 191.478 246.559 191.533 245.616C191.657 243.686 191.836 240.928 192.074 237.519C192.546 230.689 193.255 221.259 194.279 210.852C195.303 200.446 196.419 191.059 197.334 184.295C197.779 180.896 198.179 178.154 198.456 176.262C198.586 175.325 198.689 174.593 198.759 174.094C198.792 173.856 198.813 173.666 198.835 173.525C198.841 173.46 198.841 173.395 198.835 173.33C198.835 173.33 198.835 173.395 198.792 173.52C198.748 173.644 198.737 173.85 198.694 174.062C198.607 174.577 198.488 175.308 198.336 176.23C198.028 178.121 197.594 180.858 197.128 184.251C196.159 191.032 195 200.424 193.987 210.809C192.974 221.194 192.286 230.651 191.868 237.491C191.663 240.911 191.522 243.676 191.435 245.621C191.403 246.564 191.37 247.302 191.354 247.822C191.354 248.066 191.354 248.255 191.354 248.396C191.35 248.449 191.352 248.502 191.359 248.554Z" fill="#263238"/>
<path d="M196.592 245.73L187.421 242.104L172.139 244.884L164.729 254.846L201.002 254.873L196.592 245.73Z" fill="#F5F5F5"/>
<path d="M172.139 244.884C172.583 244.803 196.592 245.73 196.592 245.73L187.421 242.104L172.139 244.884Z" fill="#E0E0E0"/>
<path d="M164.729 254.846C164.762 254.777 164.802 254.712 164.848 254.651L165.227 254.109L166.706 252.06L172.02 244.808L172.053 244.76H172.112L183.488 242.673L187.399 241.968H187.443H187.486L196.646 245.621H196.695V245.67L199.848 252.348L200.704 254.207C200.79 254.407 200.861 254.564 200.915 254.7C200.943 254.755 200.965 254.813 200.98 254.873C200.98 254.873 200.937 254.825 200.882 254.716C200.828 254.608 200.731 254.434 200.628 254.245L199.707 252.413L196.457 245.789L196.527 245.86L187.388 242.245H187.481L183.569 242.955L172.194 245.004L172.28 244.949L166.863 252.131L165.303 254.169L164.886 254.711C164.788 254.792 164.74 254.852 164.729 254.846Z" fill="#263238"/>
<path d="M249.755 255.388C249.755 255.464 193.846 255.529 124.886 255.529C55.9261 255.529 0 255.464 0 255.388C0 255.312 55.9045 255.247 124.886 255.247C193.867 255.247 249.755 255.307 249.755 255.388Z" fill="#263238"/>
</svg>
