<svg width="253" height="245" viewBox="0 0 253 245" fill="none" xmlns="http://www.w3.org/2000/svg">
<path d="M204.277 189.809C200.554 188.246 196.329 188.335 192.408 189.307C190.304 189.826 188.133 190.638 186.808 192.355C185.482 194.073 185.433 196.912 187.205 198.155C188.26 198.895 189.652 198.911 190.939 198.795C194.043 198.514 197.445 197.691 200.074 199.348C201.576 200.303 202.659 202.004 204.393 202.396C206.127 202.788 207.878 201.651 208.64 200.088C209.327 198.468 209.362 196.646 208.739 195.001C208.444 193.851 207.888 192.785 207.114 191.884C206.34 190.984 205.369 190.274 204.277 189.809Z" fill="#EBEBEB"/>
<path d="M218.046 180.708C215.533 183.585 211.418 182.099 209.645 179.99C207.872 177.88 207.348 175.019 206.884 172.329C205.779 166.138 204.735 159.654 206.679 153.684C207.187 151.863 208.187 150.218 209.568 148.929C210.998 147.713 213.058 147.117 214.809 147.791C216.886 148.581 217.99 150.817 218.736 152.911C220.93 159.091 221.721 165.683 221.05 172.208C220.735 175.245 220.034 178.388 218.057 180.708" fill="#EBEBEB"/>
<path d="M222.9 190.616C220.956 187.738 220.951 183.845 222.293 180.647C223.635 177.449 226.159 174.881 228.992 172.859C232.313 170.488 236.065 168.786 240.038 167.85C241.583 167.41 243.205 167.31 244.793 167.557C245.581 167.689 246.326 168.009 246.965 168.489C247.603 168.97 248.116 169.598 248.46 170.319C249.327 172.528 248.007 174.936 246.654 176.875C244.269 180.298 241.615 183.526 238.718 186.529C236.393 188.948 233.775 191.295 230.527 192.151C227.28 193.007 224.065 192.521 222.646 190.179" fill="#EBEBEB"/>
<path d="M215.074 220.44C214.919 219.985 214.815 219.515 214.765 219.037C214.583 218.01 214.356 216.723 214.08 215.171C213.74 213.279 213.302 211.406 212.766 209.559C212.083 207.323 211.225 205.143 210.198 203.042C209.178 200.937 207.865 198.986 206.298 197.249C205.023 195.833 203.448 194.719 201.687 193.99C200.495 193.512 199.235 193.225 197.953 193.14C197.475 193.16 196.995 193.131 196.523 193.051C196.995 192.952 197.476 192.905 197.959 192.913C199.278 192.911 200.588 193.145 201.825 193.604C203.674 194.303 205.336 195.423 206.679 196.873C208.309 198.632 209.668 200.624 210.711 202.783C211.764 204.913 212.629 207.13 213.296 209.41C213.811 211.281 214.215 213.181 214.505 215.099C214.754 216.756 214.909 218.059 215.002 218.965C215.081 219.452 215.105 219.947 215.074 220.44Z" fill="#E0E0E0"/>
<path d="M213.202 224.692C213.191 224.471 213.202 224.249 213.235 224.029C213.29 223.538 213.357 222.925 213.445 222.157C213.622 220.528 213.876 218.17 214.097 215.248C214.583 209.41 214.754 203.097 214.732 194.15C214.732 185.744 214.517 175.925 213.892 169.518C213.765 168.06 213.622 166.757 213.478 165.586C213.335 164.415 213.241 163.432 213.114 162.625C212.987 161.819 212.937 161.245 212.871 160.753C212.831 160.535 212.817 160.312 212.826 160.09C212.907 160.296 212.96 160.512 212.987 160.731C213.081 161.217 213.197 161.836 213.34 162.587C213.484 163.338 213.644 164.387 213.804 165.541C213.964 166.696 214.152 168.016 214.301 169.474C215.113 177.081 215.517 184.727 215.511 192.377C215.511 201.336 215.102 209.443 214.511 215.287C214.235 218.208 213.92 220.561 213.671 222.185C213.539 222.941 213.434 223.56 213.351 224.051C213.33 224.271 213.28 224.486 213.202 224.692Z" fill="#E0E0E0"/>
<path d="M214.71 212.514C214.731 211.897 214.801 211.282 214.92 210.675C215.118 209.499 215.472 207.803 216.024 205.749C216.693 203.339 217.496 200.97 218.432 198.652C219.536 195.792 220.86 193.022 222.392 190.367C225.557 184.657 229.506 180.133 232.808 177.427C233.543 176.804 234.316 176.226 235.122 175.698C235.47 175.461 235.785 175.218 236.1 175.036L236.973 174.561C237.502 174.241 238.056 173.966 238.63 173.738C238.707 173.865 236.277 174.964 233.062 177.725C228.955 181.417 225.509 185.784 222.873 190.638C221.367 193.278 220.04 196.016 218.902 198.834C217.797 201.419 217.024 203.805 216.4 205.843C215.776 207.88 215.395 209.543 215.141 210.703C215.046 211.317 214.902 211.923 214.71 212.514Z" fill="#E0E0E0"/>
<path d="M199.428 216.612L200.996 238.08H228.572L230.141 216.612H199.428Z" fill="#E0E0E0"/>
<path d="M233.433 208.151H196.766V216.612H233.433V208.151Z" fill="#E0E0E0"/>
<path d="M196.766 237.257V239.604H198.489H232.825V237.257H196.766Z" fill="#EBEBEB"/>
<path d="M200.173 243.73L198.489 239.604H231.51L229.539 243.73H200.173Z" fill="#E0E0E0"/>
<path d="M229.627 223.626C229.593 223.697 229.55 223.764 229.5 223.825L229.086 224.378L227.479 226.432L227.407 226.526L227.341 226.427L223.392 220.97H223.618L219.752 226.493L219.631 226.67L219.493 226.504C218.057 224.797 216.499 222.947 214.886 221.02H215.152L214.897 221.334L210.75 226.476L210.612 226.647L210.485 226.471L206.619 220.948H206.845L202.057 226.404L201.968 226.504L201.908 226.393L200.405 223.875L200.024 223.207C199.974 223.131 199.933 223.049 199.903 222.964C199.903 222.964 199.969 223.035 200.063 223.179C200.157 223.323 200.317 223.56 200.488 223.825C200.875 224.422 201.399 225.256 202.062 226.294H201.913C203.145 224.858 204.741 222.98 206.624 220.771L206.746 220.633L206.851 220.782L210.777 226.261H210.512L214.621 221.091L214.875 220.771L215.008 220.605L215.141 220.766L219.736 226.261H219.482C220.895 224.284 222.215 222.439 223.403 220.788L223.519 220.627L223.629 220.788L227.495 226.311H227.319L228.975 224.306L229.423 223.792C229.484 223.729 229.553 223.673 229.627 223.626Z" fill="#F5F5F5"/>
<path d="M230.522 216.469C230.522 216.562 223.613 216.64 215.091 216.64C206.569 216.64 199.66 216.562 199.66 216.469C199.66 216.375 206.563 216.297 215.091 216.297C223.618 216.297 230.522 216.375 230.522 216.469Z" fill="#F5F5F5"/>
<path d="M231.919 239.836C231.919 239.93 224.408 240.007 215.146 240.007C205.884 240.007 198.373 239.93 198.373 239.836C198.373 239.742 205.878 239.665 215.146 239.665C224.413 239.665 231.919 239.737 231.919 239.836Z" fill="#F5F5F5"/>
<path d="M92.465 1.80847H7.83154V141.898H92.465V1.80847Z" fill="#E0E0E0"/>
<path d="M89.6538 1.80847H5.02026V141.898H89.6538V1.80847Z" fill="#EBEBEB"/>
<path d="M86.0473 4.65283H8.62122V139.059H86.0473V4.65283Z" fill="white"/>
<path d="M70.9698 22.1163H23.3621V121.595H70.9698V22.1163Z" fill="#EBEBEB"/>
<path d="M23.3622 86.3924C23.2517 77.0973 31.6079 68.0287 40.8091 66.7308C45.1943 66.1122 49.8612 66.9848 53.9592 65.3003C61.2771 62.3014 63.6078 52.5976 70.9699 49.6925L71.3068 121.596H23.3622V86.3924Z" fill="#E0E0E0"/>
<path d="M236.172 0.682007H164.396V75.5068H236.172V0.682007Z" fill="#E0E0E0"/>
<path d="M231.312 0.682007H159.536V75.5068H231.312V0.682007Z" fill="#FAFAFA"/>
<path d="M231.339 75.5233H159.541V0.659912H231.339V75.5233ZM159.541 75.4791H231.295V0.704097H159.558L159.541 75.4791Z" fill="#E0E0E0"/>
<path d="M221.663 10.7391H169.184V65.4438H221.663V10.7391Z" fill="white"/>
<path d="M169.184 65.8085C168.815 66.3605 168.381 66.8667 167.892 67.3162C167.052 68.1999 165.876 69.3929 164.578 70.6963C163.28 71.9997 162.043 73.154 161.148 73.9769C160.695 74.4579 160.185 74.8825 159.63 75.2416C160 74.6921 160.434 74.1879 160.922 73.7394C161.756 72.8557 162.938 71.6573 164.263 70.3539C165.589 69.0504 166.804 67.8851 167.699 67.0401C168.145 66.5742 168.644 66.161 169.184 65.8085Z" fill="#E0E0E0"/>
<path d="M221.669 65.6758C222.218 66.0464 222.722 66.4801 223.171 66.9681C224.055 67.8076 225.253 68.984 226.557 70.2819C227.86 71.5798 229.014 72.8169 229.837 73.7116C230.316 74.1657 230.74 74.6735 231.102 75.2249C230.548 74.8616 230.044 74.4292 229.6 73.9381C228.716 73.1041 227.517 71.9222 226.209 70.6243C224.9 69.3264 223.745 68.0838 222.922 67.1891C222.445 66.737 222.024 66.2289 221.669 65.6758Z" fill="#E0E0E0"/>
<path d="M221.525 10.8828C221.894 10.3319 222.328 9.82753 222.817 9.38052C223.657 8.49133 224.833 7.29838 226.131 5.99496C227.429 4.69155 228.666 3.53726 229.561 2.71434C230.015 2.23335 230.525 1.80871 231.08 1.44958C230.711 2.00043 230.277 2.50481 229.787 2.95182C228.948 3.83549 227.771 5.03397 226.446 6.33738C225.12 7.6408 223.905 8.80614 223.011 9.65115C222.564 10.117 222.066 10.5302 221.525 10.8828Z" fill="#E0E0E0"/>
<path d="M169.041 11.0152C168.49 10.6463 167.985 10.2124 167.538 9.72286C166.655 8.88337 165.456 7.70698 164.153 6.40909C162.849 5.1112 161.695 3.87407 160.872 2.97935C160.394 2.5253 159.969 2.0175 159.607 1.46606C160.161 1.82941 160.666 2.26185 161.11 2.75291C161.993 3.5924 163.192 4.76878 164.495 6.09429C165.799 7.41979 166.964 8.63484 167.809 9.52955C168.277 9.9743 168.69 10.473 169.041 11.0152Z" fill="#E0E0E0"/>
<path d="M221.525 65.466C221.519 65.3777 221.519 65.2891 221.525 65.2009C221.525 65.0131 221.525 64.7645 221.525 64.4387C221.525 63.7483 221.525 62.7818 221.525 61.4839C221.525 58.8937 221.497 55.1215 221.475 50.3331C221.448 40.7508 221.415 27.1036 221.37 10.7613L221.575 10.9601L169.239 10.9932L169.471 10.7613C169.471 30.8371 169.471 49.6262 169.438 65.466L169.239 65.2671L207.138 65.3665L217.781 65.4218H220.597H221.326H221.58H221.348H220.641H217.88L207.281 65.477L169.256 65.5764H169.057V65.466C169.057 49.6262 169.057 30.8371 169.024 10.7613V10.5293H169.262H221.597H221.796V10.7336C221.757 27.1312 221.718 40.8226 221.696 50.438C221.669 55.2043 221.652 58.9599 221.641 61.5391C221.641 62.8039 221.641 63.7483 221.641 64.4553C221.641 64.7701 221.641 65.0075 221.641 65.1953C221.641 65.3831 221.525 65.466 221.525 65.466Z" fill="#E0E0E0"/>
<path d="M204.183 29.335H186.67V46.8482H204.183V29.335Z" fill="#EBEBEB"/>
<path d="M252.498 243.918C252.498 243.995 195.97 244.061 126.254 244.061C56.5383 244.061 0 243.995 0 243.918C0 243.84 56.5162 243.774 126.254 243.774C195.992 243.774 252.498 243.857 252.498 243.918Z" fill="#263238"/>
<path d="M48.7399 189.616H38.9146V190.373H48.7399V189.616Z" fill="#263238"/>
<path d="M48.9608 187.727H48.066V192.289H48.9608V187.727Z" fill="#263238"/>
<path d="M40.6432 145.062C40.6432 138.115 40.8586 129.648 40.8586 129.648H30.3098C30.3098 129.648 30.5252 138.115 30.5252 145.062C30.5252 152.01 23.7928 165.575 23.8977 174.257C24.0026 182.939 31.0775 187.175 31.0775 187.175L35.297 187.655V187.727L35.5953 187.694L35.8935 187.727V187.655L40.1186 187.175C40.1186 187.175 47.1603 182.939 47.2708 174.268C47.3812 165.597 40.6432 152.01 40.6432 145.062Z" fill="white"/>
<path d="M40.6432 145.062C40.6432 145.062 40.6432 145.134 40.6432 145.278C40.6432 145.421 40.6432 145.642 40.6874 145.918C40.7056 146.267 40.7443 146.613 40.8034 146.957C40.8697 147.365 40.9139 147.84 41.0354 148.371C41.7104 151.414 42.5492 154.42 43.5483 157.373C44.1503 159.284 44.8241 161.394 45.4813 163.702C46.2212 166.18 46.775 168.709 47.1382 171.269C47.2345 171.965 47.2916 172.665 47.3094 173.367C47.3094 173.721 47.3536 174.08 47.3094 174.444L47.2431 175.549C47.1008 177.051 46.7418 178.524 46.1772 179.923C44.9172 182.922 42.8049 185.486 40.102 187.296H40.0688L35.8493 187.782L35.9708 187.644V187.871H35.8162L35.5179 187.838H35.5511L35.2528 187.871H35.0982V187.644L35.2252 187.782L31.0002 187.302H30.967C29.8836 186.579 28.8931 185.726 28.0178 184.761C27.1025 183.779 26.3139 182.686 25.6705 181.508C24.3291 179.08 23.676 176.332 23.7817 173.561C23.8749 171.446 24.1783 169.346 24.6875 167.292C25.168 165.265 25.7203 163.283 26.3112 161.344C27.4765 157.478 28.7634 153.744 29.625 150.088C30.0913 148.31 30.3398 146.481 30.365 144.643C30.343 142.842 30.3209 141.082 30.2988 139.363C30.2546 135.933 30.2104 132.691 30.1717 129.67V129.532H30.2877H40.8421H40.9359V129.626C40.8531 134.486 40.7813 138.335 40.7371 140.981C40.7371 142.29 40.6874 143.301 40.6708 143.996C40.6708 144.333 40.6708 144.587 40.6708 144.77C40.6708 144.952 40.6708 145.035 40.6708 145.035C40.6708 145.035 40.6708 144.946 40.6708 144.77V143.996C40.6708 143.301 40.6708 142.29 40.6708 140.981C40.6708 138.335 40.7426 134.486 40.7923 129.62L40.8807 129.714H30.3264L30.4368 129.598C30.481 132.619 30.5307 135.867 30.586 139.296C30.586 141.009 30.6357 142.776 30.6633 144.576C30.6452 146.44 30.3985 148.295 29.9287 150.099C29.0395 153.783 27.7637 157.5 26.615 161.377C26.0295 163.31 25.4772 165.287 25.0023 167.309C24.4844 169.355 24.1736 171.447 24.0744 173.555C23.9724 176.275 24.614 178.971 25.9301 181.354C27.1918 183.64 28.9788 185.593 31.1438 187.053H31.0885L35.3081 187.545H35.4296V187.738L35.2805 187.6L35.5732 187.567H35.6063L35.9045 187.6L35.7499 187.738V187.523H35.8714L40.0965 187.037H40.0412C42.6953 185.255 44.7735 182.739 46.0226 179.796C46.5782 178.42 46.9334 176.971 47.0775 175.494C47.0995 175.126 47.1216 174.767 47.1437 174.417C47.1437 174.058 47.1437 173.704 47.1437 173.351C47.1276 172.656 47.0723 171.963 46.978 171.274C46.6121 168.724 46.0583 166.204 45.3212 163.735C44.6695 161.427 44.0067 159.317 43.4157 157.401C42.434 154.437 41.6209 151.42 40.9801 148.365C40.8586 147.813 40.8255 147.354 40.7647 146.94C40.7088 146.595 40.6774 146.246 40.6708 145.896C40.6708 145.62 40.6708 145.41 40.6708 145.256C40.6587 145.192 40.6494 145.127 40.6432 145.062Z" fill="#263238"/>
<path d="M53.3184 241.311H18.5073C17.7966 241.311 17.2205 241.887 17.2205 242.598V242.631C17.2205 243.341 17.7966 243.917 18.5073 243.917H53.3184C54.0291 243.917 54.6052 243.341 54.6052 242.631V242.598C54.6052 241.887 54.0291 241.311 53.3184 241.311Z" fill="#455A64"/>
<path d="M20.2083 211.785C20.2083 212.006 20.7108 219.622 28.9069 223.256C29.6658 223.576 30.3745 224.004 31.0111 224.527C31.8797 225.215 32.5379 226.134 32.911 227.178H36.0591V211.404L20.2083 211.785Z" fill="#455A64"/>
<path d="M35.9929 199.48C35.9929 199.48 19.772 200.695 20.2084 212.089H36.0592L35.9929 199.48Z" fill="#455A64"/>
<path d="M51.2251 211.785C51.2251 212.006 50.717 219.722 42.3884 223.328C41.6711 223.618 41.0331 224.074 40.5272 224.659C39.9256 225.356 39.5926 226.246 39.5883 227.167H35.3909V211.404L51.2251 211.785Z" fill="#455A64"/>
<path d="M35.4571 199.48C35.4571 199.48 51.678 200.695 51.2251 212.089H35.3909L35.4571 199.48Z" fill="#455A64"/>
<path d="M52.5396 211.023H19.4462C18.9795 211.023 18.6012 211.401 18.6012 211.868V212.304C18.6012 212.771 18.9795 213.149 19.4462 213.149H52.5396C53.0063 213.149 53.3847 212.771 53.3847 212.304V211.868C53.3847 211.401 53.0063 211.023 52.5396 211.023Z" fill="#455A64"/>
<path d="M52.5397 213.149C52.6598 213.14 52.7768 213.107 52.884 213.052C52.9912 212.997 53.0863 212.921 53.1638 212.829C53.2438 212.728 53.3004 212.611 53.3295 212.486C53.3438 212.327 53.3438 212.166 53.3295 212.006C53.3541 211.816 53.3127 211.623 53.2121 211.461C53.1115 211.298 52.958 211.174 52.7772 211.111C52.5422 211.085 52.3052 211.085 52.0702 211.111H51.2749H49.4579H45.0395L19.4573 211.15C19.327 211.151 19.1995 211.187 19.0885 211.255C18.9775 211.323 18.8873 211.421 18.8277 211.536C18.7691 211.656 18.7442 211.79 18.7559 211.923C18.7559 212.072 18.7559 212.249 18.7559 212.37C18.7756 212.494 18.8273 212.609 18.9058 212.706C18.9843 212.803 19.0869 212.878 19.2032 212.923C19.3327 212.967 19.4704 212.982 19.6064 212.967H30.4369L41.9412 213L49.6733 213.044L51.783 213.072H52.3353H52.5231C52.4607 213.079 52.3977 213.079 52.3353 213.072H51.783H49.6733L41.9412 213.122L30.4369 213.149H23.6437H19.5954C19.425 213.164 19.2535 213.141 19.0928 213.083C18.9243 213.019 18.7765 212.91 18.6656 212.767C18.5546 212.625 18.4846 212.456 18.4632 212.277C18.4632 212.089 18.4632 211.956 18.4632 211.796C18.4543 211.618 18.4924 211.441 18.5736 211.282C18.6549 211.117 18.7807 210.978 18.9368 210.88C19.0929 210.783 19.2732 210.731 19.4573 210.73L45.0395 210.774H49.4579H51.2749H52.0702C52.3178 210.758 52.5664 210.773 52.8103 210.818C53.0145 210.887 53.1887 211.024 53.3034 211.206C53.4182 211.388 53.4664 211.604 53.4399 211.818C53.4436 211.983 53.4325 212.147 53.4068 212.31C53.3773 212.447 53.3126 212.575 53.219 212.68C53.0944 212.823 52.9252 212.92 52.7385 212.956C52.6927 213.038 52.6235 213.106 52.5397 213.149Z" fill="#263238"/>
<path d="M49.7283 204.34H22.55C22.2327 204.34 21.9756 204.597 21.9756 204.914V205.207C21.9756 205.524 22.2327 205.782 22.55 205.782H49.7283C50.0456 205.782 50.3027 205.524 50.3027 205.207V204.914C50.3027 204.597 50.0456 204.34 49.7283 204.34Z" fill="#455A64"/>
<path d="M49.7285 205.782C49.7285 205.782 49.7837 205.782 49.8776 205.749C50.0139 205.707 50.1286 205.614 50.1979 205.489C50.2791 205.27 50.2963 205.032 50.2476 204.804C50.2321 204.735 50.2025 204.67 50.1607 204.613C50.1189 204.556 50.0657 204.508 50.0046 204.473C49.8568 204.396 49.6884 204.369 49.5241 204.395L43.25 204.445L22.5501 204.484C22.4547 204.484 22.3621 204.515 22.2863 204.573C22.2104 204.631 22.1557 204.712 22.1303 204.804C22.1185 204.918 22.1185 205.033 22.1303 205.147C22.119 205.245 22.1403 205.344 22.1911 205.428C22.2387 205.511 22.3126 205.575 22.401 205.61C22.501 205.641 22.6064 205.651 22.7102 205.638H31.8452L41.1569 205.671L47.4309 205.715L49.1375 205.743L47.4309 205.771L41.1569 205.815L31.8452 205.842H26.3499H22.6992C22.5573 205.857 22.4141 205.84 22.2795 205.793C22.1324 205.737 22.0094 205.631 21.9315 205.494C21.8553 205.364 21.8206 205.214 21.8321 205.064C21.8165 204.926 21.8165 204.787 21.8321 204.649C21.8693 204.493 21.9581 204.353 22.0844 204.253C22.2106 204.153 22.3668 204.098 22.528 204.097L43.228 204.141L49.502 204.186C49.692 204.161 49.8848 204.196 50.0543 204.285C50.1944 204.378 50.2917 204.523 50.3249 204.688C50.3358 204.822 50.3358 204.957 50.3249 205.091C50.3302 205.206 50.2993 205.32 50.2366 205.417C50.1973 205.483 50.1446 205.541 50.0818 205.586C50.019 205.63 49.9476 205.661 49.8721 205.677C49.8344 205.724 49.7849 205.76 49.7285 205.782Z" fill="#263238"/>
<path d="M29.6581 192.018C29.7084 192.345 29.7306 192.676 29.7244 193.007C29.8226 194.674 30.4581 196.265 31.5359 197.541C31.8554 197.924 32.0483 198.397 32.0882 198.894H35.772V192.018H29.6581Z" fill="#455A64"/>
<path d="M41.6262 192.018C41.5728 192.345 41.5506 192.676 41.5599 193.007C41.4617 194.674 40.8262 196.265 39.7484 197.541C39.4292 197.925 39.2363 198.397 39.1961 198.894H35.5123V192.018H41.6262Z" fill="#455A64"/>
<path d="M41.6263 186.495H29.6581V192.753H41.6263V186.495Z" fill="#455A64"/>
<path d="M38.8537 182.188H32.6515V186.799H38.8537V182.188Z" fill="#455A64"/>
<path d="M42.9959 191.836H28.5148C28.3135 191.836 28.1503 191.999 28.1503 192.201V192.388C28.1503 192.59 28.3135 192.753 28.5148 192.753H42.9959C43.1972 192.753 43.3604 192.59 43.3604 192.388V192.201C43.3604 191.999 43.1972 191.836 42.9959 191.836Z" fill="#455A64"/>
<path d="M42.9959 192.759C43.0968 192.736 43.1879 192.682 43.2555 192.604C43.3203 192.5 43.3421 192.375 43.3163 192.256C43.3242 192.178 43.3042 192.099 43.2597 192.035C43.2152 191.97 43.1491 191.923 43.0733 191.902L39.6987 191.941L28.4927 191.98C28.4511 191.981 28.4105 191.993 28.3754 192.015C28.3404 192.038 28.3121 192.069 28.2939 192.107C28.2841 192.15 28.2841 192.196 28.2939 192.239V192.422C28.3002 192.463 28.3174 192.501 28.3436 192.533C28.3698 192.565 28.4041 192.59 28.443 192.604C28.5606 192.613 28.6788 192.613 28.7965 192.604H30.365H33.3363L38.3622 192.631L41.7533 192.681L42.6756 192.709C42.7832 192.702 42.8911 192.712 42.9959 192.736C42.8895 192.748 42.7821 192.748 42.6756 192.736L41.7533 192.764L38.3622 192.808L33.3363 192.841H28.7965C28.6486 192.85 28.5003 192.84 28.3546 192.814C28.2642 192.784 28.184 192.73 28.1234 192.656C28.0628 192.583 28.0242 192.494 28.0122 192.4C28.007 192.326 28.007 192.252 28.0122 192.179C28.0059 192.089 28.023 192 28.0619 191.919C28.1073 191.836 28.1733 191.766 28.2536 191.715C28.3338 191.665 28.4257 191.636 28.5203 191.632L39.7043 191.676C41.1402 191.676 42.278 191.676 43.1064 191.737C43.2025 191.766 43.2855 191.828 43.3409 191.911C43.3964 191.995 43.4209 192.095 43.4102 192.195C43.4248 192.333 43.3874 192.471 43.3052 192.582C43.1285 192.808 42.9849 192.759 42.9959 192.759Z" fill="#263238"/>
<path d="M41.8749 198.038H29.6471V200.927H41.8749V198.038Z" fill="#455A64"/>
<path d="M21.8653 241.311C21.8653 241.311 21.2798 239.654 24.936 237.958C24.936 237.958 32.5466 234.147 32.8946 230.845L36.5563 230.701V242.614L21.8653 241.311Z" fill="#455A64"/>
<path d="M50.3911 241.311C50.3911 241.311 50.9434 239.654 47.3148 237.958C47.3148 237.958 39.7098 234.147 39.3618 230.845L35.6725 230.701V242.614L50.3911 241.311Z" fill="#455A64"/>
<path d="M39.5606 224.521H32.552V229.823H39.5606V224.521Z" fill="#455A64"/>
<path d="M40.1185 229.298H32.2649C31.6488 229.298 31.1493 229.798 31.1493 230.414V230.983C31.1493 231.599 31.6488 232.098 32.2649 232.098H40.1185C40.7347 232.098 41.2342 231.599 41.2342 230.983V230.414C41.2342 229.798 40.7347 229.298 40.1185 229.298Z" fill="#455A64"/>
<path d="M40.1186 232.104C40.1186 232.104 40.2015 232.104 40.3506 232.049C40.5669 231.988 40.7596 231.863 40.9029 231.69C41.0034 231.569 41.0768 231.427 41.1183 231.276C41.1398 231.092 41.1398 230.907 41.1183 230.723C41.1318 230.505 41.1056 230.286 41.0409 230.077C40.9554 229.856 40.7952 229.673 40.5881 229.558C40.3488 229.439 40.0795 229.395 39.8149 229.431H38.898H36.8711H32.2263C32.0934 229.431 31.9619 229.459 31.8401 229.512C31.7183 229.566 31.6087 229.643 31.5181 229.741C31.4275 229.838 31.3579 229.953 31.3134 230.078C31.269 230.203 31.2508 230.337 31.2598 230.469C31.2598 230.662 31.2598 230.872 31.2598 231.049C31.2733 231.219 31.3315 231.382 31.4285 231.521C31.5255 231.661 31.6579 231.773 31.8121 231.844C31.9579 231.922 32.1218 231.96 32.2871 231.955H32.8394H36.6281L39.1852 232.005C39.4992 231.996 39.8133 232.015 40.1241 232.06C39.8129 232.101 39.4991 232.12 39.1852 232.115L36.6281 232.159L32.8394 232.192H32.2871C32.0787 232.197 31.8721 232.152 31.6851 232.06C31.493 231.961 31.3296 231.815 31.2106 231.635C31.0916 231.455 31.021 231.248 31.0058 231.032C31.0058 230.823 31.0058 230.64 31.0058 230.436C30.9977 230.214 31.0451 229.994 31.1438 229.795C31.2492 229.592 31.4075 229.422 31.6019 229.301C31.7963 229.18 32.0197 229.115 32.2484 229.111H36.8932H38.9201H39.8369C40.1382 229.083 40.4409 229.143 40.7096 229.282C40.9628 229.419 41.1586 229.642 41.2619 229.911C41.331 230.142 41.3535 230.384 41.3281 230.624C41.3379 230.83 41.3193 231.036 41.2729 231.237C41.2199 231.406 41.1293 231.561 41.0078 231.69C40.8425 231.868 40.6231 231.986 40.3837 232.027C40.3033 232.074 40.2121 232.101 40.1186 232.104Z" fill="#263238"/>
<path d="M41.8748 200.855C41.8748 200.938 39.1134 200.999 35.7996 200.999C32.4858 200.999 29.7244 200.938 29.7244 200.855C29.7244 200.772 32.4527 200.711 35.7996 200.711C39.1465 200.711 41.8748 200.778 41.8748 200.855Z" fill="#263238"/>
<path d="M41.3004 197.983C39.3544 198.129 37.4024 198.177 35.4516 198.127C33.499 198.177 31.5451 198.129 29.5973 197.983C29.5973 197.906 32.2152 197.84 35.4516 197.84C38.688 197.84 41.3004 197.906 41.3004 197.983Z" fill="#263238"/>
<path d="M40.969 186.595C39.0948 186.737 37.2146 186.785 35.3356 186.739C33.4547 186.785 31.5727 186.737 29.6967 186.595C31.5725 186.449 33.4547 186.401 35.3356 186.451C37.2146 186.401 39.0949 186.449 40.969 186.595Z" fill="#263238"/>
<path d="M40.4996 176.963C41.9171 174.821 42.631 172.29 42.5419 169.723C42.4528 167.156 41.5651 164.681 40.0025 162.642C38.9587 161.327 37.5062 160.19 35.8327 160.107C33.5904 159.991 31.6739 161.764 30.5473 163.713C29.1792 165.967 28.5502 168.593 28.7483 171.222C28.9463 173.851 29.9615 176.353 31.6519 178.377C31.6519 178.377 31.8231 174.875 35.3025 174.875C36.2657 174.848 37.2242 175.019 38.1183 175.378C39.0124 175.737 39.823 176.277 40.4996 176.963Z" fill="#FF725E"/>
<g opacity="0.8">
<path d="M40.4996 176.963C41.9171 174.821 42.631 172.29 42.5419 169.723C42.4528 167.156 41.5651 164.681 40.0025 162.642C38.9587 161.327 37.5062 160.19 35.8327 160.107C33.5904 159.991 31.6739 161.764 30.5473 163.713C29.1792 165.967 28.5502 168.593 28.7483 171.222C28.9463 173.851 29.9615 176.353 31.6519 178.377C31.6519 178.377 31.8231 174.875 35.3025 174.875C36.2657 174.848 37.2242 175.019 38.1183 175.378C39.0124 175.737 39.823 176.277 40.4996 176.963Z" fill="white"/>
</g>
<path d="M38.5224 179.907C39.7595 178.802 41.0684 176.963 40.8641 175.306C40.5649 173.66 40.0056 172.071 39.2072 170.6C39.0029 170.164 38.7322 169.678 38.2573 169.601C37.7823 169.523 37.3018 169.971 36.9704 170.38C36.4181 169.192 35.8327 168.027 35.1865 166.895C34.9601 166.486 34.5956 166.027 34.1427 166.138C33.9163 166.208 33.7212 166.354 33.5904 166.552C31.9792 168.385 30.8985 170.623 30.4644 173.025C30.122 175.427 30.7903 178.056 32.5797 179.697C32.5797 179.697 32.7785 176.239 35.7112 176.239C38.6439 176.239 38.5224 179.907 38.5224 179.907Z" fill="#FF725E"/>
<path d="M39.036 187.882C37.7729 188.024 36.501 188.072 35.2307 188.025C33.9587 188.072 32.6849 188.024 31.4199 187.882C32.6846 187.736 33.9587 187.688 35.2307 187.738C36.501 187.688 37.7732 187.736 39.036 187.882Z" fill="white"/>
<path d="M35.2472 193.565C34.6724 193.733 34.0708 193.792 33.4744 193.736C32.8768 193.782 32.2761 193.709 31.707 193.521C32.2909 193.424 32.8845 193.4 33.4744 193.449C34.0679 193.41 34.6638 193.449 35.2472 193.565Z" fill="white"/>
<path d="M37.6056 198.662C36.9436 198.804 36.2651 198.852 35.5897 198.806C34.9162 198.852 34.2395 198.804 33.5793 198.662C34.2395 198.521 34.9162 198.473 35.5897 198.519C36.2651 198.473 36.9436 198.521 37.6056 198.662Z" fill="white"/>
<path d="M36.2248 202.131C35.8481 202.273 35.4427 202.322 35.0429 202.275C34.6431 202.322 34.2377 202.273 33.861 202.131C34.2384 201.992 34.6431 201.943 35.0429 201.987C35.4426 201.943 35.8473 201.992 36.2248 202.131Z" fill="white"/>
<path d="M53.0146 241.311C53.0146 241.388 45.2548 241.454 35.6891 241.454C26.1234 241.454 18.3636 241.388 18.3636 241.311C18.3636 241.233 26.0958 241.162 35.6891 241.162C45.2824 241.162 53.0146 241.228 53.0146 241.311Z" fill="#263238"/>
<path d="M23.522 129.946C21.9884 129.809 20.4648 129.577 18.9601 129.25C17.4389 129.017 15.9337 128.688 14.4534 128.267C15.9871 128.412 17.5106 128.649 19.0153 128.98C20.5359 129.209 22.0409 129.532 23.522 129.946Z" fill="#263238"/>
<path d="M26.6427 125.268C26.5764 125.318 24.7041 122.971 22.4508 120.027C20.1974 117.083 18.4245 114.659 18.4908 114.609C18.5571 114.559 20.4294 116.906 22.6827 119.85C24.9361 122.794 26.7034 125.218 26.6427 125.268Z" fill="#263238"/>
<path d="M33.3531 114.725C33.2323 116.099 33.0164 117.463 32.7069 118.806C32.5059 120.169 32.205 121.514 31.8066 122.833C31.9306 121.459 32.1465 120.096 32.4528 118.751C32.6609 117.39 32.9617 116.045 33.3531 114.725Z" fill="#263238"/>
<path d="M143.591 111.583L144.353 48.6983C145.054 33.0629 136.538 19.6256 120.891 19.355L119.439 19.4157C112.414 19.7058 105.756 22.6293 100.789 27.6047C95.8215 32.5802 92.9089 39.2431 92.6305 46.2683C92.0782 59.8271 91.6861 74.8108 92.0782 82.0569C92.879 97.0572 107.984 98.7693 107.984 98.7693C107.984 98.7693 108.078 107.899 108.073 112.306L115.125 123.904L132.368 129.659L143.591 111.583Z" fill="#FFBF9D"/>
<path d="M107.984 98.7694C107.984 98.7694 117.467 98.9351 127.287 92.186C127.287 92.186 123.051 103.663 108.023 102.928L107.984 98.7694Z" fill="#FF9A6C"/>
<path d="M99.5508 58.7997C99.5681 59.3594 99.8037 59.89 100.207 60.2781C100.611 60.6662 101.15 60.8809 101.71 60.8763C101.983 60.8867 102.256 60.8422 102.512 60.7456C102.767 60.649 103.001 60.5022 103.199 60.3138C103.398 60.1255 103.556 59.8994 103.666 59.6488C103.775 59.3982 103.833 59.1283 103.837 58.8549C103.819 58.2963 103.584 57.7664 103.182 57.3785C102.78 56.9905 102.242 56.7752 101.683 56.7783C101.409 56.768 101.136 56.8124 100.88 56.9089C100.624 57.0055 100.39 57.1522 100.191 57.3405C99.9928 57.5288 99.8339 57.7549 99.7239 58.0055C99.6138 58.256 99.555 58.5261 99.5508 58.7997Z" fill="#263238"/>
<path d="M96.0991 52.7631C96.3752 53.0282 97.9493 51.758 100.252 51.6585C102.555 51.5591 104.295 52.6527 104.538 52.36C104.654 52.2329 104.361 51.7359 103.605 51.2554C102.577 50.6054 101.373 50.289 100.158 50.3496C98.9519 50.3876 97.7898 50.8138 96.8447 51.5647C96.1819 52.1335 95.961 52.6472 96.0991 52.7631Z" fill="#263238"/>
<path d="M120.251 58.7998C120.268 59.3594 120.504 59.8901 120.907 60.2782C121.311 60.6663 121.85 60.881 122.41 60.8764C122.685 60.8868 122.959 60.8418 123.216 60.7442C123.472 60.6466 123.707 60.4983 123.905 60.3081C124.104 60.118 124.262 59.8899 124.37 59.6374C124.479 59.3849 124.535 59.1132 124.537 58.8385C124.519 58.2798 124.284 57.75 123.882 57.362C123.48 56.9741 122.942 56.7587 122.383 56.7618C122.108 56.7515 121.834 56.7964 121.577 56.894C121.319 56.9915 121.084 57.1397 120.886 57.3298C120.687 57.5199 120.528 57.7479 120.419 58.0004C120.31 58.2529 120.253 58.5248 120.251 58.7998Z" fill="#263238"/>
<path d="M118.721 52.3655C119.003 52.6361 120.577 51.3658 122.88 51.2609C125.183 51.1559 126.922 52.255 127.165 51.9623C127.281 51.8297 126.994 51.3382 126.232 50.8577C125.206 50.2041 124.001 49.8856 122.786 49.9464C121.58 49.9868 120.418 50.4126 119.472 51.1615C118.809 51.7303 118.588 52.2495 118.721 52.3655Z" fill="#263238"/>
<path d="M111.182 70.4365C111.182 70.3095 109.746 70.1162 107.41 69.9174C106.819 69.8787 106.256 69.7848 106.14 69.3651C106.024 68.9454 106.206 68.3047 106.46 67.6033L108.018 63.0524C110.171 56.5685 111.707 51.2443 111.442 51.1615C111.177 51.0787 109.233 56.2647 107.068 62.7597C106.554 64.3558 106.057 65.8801 105.587 67.3382C105.394 68.0175 105.035 68.7907 105.378 69.6578C105.471 69.8629 105.61 70.0437 105.784 70.1864C105.959 70.3291 106.163 70.4298 106.383 70.4807C106.712 70.5561 107.05 70.5895 107.388 70.5801C109.73 70.6078 111.177 70.5581 111.182 70.4365Z" fill="#263238"/>
<path d="M117.677 45.1858C118.014 45.7381 120.229 45.0477 122.951 44.8765C125.674 44.7053 127.961 45.0367 128.209 44.4181C128.32 44.1199 127.839 43.6118 126.862 43.1754C125.568 42.656 124.172 42.4387 122.782 42.5402C121.391 42.6416 120.042 43.0591 118.837 43.7609C117.931 44.3353 117.528 44.9096 117.677 45.1858Z" fill="#263238"/>
<path d="M95.7124 45.9921C96.2039 46.5002 98.0707 45.9092 100.324 45.8208C102.577 45.7325 104.505 46.0639 104.936 45.506C105.118 45.2354 104.803 44.7163 103.953 44.2413C102.786 43.6546 101.483 43.3932 100.18 43.4846C98.8801 43.5292 97.6164 43.9263 96.5242 44.6334C95.74 45.1912 95.4915 45.738 95.7124 45.9921Z" fill="#263238"/>
<path d="M143.591 59.8602C143.839 59.7387 153.775 56.3863 153.869 66.6589C153.963 76.9316 143.635 74.9102 143.613 74.612C143.591 74.3137 143.591 59.8602 143.591 59.8602Z" fill="#FFBF9D"/>
<path d="M146.711 70.6907C146.755 70.6576 146.893 70.8177 147.197 70.9503C147.626 71.1229 148.105 71.1229 148.534 70.9503C149.638 70.5416 150.517 68.8074 150.544 66.9572C150.566 66.076 150.387 65.2014 150.019 64.4001C149.92 64.0803 149.745 63.7894 149.508 63.5527C149.271 63.3159 148.981 63.1405 148.661 63.0414C148.455 62.9894 148.238 63.0105 148.047 63.1012C147.855 63.1919 147.701 63.3466 147.611 63.5385C147.479 63.8312 147.545 64.0356 147.49 64.0521C147.435 64.0687 147.269 63.8809 147.346 63.4557C147.401 63.2011 147.541 62.973 147.744 62.8095C148.025 62.592 148.38 62.4947 148.733 62.5389C149.522 62.583 150.246 63.3065 150.616 64.1129C151.062 64.9973 151.284 65.9779 151.262 66.9683C151.218 69.0394 150.158 70.989 148.694 71.4308C148.416 71.5155 148.123 71.5367 147.837 71.4927C147.55 71.4487 147.276 71.3407 147.037 71.1767C146.733 70.9392 146.684 70.7128 146.711 70.6907Z" fill="#FF9A6C"/>
<path d="M118.428 71.8561C118.075 71.8561 118.058 74.1923 116.031 75.8602C114.004 77.5282 111.497 77.252 111.475 77.5834C111.442 77.727 112.027 78.0418 113.093 78.0749C114.475 78.1026 115.823 77.6409 116.898 76.7715C117.928 75.9343 118.593 74.7307 118.754 73.4136C118.848 72.4305 118.588 71.8451 118.428 71.8561Z" fill="#263238"/>
<path d="M71.8976 32.7537C72.0707 32.1539 72.4656 31.6424 73.0021 31.3232C74.173 30.6108 75.5316 30.6881 76.8682 30.6549C80.1444 30.5536 83.3548 29.7094 86.2572 28.1862C85.233 27.7018 84.2917 27.0587 83.4681 26.2808C81.8112 24.6239 80.8061 22.1165 81.5406 19.8907C81.587 19.6747 81.683 19.4724 81.8211 19.2999C81.9591 19.1274 82.1353 18.9893 82.3359 18.8966C83.0042 18.6867 83.5951 19.3329 84.0646 19.8466C85.611 21.5421 87.0359 22.2601 89.3169 22.0005C90.6792 21.8962 92.0006 21.4866 93.183 20.802C93.2271 20.7523 93.2658 20.7026 93.31 20.6584C93.8623 20.1061 94.3538 19.5538 94.8619 19.0512C98.6838 15.1852 101.981 12.479 105.383 11.0651C110.354 8.98846 118.754 8.07165 124.001 9.4082C129.248 10.7448 133.986 14.9311 134.776 20.2608C137.681 17.7478 142.083 17.7147 145.673 19.112L145.761 19.0733C149.754 20.4209 152.063 24.5963 153.311 28.6446C153.377 28.8655 153.433 29.0864 153.499 29.3073C154.861 31.4406 156.718 33.2139 158.911 34.4768C159.298 34.6977 159.74 34.9684 159.795 35.4102C159.85 35.852 159.48 36.211 159.121 36.4761C158.169 37.1658 157.075 37.6337 155.918 37.8458C156.288 38.8037 156.741 39.7277 157.271 40.6073C157.73 41.3639 158.271 42.2642 157.89 43.0595C157.713 43.3538 157.451 43.5872 157.138 43.7283C156.825 43.8695 156.476 43.9117 156.139 43.8492C155.469 43.7079 154.835 43.4296 154.278 43.0318C154.736 44.0867 155.189 45.1416 155.647 46.202C154.205 46.458 152.723 46.3767 151.317 45.9645C150.517 49.7643 149.959 56.795 149.009 59.3797C146.286 59.4571 145.618 59.1699 144.248 59.6393C142.475 60.2524 143.193 63.3949 140.868 62.5223C139.681 62.0805 137.825 57.6345 137.416 56.4471C134.708 48.4791 133.745 40.0218 134.594 31.6491C132.921 29.9053 130.928 28.5007 128.723 27.5124L128.905 27.6726C124.686 26.2587 119.919 24.878 115.954 26.8938C112.883 28.4623 111.099 31.6877 108.818 34.2725C104.494 39.1768 99.5675 41.8223 93.0394 42.1758C92.4871 46.7156 92.4097 54.1329 92.2385 58.369L88.5271 49.941V50.0018C88.2398 49.5188 87.978 49.021 87.7429 48.5106L87.66 48.3615C87.2971 47.5419 86.8915 46.7418 86.445 45.9645C86.4307 45.976 86.4178 45.9889 86.4063 46.0032C84.1364 48.0522 80.7177 44.998 82.5016 42.5127C82.8364 42.0031 83.2481 41.5485 83.7222 41.1651C83.2109 41.6766 82.5761 42.0471 81.8793 42.2407C81.1825 42.4342 80.4475 42.4442 79.7457 42.2697C79.0561 42.0621 78.4529 41.6356 78.0274 41.0546C77.6019 40.4736 77.3772 39.7699 77.3874 39.0498C77.4408 38.5609 77.6222 38.0948 77.913 37.6983C78.2039 37.3017 78.594 36.9888 79.0442 36.7909C77.1829 36.9659 75.3118 36.5813 73.6704 35.6863C72.6045 35.0899 71.5717 34.0902 71.8976 32.7537Z" fill="#263238"/>
<path d="M130.065 22.017C130.608 22.4292 131.118 22.8834 131.589 23.3756C132.793 24.8009 133.607 26.5132 133.953 28.3463C134.225 29.6004 134.368 30.8793 134.378 32.1626C134.378 33.5433 134.307 35.029 134.218 36.581C134.097 38.2222 134.078 39.8694 134.163 41.5129C134.219 42.3864 134.343 43.2543 134.533 44.1087C134.678 45.0276 135.059 45.8934 135.638 46.6217C135.903 46.9104 136.24 47.1252 136.613 47.2452C136.987 47.3653 137.385 47.3864 137.769 47.3065C138.507 47.1615 139.174 46.7724 139.664 46.2019C140.619 45.0642 140.846 43.6282 141.072 42.3359L140.757 42.38C141.221 43.5077 141.848 44.561 142.619 45.506C143.363 46.3854 144.417 46.945 145.562 47.069C146.095 47.1142 146.63 47.0129 147.109 46.7763C147.554 46.5392 147.918 46.1736 148.153 45.7269C148.373 45.317 148.477 44.8551 148.456 44.3904C148.43 43.9562 148.255 43.5444 147.959 43.225L147.799 43.3742C148.708 44.3867 149.818 45.1991 151.058 45.7601C151.385 45.9039 151.721 46.0293 152.063 46.1356C152.179 46.1781 152.299 46.2059 152.422 46.2185C152.315 46.1608 152.202 46.1145 152.085 46.0804C151.858 45.992 151.533 45.8595 151.107 45.6551C149.907 45.0647 148.837 44.2404 147.959 43.2306L147.805 43.3742C148.051 43.6844 148.195 44.0632 148.218 44.4586C148.241 44.8541 148.141 45.2469 147.932 45.5833C147.716 45.9806 147.387 46.3053 146.987 46.5167C146.55 46.7238 146.065 46.8079 145.584 46.7597C144.508 46.6396 143.519 46.1095 142.823 45.2796C142.084 44.3469 141.48 43.3151 141.028 42.2143L140.807 41.7339L140.713 42.2585C140.487 43.5178 140.249 44.8985 139.377 45.9258C138.935 46.4308 138.339 46.7763 137.681 46.9088C137.354 46.9781 137.015 46.9605 136.697 46.8578C136.379 46.7551 136.094 46.5708 135.87 46.3234C135.341 45.638 134.994 44.8309 134.859 43.9762C134.676 43.1375 134.554 42.2865 134.494 41.4301C134.407 39.8016 134.42 38.1692 134.533 36.5423C134.61 34.9793 134.699 33.4881 134.66 32.0853C134.636 30.7836 134.477 29.488 134.185 28.2192C133.812 26.3586 132.946 24.6324 131.678 23.221C131.211 22.7321 130.666 22.3251 130.065 22.017Z" fill="#455A64"/>
<path d="M83.722 37.172C83.759 37.2109 83.7997 37.246 83.8436 37.2769L84.2246 37.542C84.4274 37.6928 84.6416 37.8276 84.8653 37.9452C85.1615 38.1228 85.4697 38.2797 85.7876 38.4146C87.8108 39.3128 90.0261 39.6925 92.2329 39.5192C95.5157 39.2649 98.6544 38.064 101.268 36.0619C104.245 33.8527 106.847 30.6604 108.962 26.9932C110.033 25.1596 110.906 23.2818 111.867 21.5476C112.746 19.8585 113.862 18.3037 115.181 16.9304C116.369 15.6931 117.848 14.7724 119.483 14.2518C120.223 14.036 120.993 13.9391 121.764 13.9646C122.475 13.9954 123.179 14.1217 123.857 14.3402C125.933 15.0272 127.675 16.4679 128.74 18.3774C129.096 19.0864 129.372 19.8329 129.562 20.6032C129.57 20.5519 129.57 20.4998 129.562 20.4485C129.562 20.3215 129.518 20.1724 129.485 19.9846C129.358 19.4 129.161 18.8326 128.9 18.2946C128.458 17.4507 127.879 16.6856 127.188 16.0302C126.255 15.1605 125.145 14.5029 123.935 14.1027C123.235 13.8681 122.507 13.7287 121.77 13.6884C120.968 13.6553 120.166 13.7504 119.395 13.9701C117.707 14.4908 116.177 15.4293 114.949 16.6984C113.599 18.0841 112.461 19.6602 111.569 21.3764C110.591 23.1216 109.719 24.9939 108.658 26.8109C106.559 30.4506 103.997 33.6262 101.075 35.7968C98.5197 37.7704 95.4541 38.9737 92.2384 39.2652C90.0675 39.464 87.8807 39.1343 85.8649 38.3042C85.1297 37.9678 84.4142 37.5898 83.722 37.172Z" fill="#455A64"/>
<path d="M82.2806 30.583C82.4473 30.7305 82.6331 30.855 82.8329 30.9531C83.3478 31.2567 83.8851 31.5207 84.4401 31.7428C85.2619 32.0835 86.112 32.3514 86.9807 32.5437C89.1113 33.02 91.3156 33.067 93.4646 32.6817C94.3386 32.5221 95.1977 32.2893 96.0328 31.9858C96.6027 31.7853 97.1566 31.5415 97.6896 31.2568C97.8864 31.1646 98.0718 31.0497 98.2419 30.9144C98.2088 30.8536 97.3859 31.29 95.9665 31.7484C95.1345 32.0168 94.2834 32.2218 93.4204 32.3614C92.3663 32.5252 91.3004 32.6009 90.2337 32.5878C89.1671 32.5544 88.1051 32.4343 87.058 32.2289C86.2018 32.0525 85.36 31.8125 84.5395 31.5109C83.1201 30.9972 82.3138 30.5223 82.2806 30.583Z" fill="#455A64"/>
<path d="M142.459 101.917C142.381 101.917 142.315 96.3557 142.315 89.5017C142.315 82.6478 142.381 77.0917 142.459 77.0917C142.536 77.0917 142.602 82.6478 142.602 89.5017C142.602 96.3557 142.536 101.917 142.459 101.917Z" fill="white"/>
<path d="M149.318 47.3231C149.372 47.7596 149.372 48.2011 149.318 48.6376C149.268 49.4494 149.158 50.5651 148.97 51.7856C148.782 53.0062 148.545 54.1053 148.346 54.8951C148.264 55.3266 148.132 55.7473 147.954 56.1488C147.971 55.7104 148.035 55.2751 148.147 54.8509C148.296 54.0556 148.495 52.962 148.699 51.7415C148.904 50.5209 149.031 49.4218 149.13 48.621C149.154 48.1836 149.217 47.7493 149.318 47.3231Z" fill="white"/>
<path d="M155.857 33.2286C155.705 33.2096 155.558 33.1648 155.421 33.0961C155.039 32.942 154.669 32.7573 154.316 32.5438C151.904 31.1662 150.103 28.9267 149.274 26.2752C149.151 25.8794 149.057 25.4751 148.992 25.0657C148.959 24.9153 148.948 24.7609 148.959 24.6073C149.009 24.6073 149.119 25.2369 149.467 26.209C150.389 28.7609 152.139 30.9307 154.438 32.3726C155.277 32.9359 155.874 33.1789 155.857 33.2286Z" fill="white"/>
<path d="M156.741 41.2534C156.663 41.2534 156.382 40.5133 155.802 39.7125C155.222 38.9117 154.592 38.3981 154.642 38.3318C155.193 38.6241 155.67 39.0399 156.034 39.5467C156.398 40.0535 156.64 40.6376 156.741 41.2534Z" fill="white"/>
<path d="M121.223 20.6971C121.223 20.7357 120.67 20.6971 119.759 20.929C118.449 21.2453 117.216 21.8198 116.131 22.6191C114.522 23.8063 113.121 25.2506 111.983 26.8938C110.646 28.7109 109.382 30.8703 107.752 32.9359C106.956 33.9385 106.067 34.8632 105.096 35.6974C102.623 37.7744 99.6712 39.2019 96.5076 39.8506C95.1758 40.1341 93.8148 40.2565 92.4538 40.2151C91.9733 40.2151 91.6033 40.1654 91.3492 40.1489C91.2207 40.1429 91.0931 40.1244 90.9681 40.0936C90.9681 40.0936 91.5204 40.0936 92.4538 40.0936C93.8029 40.0892 95.1474 39.9373 96.4635 39.6407C99.5787 38.9626 102.48 37.5309 104.914 35.4709C105.871 34.636 106.745 33.7113 107.526 32.7095C109.139 30.666 110.409 28.512 111.768 26.6895C112.93 25.0304 114.366 23.5811 116.015 22.4037C117.126 21.5966 118.394 21.0321 119.737 20.7468C120.101 20.6752 120.471 20.6328 120.842 20.6198C120.971 20.6359 121.098 20.6617 121.223 20.6971Z" fill="white"/>
<path d="M173.923 101.719L222.348 89.0821L203.404 34.2338L217.929 29.5338C217.929 29.5338 252.63 81.2009 252.105 91.9982C251.581 102.796 234.554 115.609 218.968 121.43C206.453 126.102 180.003 134.392 180.003 134.392L173.923 101.719Z" fill="#FFBF9D"/>
<path d="M234.946 99.9457C234.709 99.9551 234.472 99.9385 234.239 99.896C233.964 99.8692 233.691 99.825 233.421 99.7635C233.061 99.6934 232.705 99.603 232.355 99.4928L231.742 99.3051L231.096 99.051C230.621 98.8581 230.157 98.6405 229.704 98.3993C228.678 97.8276 227.717 97.1461 226.838 96.3669C225.969 95.5766 225.189 94.6932 224.513 93.7324C224.221 93.3119 223.953 92.8749 223.712 92.4235C223.49 92.0371 223.292 91.6367 223.121 91.225C222.972 90.89 222.841 90.5471 222.729 90.1977C222.633 89.9379 222.554 89.6722 222.491 89.4024C222.424 89.1753 222.378 88.9423 222.353 88.7065C222.414 88.7065 222.63 89.6786 223.309 91.1422C223.489 91.542 223.692 91.9311 223.916 92.3075C224.165 92.7445 224.436 93.1685 224.728 93.5778C225.403 94.5145 226.175 95.3772 227.031 96.1515C227.893 96.9176 228.831 97.5932 229.831 98.1673C230.306 98.4048 230.743 98.6589 231.185 98.8301C231.405 98.9185 231.61 99.0179 231.814 99.0952L232.416 99.2995C233.946 99.8021 234.957 99.885 234.946 99.9457Z" fill="#FF9A6C"/>
<path d="M62.0059 161.283C62.0059 161.283 60.1613 206.572 60.1889 214.039C60.1889 219.561 66.115 243.713 66.115 243.713H89.9686L84.4125 208.764L87.8312 170.104L62.0059 161.283Z" fill="#FFBF9D"/>
<path d="M170.139 101.801L143.696 102.961C143.696 102.961 142.459 114.421 128.706 116.067C116.23 117.553 108.354 106.032 108.354 106.032C108.354 106.032 79.6351 114.421 74.1122 118.464L84.9316 200.314L90.1232 231.397C90.1232 231.397 87.4335 235.467 87.4335 239.836C87.4335 244.205 86.594 243.702 86.594 243.702H183.19C183.19 243.702 183.792 240.554 182.025 236.522C180.257 232.491 180.583 232.104 180.583 232.104L177.673 185.667L177.12 150.74L170.139 101.801Z" fill="#E0E0E0"/>
<path d="M74.1231 118.486C68.4879 122.641 64.5998 128.744 63.2153 135.607C60.9178 147.101 55.8533 175.709 55.8533 175.709L96.723 177.322C96.723 177.322 94.2708 157.439 94.2708 156.197C94.2708 154.954 87.3506 127.577 86.9308 126.925C86.5111 126.274 74.1231 118.486 74.1231 118.486Z" fill="#E0E0E0"/>
<path d="M162.424 104.949C162.424 104.949 171.023 101.293 172.481 101.017C173.939 100.741 201.554 95.0468 201.554 95.0468L203.404 133.155L178.429 142.483L176.971 157.252L162.424 104.949Z" fill="#E0E0E0"/>
<path d="M76.2827 142.842C76.36 142.842 79.5247 162.648 83.3521 187.098C87.1795 211.548 90.2115 231.386 90.1342 231.397C90.0569 231.408 86.8923 211.603 83.0649 187.142C79.2375 162.681 76.2054 142.859 76.2827 142.842Z" fill="#263238"/>
<path d="M180.534 116.713C180.542 116.851 180.542 116.99 180.534 117.127C180.534 117.426 180.534 117.823 180.534 118.315C180.534 119.348 180.534 120.839 180.534 122.684C180.484 126.373 180.257 131.471 179.661 137.043C179.065 142.616 178.358 147.691 177.844 151.342C177.579 153.143 177.358 154.612 177.203 155.661C177.126 156.153 177.065 156.539 177.016 156.837C177.001 156.974 176.974 157.109 176.933 157.241C176.928 157.102 176.938 156.963 176.96 156.826L177.093 155.65C177.225 154.595 177.413 153.12 177.645 151.314C178.109 147.658 178.788 142.61 179.379 137.016C179.97 131.421 180.235 126.334 180.34 122.656C180.379 120.839 180.412 119.342 180.44 118.293C180.44 117.801 180.44 117.404 180.467 117.105C180.477 116.973 180.499 116.842 180.534 116.713Z" fill="#263238"/>
<path d="M168.737 104.795C168.737 104.872 164.125 105.425 158.42 106.021C152.715 106.618 148.075 107.037 148.07 106.96C148.064 106.883 152.681 106.33 158.387 105.734C164.092 105.137 168.731 104.718 168.737 104.795Z" fill="white"/>
<path d="M167.616 235.992C167.556 236.01 167.495 236.019 167.433 236.02L166.881 236.075L164.799 236.252C162.993 236.406 160.38 236.583 157.144 236.771C150.671 237.147 141.718 237.467 131.827 237.423C121.935 237.378 112.983 236.959 106.515 236.522C103.279 236.307 100.666 236.097 98.8605 235.931L96.7839 235.733L96.2316 235.672C96.1698 235.671 96.1085 235.662 96.0493 235.644H96.2371L96.7894 235.672L98.8715 235.815C100.678 235.954 103.29 236.125 106.526 236.318C112.994 236.705 121.941 237.086 131.827 237.135C141.713 237.185 150.66 236.892 157.133 236.583C160.369 236.423 162.987 236.274 164.793 236.158L166.875 236.036L167.428 236.009L167.616 235.992Z" fill="#263238"/>
<path d="M147.421 152.589L118.51 154.865L121.576 193.819L150.487 191.543L147.421 152.589Z" fill="white"/>
<path d="M155.15 150.061C155.142 150.112 155.129 150.162 155.112 150.21C155.079 150.326 155.034 150.469 154.979 150.646C154.852 151.049 154.67 151.607 154.427 152.303C154.305 152.668 154.178 153.065 154.035 153.507C153.891 153.949 153.681 154.402 153.482 154.904C153.074 155.904 152.66 157.069 152.052 158.284C151.765 158.903 151.461 159.549 151.141 160.217C150.82 160.886 150.428 161.554 150.036 162.261C149.307 163.686 148.379 165.127 147.429 166.679C143.168 173.244 137.793 179.014 131.545 183.729C130.087 184.783 128.718 185.811 127.348 186.639C126.669 187.064 126.033 187.501 125.387 187.871L123.526 188.915C122.35 189.605 121.223 190.102 120.256 190.572C119.765 190.803 119.318 191.03 118.898 191.218L117.721 191.698L116.098 192.35L115.678 192.51C115.631 192.534 115.581 192.55 115.529 192.56C115.529 192.56 115.573 192.532 115.667 192.488L116.081 192.295L117.677 191.593L118.837 191.091C119.257 190.897 119.704 190.665 120.185 190.428C121.146 189.936 122.261 189.428 123.427 188.727L125.271 187.666C125.912 187.296 126.547 186.855 127.221 186.429C128.58 185.595 129.938 184.563 131.385 183.508C134.476 181.135 137.376 178.522 140.056 175.693C142.684 172.832 145.084 169.77 147.236 166.536C148.186 165.017 149.119 163.592 149.854 162.173C150.229 161.471 150.627 160.814 150.958 160.146C151.29 159.477 151.583 158.842 151.881 158.229C152.499 157.02 152.925 155.865 153.344 154.877C153.549 154.374 153.753 153.916 153.897 153.485L154.316 152.292C154.565 151.596 154.764 151.044 154.902 150.635C154.968 150.458 155.023 150.32 155.062 150.21C155.083 150.156 155.113 150.106 155.15 150.061Z" fill="#263238"/>
<g opacity="0.3">
<path d="M123.371 201.104C126.79 202.915 130.838 200.485 133.909 198.132C139.034 194.206 144.16 190.179 148.302 185.225C152.444 180.271 156.299 173.666 156.846 167.232C147.517 180.194 136.223 191.622 123.371 201.104Z" fill="black"/>
</g>
<path d="M185.764 2.94634C185.593 3.06232 186.04 12.4845 185.764 14.8317C185.488 17.179 186.802 21.8127 188.525 23.4696C190.248 25.1265 195.462 29.9148 197.406 31.4723C198.588 32.4167 199.764 33.6815 203.575 34.4216L205.464 39.3922L219.1 31.7761C219.1 31.7761 216.863 21.1223 216.725 18.0129C216.587 14.9035 215.963 10.7558 215.963 9.09889C215.963 7.44201 214.721 5.64154 211.545 6.54178C211.545 6.54178 211.131 3.98466 207.679 4.67502C207.679 4.67502 207.127 2.46585 204.365 2.94634C201.604 3.42684 193.844 3.49864 192.679 4.12273C191.911 4.57158 191.253 5.18454 190.751 5.91768C190.751 5.91768 189.635 0.389223 185.764 2.94634Z" fill="#FFBF9D"/>
<path d="M207.834 116.106H191.817V119.558H207.834V116.106Z" fill="#FF725E"/>
<path d="M188.161 69.7517V79.4942H211.109V69.7517H188.161ZM192.811 75.8822C192.593 75.8822 192.379 75.8174 192.197 75.696C192.016 75.5746 191.874 75.4021 191.791 75.2003C191.707 74.9985 191.685 74.7764 191.728 74.5621C191.77 74.3478 191.876 74.151 192.03 73.9965C192.184 73.842 192.381 73.7368 192.596 73.6942C192.81 73.6516 193.032 73.6735 193.234 73.7571C193.436 73.8407 193.608 73.9823 193.73 74.1639C193.851 74.3456 193.916 74.5591 193.916 74.7776C193.916 74.9226 193.887 75.0663 193.832 75.2003C193.776 75.3343 193.695 75.4561 193.592 75.5586C193.49 75.6612 193.368 75.7426 193.234 75.7981C193.1 75.8536 192.956 75.8822 192.811 75.8822ZM197.506 75.8822C197.287 75.8822 197.074 75.8174 196.892 75.696C196.71 75.5746 196.569 75.4021 196.485 75.2003C196.401 74.9985 196.38 74.7764 196.422 74.5621C196.465 74.3478 196.57 74.151 196.725 73.9965C196.879 73.842 197.076 73.7368 197.29 73.6942C197.504 73.6516 197.726 73.6735 197.928 73.7571C198.13 73.8407 198.303 73.9823 198.424 74.1639C198.545 74.3456 198.61 74.5591 198.61 74.7776C198.61 74.9236 198.581 75.0681 198.525 75.2029C198.469 75.3376 198.386 75.4599 198.283 75.5626C198.179 75.6653 198.056 75.7464 197.921 75.8013C197.785 75.8561 197.641 75.8836 197.495 75.8822H197.506ZM202.206 75.8822C201.987 75.8822 201.774 75.8174 201.592 75.696C201.41 75.5746 201.269 75.4021 201.185 75.2003C201.101 74.9985 201.08 74.7764 201.122 74.5621C201.165 74.3478 201.27 74.151 201.425 73.9965C201.579 73.842 201.776 73.7368 201.99 73.6942C202.204 73.6516 202.426 73.6735 202.628 73.7571C202.83 73.8407 203.003 73.9823 203.124 74.1639C203.245 74.3456 203.31 74.5591 203.31 74.7776C203.31 74.9226 203.282 75.0663 203.226 75.2003C203.171 75.3343 203.089 75.4561 202.987 75.5586C202.884 75.6612 202.762 75.7426 202.628 75.7981C202.494 75.8536 202.351 75.8822 202.206 75.8822ZM206.906 75.8822C206.687 75.8822 206.474 75.8174 206.292 75.696C206.11 75.5746 205.969 75.4021 205.885 75.2003C205.801 74.9985 205.78 74.7764 205.822 74.5621C205.865 74.3478 205.97 74.151 206.125 73.9965C206.279 73.842 206.476 73.7368 206.69 73.6942C206.904 73.6516 207.126 73.6735 207.328 73.7571C207.53 73.8407 207.703 73.9823 207.824 74.1639C207.945 74.3456 208.01 74.5591 208.01 74.7776C208.01 74.9245 207.981 75.07 207.924 75.2055C207.867 75.3409 207.784 75.4637 207.679 75.5666C207.574 75.6694 207.45 75.7503 207.313 75.8045C207.176 75.8587 207.03 75.8851 206.884 75.8822H206.906Z" fill="#FF725E"/>
<g opacity="0.3">
<path d="M188.161 69.7517V79.4942H211.109V69.7517H188.161ZM192.811 75.8822C192.593 75.8822 192.379 75.8174 192.197 75.696C192.016 75.5746 191.874 75.4021 191.791 75.2003C191.707 74.9985 191.685 74.7764 191.728 74.5621C191.77 74.3478 191.876 74.151 192.03 73.9965C192.184 73.842 192.381 73.7368 192.596 73.6942C192.81 73.6516 193.032 73.6735 193.234 73.7571C193.436 73.8407 193.608 73.9823 193.73 74.1639C193.851 74.3456 193.916 74.5591 193.916 74.7776C193.916 74.9226 193.887 75.0663 193.832 75.2003C193.776 75.3343 193.695 75.4561 193.592 75.5586C193.49 75.6612 193.368 75.7426 193.234 75.7981C193.1 75.8536 192.956 75.8822 192.811 75.8822ZM197.506 75.8822C197.287 75.8822 197.074 75.8174 196.892 75.696C196.71 75.5746 196.569 75.4021 196.485 75.2003C196.401 74.9985 196.38 74.7764 196.422 74.5621C196.465 74.3478 196.57 74.151 196.725 73.9965C196.879 73.842 197.076 73.7368 197.29 73.6942C197.504 73.6516 197.726 73.6735 197.928 73.7571C198.13 73.8407 198.303 73.9823 198.424 74.1639C198.545 74.3456 198.61 74.5591 198.61 74.7776C198.61 74.9236 198.581 75.0681 198.525 75.2029C198.469 75.3376 198.386 75.4599 198.283 75.5626C198.179 75.6653 198.056 75.7464 197.921 75.8013C197.785 75.8561 197.641 75.8836 197.495 75.8822H197.506ZM202.206 75.8822C201.987 75.8822 201.774 75.8174 201.592 75.696C201.41 75.5746 201.269 75.4021 201.185 75.2003C201.101 74.9985 201.08 74.7764 201.122 74.5621C201.165 74.3478 201.27 74.151 201.425 73.9965C201.579 73.842 201.776 73.7368 201.99 73.6942C202.204 73.6516 202.426 73.6735 202.628 73.7571C202.83 73.8407 203.003 73.9823 203.124 74.1639C203.245 74.3456 203.31 74.5591 203.31 74.7776C203.31 74.9226 203.282 75.0663 203.226 75.2003C203.171 75.3343 203.089 75.4561 202.987 75.5586C202.884 75.6612 202.762 75.7426 202.628 75.7981C202.494 75.8536 202.351 75.8822 202.206 75.8822ZM206.906 75.8822C206.687 75.8822 206.474 75.8174 206.292 75.696C206.11 75.5746 205.969 75.4021 205.885 75.2003C205.801 74.9985 205.78 74.7764 205.822 74.5621C205.865 74.3478 205.97 74.151 206.125 73.9965C206.279 73.842 206.476 73.7368 206.69 73.6942C206.904 73.6516 207.126 73.6735 207.328 73.7571C207.53 73.8407 207.703 73.9823 207.824 74.1639C207.945 74.3456 208.01 74.5591 208.01 74.7776C208.01 74.9245 207.981 75.07 207.924 75.2055C207.867 75.3409 207.784 75.4637 207.679 75.5666C207.574 75.6694 207.45 75.7503 207.313 75.8045C207.176 75.8587 207.03 75.8851 206.884 75.8822H206.906Z" fill="black"/>
</g>
<path d="M178.573 62.8149L181.064 22.7571C181.287 20.4323 182.376 18.2765 184.116 16.7181C185.855 15.1597 188.118 14.3128 190.453 14.3456H207.541C209.798 14.3309 211.986 15.1302 213.702 16.5969C215.418 18.0636 216.548 20.0996 216.886 22.3318L219.945 62.3786L178.573 62.8149ZM190.453 14.8979C188.256 14.8616 186.126 15.6551 184.488 17.1201C182.85 18.585 181.824 20.6137 181.616 22.8013L179.158 62.2571L219.316 61.8263L216.322 22.387C216 20.2924 214.937 18.3832 213.325 17.0075C211.713 15.6317 209.66 14.8811 207.541 14.8924L190.453 14.8979Z" fill="#263238"/>
<path d="M212.688 61.5448H187.261V68.4485H212.688V61.5448Z" fill="#FF725E"/>
<path d="M185.521 127.516C183.025 127.516 177.237 127.08 173.21 123.368C170.476 120.844 169.096 117.359 169.107 113.013C169.118 108.666 173.613 82.6368 176.287 67.4763C176.684 65.2172 177.866 63.1706 179.624 61.6967C181.381 60.2229 183.603 59.4161 185.896 59.4183H213.069C215.348 59.4182 217.555 60.2148 219.308 61.6702C221.061 63.1257 222.249 65.1483 222.668 67.3879C226.319 86.9667 230.505 111.384 229.699 116.542C228.412 124.76 216.201 126.98 215.682 127.069L215.516 127.102H215.345L186.626 127.483C186.449 127.494 186.079 127.516 185.521 127.516ZM185.896 63.6765C184.603 63.6794 183.352 64.1359 182.361 64.9665C181.37 65.7971 180.702 66.9492 180.473 68.2219C176.016 93.401 173.354 110.147 173.348 113.024C173.348 116.167 174.227 118.519 176.066 120.204C179.816 123.678 186.294 123.214 186.36 123.208H186.504L215.096 122.827C217.907 122.275 224.811 120.104 225.474 115.863C226.026 112.461 223.32 94.1797 218.465 68.1556C218.226 66.8939 217.555 65.7548 216.568 64.9344C215.58 64.1139 214.337 63.6632 213.053 63.66L185.896 63.6765Z" fill="#FF725E"/>
<path d="M215.958 121.894C213.245 120.957 210.478 120.183 207.673 119.574H192.319C189.515 120.183 186.748 120.957 184.035 121.894C179.501 123.451 179.584 127.24 179.584 127.24V137.22H220.409V127.24C220.409 127.24 220.492 123.457 215.958 121.894Z" fill="#FF725E"/>
<path d="M215.958 121.894L216.245 121.999C216.528 122.097 216.803 122.217 217.068 122.358C217.27 122.451 217.466 122.558 217.653 122.678C217.883 122.815 218.101 122.97 218.305 123.142C218.834 123.556 219.285 124.061 219.636 124.633C219.736 124.793 219.818 124.97 219.918 125.141C220.017 125.312 220.089 125.511 220.15 125.694C220.303 126.108 220.399 126.54 220.437 126.98C220.437 127.897 220.437 128.886 220.437 129.957C220.437 132.089 220.437 134.519 220.437 137.203V137.259H220.382H183.687H179.479V137.187C179.479 134.782 179.479 132.428 179.479 130.123V127.56C179.467 127.274 179.48 126.988 179.518 126.704C179.6 126.145 179.765 125.601 180.009 125.092C180.255 124.591 180.569 124.126 180.942 123.711C181.689 122.922 182.608 122.315 183.627 121.938C184.621 121.557 185.615 121.259 186.587 120.955C188.542 120.369 190.453 119.85 192.276 119.48H207.629C210.308 120.066 212.374 120.684 213.771 121.137C214.472 121.358 215.002 121.535 215.361 121.662L215.765 121.8L215.903 121.855L215.759 121.811L215.356 121.678L213.76 121.176C212.357 120.756 210.291 120.148 207.613 119.574H192.259C190.431 119.966 188.537 120.469 186.587 121.054C185.615 121.358 184.621 121.656 183.638 122.037C182.639 122.411 181.739 123.006 181.003 123.777C180.644 124.185 180.339 124.638 180.097 125.125C179.858 125.621 179.698 126.153 179.623 126.699C179.585 126.973 179.572 127.25 179.584 127.527V137.159L179.512 137.087H183.643H220.338L220.288 137.143C220.288 134.458 220.288 132.028 220.288 129.896C220.288 128.831 220.288 127.831 220.288 126.925C220.248 126.491 220.154 126.065 220.006 125.655C219.94 125.467 219.865 125.283 219.78 125.103C219.686 124.931 219.603 124.755 219.504 124.6C219.163 124.03 218.721 123.526 218.2 123.114C217.995 122.944 217.779 122.787 217.554 122.645C217.377 122.524 217.193 122.415 217.002 122.319C216.738 122.177 216.465 122.054 216.184 121.949L215.958 121.894Z" fill="#263238"/>
<path d="M204.398 127.538C204.372 127.192 204.318 126.849 204.238 126.511C204.135 126.121 203.975 125.749 203.763 125.407C203.263 124.575 202.489 123.944 201.573 123.621C200.658 123.299 199.659 123.305 198.748 123.639C198.372 123.768 198.018 123.954 197.699 124.191C197.361 124.439 197.063 124.737 196.815 125.075C196.296 125.792 196.014 126.653 196.009 127.538C196.009 128.15 196.144 128.753 196.404 129.307C196.664 129.86 197.042 130.349 197.512 130.74C197.983 131.131 198.533 131.413 199.125 131.567C199.716 131.721 200.334 131.743 200.935 131.631C201.518 131.524 202.072 131.294 202.559 130.957C203.047 130.62 203.457 130.183 203.763 129.676C203.976 129.334 204.136 128.961 204.238 128.571C204.318 128.235 204.371 127.894 204.398 127.549C204.398 127.549 204.398 127.549 204.398 127.616V127.82C204.408 127.928 204.408 128.037 204.398 128.146C204.383 128.295 204.356 128.443 204.315 128.588C204.225 128.991 204.07 129.377 203.857 129.731C203.549 130.255 203.133 130.707 202.637 131.057C202.141 131.407 201.576 131.648 200.98 131.763C200.226 131.909 199.448 131.848 198.726 131.587C198.33 131.45 197.957 131.253 197.622 131.001C197.27 130.749 196.962 130.441 196.71 130.09C196.166 129.354 195.871 128.462 195.871 127.547C195.871 126.631 196.166 125.739 196.71 125.003C196.964 124.653 197.271 124.346 197.622 124.092C197.957 123.841 198.33 123.643 198.726 123.507C199.448 123.248 200.226 123.187 200.98 123.33C201.636 123.453 202.253 123.731 202.78 124.142C203.228 124.471 203.604 124.888 203.885 125.368C204.099 125.719 204.253 126.104 204.343 126.506C204.383 126.65 204.411 126.798 204.426 126.947C204.436 127.058 204.436 127.169 204.426 127.279V127.478C204.404 127.511 204.404 127.538 204.398 127.538Z" fill="#263238"/>
<path d="M203.051 127.538C203.05 128.108 202.88 128.665 202.562 129.138C202.245 129.612 201.794 129.98 201.267 130.198C200.74 130.415 200.161 130.472 199.602 130.36C199.043 130.248 198.53 129.973 198.127 129.569C197.724 129.166 197.45 128.652 197.34 128.093C197.229 127.534 197.286 126.955 197.505 126.428C197.723 125.902 198.093 125.452 198.567 125.135C199.041 124.819 199.598 124.65 200.168 124.65C200.547 124.65 200.922 124.725 201.272 124.87C201.622 125.015 201.94 125.228 202.208 125.496C202.476 125.764 202.688 126.083 202.833 126.433C202.977 126.784 203.051 127.159 203.051 127.538Z" fill="#263238"/>
<path d="M219.885 140.97H179.015C178.45 140.97 177.907 140.745 177.507 140.346C177.108 139.946 176.883 139.404 176.883 138.838C176.882 138.558 176.937 138.28 177.044 138.021C177.151 137.761 177.307 137.526 177.506 137.327C177.704 137.129 177.939 136.971 178.198 136.864C178.457 136.756 178.735 136.701 179.015 136.701H219.885C220.452 136.701 220.995 136.926 221.396 137.327C221.797 137.728 222.022 138.271 222.022 138.838C222.022 139.119 221.967 139.396 221.859 139.655C221.752 139.914 221.594 140.15 221.396 140.348C221.197 140.546 220.961 140.703 220.702 140.809C220.443 140.916 220.165 140.971 219.885 140.97Z" fill="#FF725E"/>
<path d="M219.885 140.97C220.207 140.957 220.523 140.879 220.813 140.738C221.162 140.569 221.456 140.305 221.663 139.976C221.947 139.524 222.051 138.982 221.956 138.457C221.895 138.133 221.758 137.828 221.558 137.566C221.357 137.304 221.098 137.093 220.802 136.949C220.457 136.788 220.077 136.716 219.697 136.74H218.482H212.677H179.048C178.557 136.743 178.083 136.921 177.712 137.242C177.34 137.563 177.095 138.006 177.021 138.492C176.946 138.977 177.047 139.473 177.305 139.891C177.564 140.309 177.962 140.621 178.43 140.771C178.808 140.859 179.197 140.89 179.584 140.865H190.851H205.972H216.162L205.972 140.893H190.851H179.584C179.385 140.893 179.192 140.893 178.987 140.893C178.697 140.889 178.411 140.828 178.144 140.713C177.878 140.598 177.636 140.432 177.434 140.224C177.232 140.016 177.072 139.771 176.965 139.501C176.858 139.231 176.805 138.943 176.809 138.653C176.813 138.363 176.874 138.077 176.988 137.81C177.103 137.544 177.269 137.302 177.477 137.1C177.685 136.898 177.931 136.738 178.2 136.631C178.47 136.524 178.758 136.47 179.048 136.474H212.677H218.482H219.719C220.1 136.457 220.479 136.533 220.824 136.695C221.187 136.871 221.493 137.146 221.707 137.488C221.921 137.83 222.034 138.225 222.034 138.628C222.034 139.032 221.921 139.427 221.707 139.769C221.493 140.111 221.187 140.385 220.824 140.561C220.607 140.667 220.373 140.735 220.133 140.76C220.056 140.837 219.973 140.907 219.885 140.97Z" fill="#263238"/>
<path d="M212.053 56.2317H187.747V60.2469H212.053V56.2317Z" fill="#FF725E"/>
<path d="M184.118 69.7517H215.538L212.688 67.78H187.575L184.118 69.7517Z" fill="#FF725E"/>
<path d="M184.615 83.7855C184.615 83.7855 184.367 79.4942 188.161 79.4942H211.109C211.109 79.4942 214.975 79.2567 214.975 83.7855H184.615Z" fill="#FF725E"/>
<path d="M214.544 83.7856H185.068C185.068 83.7856 181.092 96.643 182.307 103.116C183.522 109.589 191.806 113.411 191.806 113.411V116.084H199.776V115.774L199.814 116.084H207.784V113.411C207.784 113.411 216.068 109.611 217.283 103.116C218.498 96.621 214.544 83.7856 214.544 83.7856Z" fill="white"/>
<path d="M214.544 83.7855L214.594 83.9401C214.627 84.045 214.676 84.1942 214.737 84.393C214.853 84.7962 215.03 85.3926 215.24 86.1714C215.654 87.7344 216.256 90.0374 216.797 92.9811C217.073 94.4558 217.311 96.1016 217.466 97.8966C217.678 99.8363 217.596 101.797 217.223 103.712C216.598 105.849 215.412 107.779 213.787 109.301C212.932 110.137 212.008 110.9 211.026 111.582C210.011 112.311 208.94 112.958 207.823 113.515L207.861 113.455C207.861 114.283 207.861 115.2 207.861 116.128V116.194H199.765V116.128C199.765 116.034 199.765 115.929 199.726 115.824H199.869V116.205H191.745V113.444L191.784 113.51C190.648 112.951 189.558 112.303 188.525 111.571C187.39 110.775 186.335 109.868 185.377 108.865C184.435 107.884 183.646 106.767 183.036 105.551C182.747 104.944 182.52 104.309 182.356 103.657L182.246 103.171L182.18 102.674C182.146 102.348 182.08 102.022 182.069 101.691C182.022 101.031 182.009 100.369 182.03 99.7081C182.03 99.3822 182.03 99.0619 182.064 98.7416L182.13 97.7806C182.357 95.315 182.744 92.8669 183.29 90.4516C183.798 88.1099 184.37 85.8823 185.007 83.7689V83.7247H185.051L206.436 83.7523H212.423H213.992H212.407H206.42H185.057L185.118 83.7081C184.488 85.8124 183.919 88.0436 183.411 90.3798C182.87 92.7898 182.486 95.2324 182.262 97.6922C182.262 98.007 182.218 98.3273 182.191 98.6477C182.163 98.968 182.191 99.2883 182.163 99.6087C182.13 100.255 182.163 100.901 182.202 101.553C182.202 101.884 182.279 102.204 182.312 102.53L182.378 103.016L182.489 103.497C182.649 104.138 182.872 104.762 183.157 105.358C183.757 106.574 184.539 107.692 185.477 108.672C186.426 109.669 187.473 110.568 188.603 111.356C189.627 112.086 190.709 112.73 191.839 113.283H191.878V116.001L191.806 115.923H199.776L199.704 115.995V115.686H199.847L199.886 115.995L199.814 115.934H207.784L207.718 116.006V113.295H207.756C208.872 112.751 209.941 112.117 210.954 111.4C211.927 110.723 212.842 109.966 213.688 109.136C215.3 107.634 216.479 105.726 217.101 103.613C217.477 101.711 217.564 99.7636 217.361 97.8358C217.212 96.0408 216.98 94.395 216.709 92.9204C216.157 89.9711 215.604 87.6736 215.19 86.1106C214.986 85.3264 214.815 84.7299 214.704 84.3267L214.577 83.8738C214.555 83.8407 214.544 83.7855 214.544 83.7855Z" fill="#263238"/>
<path d="M205.403 106.087C206.824 103.939 207.54 101.402 207.452 98.8287C207.364 96.2552 206.476 93.773 204.912 91.7275C203.857 90.413 202.404 89.2753 200.726 89.1869C198.478 89.0709 196.556 90.8438 195.423 92.8044C194.055 95.0655 193.427 97.6969 193.625 100.332C193.823 102.967 194.838 105.475 196.528 107.506C196.528 107.506 196.705 103.994 200.19 103.994C201.156 103.965 202.118 104.135 203.015 104.496C203.913 104.856 204.726 105.398 205.403 106.087Z" fill="#FF725E"/>
<g opacity="0.8">
<path d="M205.403 106.087C206.824 103.939 207.54 101.402 207.452 98.8287C207.364 96.2552 206.476 93.773 204.912 91.7275C203.857 90.413 202.404 89.2753 200.726 89.1869C198.478 89.0709 196.556 90.8438 195.423 92.8044C194.055 95.0655 193.427 97.6969 193.625 100.332C193.823 102.967 194.838 105.475 196.528 107.506C196.528 107.506 196.705 103.994 200.19 103.994C201.156 103.965 202.118 104.135 203.015 104.496C203.913 104.856 204.726 105.398 205.403 106.087Z" fill="white"/>
</g>
<path d="M203.426 109.031C204.669 107.926 205.978 106.082 205.768 104.419C205.471 102.769 204.911 101.177 204.111 99.7027C203.907 99.2663 203.631 98.7803 203.156 98.703C202.681 98.6257 202.2 99.073 201.869 99.4817C201.317 98.2943 200.726 97.1234 200.079 95.9857C199.853 95.5825 199.483 95.1186 199.03 95.2291C198.805 95.3009 198.61 95.4469 198.478 95.6433C196.865 97.4853 195.781 99.7297 195.341 102.138C194.998 104.546 195.672 107.181 197.467 108.821C197.467 108.821 197.666 105.364 200.604 105.364C203.542 105.364 203.426 109.031 203.426 109.031Z" fill="#FF725E"/>
<path d="M213.406 116.277L211.987 106.386C211.893 105.726 211.62 105.106 211.197 104.591C210.775 104.077 210.219 103.689 209.59 103.469L181.975 93.7491L182.163 93.1968L209.778 102.917C210.503 103.172 211.145 103.622 211.632 104.217C212.119 104.812 212.433 105.53 212.539 106.292L213.959 116.178L213.406 116.277Z" fill="#263238"/>
<path d="M186.752 116.277L186.2 116.194L187.609 106.336C187.719 105.569 188.038 104.847 188.532 104.249C189.027 103.652 189.676 103.202 190.409 102.95L216.864 93.8595L217.046 94.4118L190.596 103.464C189.961 103.679 189.398 104.067 188.97 104.584C188.541 105.101 188.265 105.726 188.172 106.391L186.752 116.277Z" fill="#263238"/>
<path d="M178.164 65.8692C177.63 65.7348 177.141 65.4603 176.748 65.074C176.355 64.6877 176.072 64.2036 175.929 63.6717C175.785 63.1397 175.786 62.579 175.931 62.0475C176.077 61.516 176.361 61.0328 176.755 60.6478C177.15 60.2628 177.639 59.9899 178.174 59.8573C178.709 59.7246 179.269 59.7369 179.798 59.893C180.326 60.0491 180.804 60.3433 181.18 60.7453C181.557 61.1473 181.82 61.6425 181.942 62.1799L181.39 62.3069C181.29 61.8682 181.076 61.4639 180.769 61.1356C180.461 60.8073 180.072 60.5669 179.641 60.4392C179.209 60.3115 178.752 60.3011 178.315 60.4091C177.879 60.517 177.479 60.7395 177.157 61.0534C176.835 61.3674 176.602 61.7616 176.483 62.1953C176.364 62.6291 176.363 63.0867 176.48 63.5211C176.596 63.9554 176.827 64.3508 177.147 64.6665C177.468 64.9822 177.866 65.2067 178.302 65.3169L178.164 65.8692Z" fill="#FF725E"/>
<path d="M219.586 66.4932L219.476 65.9409C219.93 65.853 220.355 65.6549 220.714 65.3639C221.073 65.0729 221.355 64.6981 221.535 64.2725C221.715 63.8468 221.787 63.3834 221.746 62.9232C221.704 62.4629 221.55 62.0199 221.297 61.6332C221.044 61.2466 220.7 60.9281 220.295 60.7059C219.889 60.4837 219.436 60.3646 218.974 60.3591C218.512 60.3537 218.055 60.462 217.645 60.6745C217.234 60.887 216.883 61.1972 216.621 61.5778L216.151 61.2575C216.466 60.7997 216.888 60.4263 217.381 60.1704C217.874 59.9144 218.423 59.7838 218.978 59.7899C219.534 59.796 220.079 59.9387 220.567 60.2054C221.054 60.4722 221.468 60.8547 221.773 61.3194C222.077 61.784 222.263 62.3164 222.313 62.8697C222.363 63.4229 222.276 63.98 222.06 64.4918C221.844 65.0037 221.506 65.4544 221.074 65.8044C220.643 66.1544 220.132 66.3929 219.586 66.4987V66.4932Z" fill="#FF725E"/>
<path d="M188.581 49.4937V56.2316H210.915V49.4937H188.581ZM197.699 54.4643H191.127V51.1063H197.699V54.4643ZM208.988 54.4643H202.41V51.1063H208.988V54.4643Z" fill="#FF725E"/>
<g opacity="0.3">
<path d="M188.581 49.4937V56.2316H210.915V49.4937H188.581ZM197.699 54.4643H191.127V51.1063H197.699V54.4643ZM208.988 54.4643H202.41V51.1063H208.988V54.4643Z" fill="black"/>
</g>
<path d="M186.233 49.4935H213.721L203.498 46.3896H196.003L186.233 49.4935Z" fill="#FF725E"/>
<path d="M203.57 46.5333H195.91V41.9161C195.91 40.9011 196.313 39.9275 197.031 39.2098C197.748 38.492 198.722 38.0887 199.737 38.0887C200.752 38.0887 201.726 38.492 202.443 39.2098C203.161 39.9275 203.564 40.9011 203.564 41.9161L203.57 46.5333ZM196.202 46.2516H203.283V41.9161C203.283 40.9772 202.91 40.0768 202.246 39.4128C201.582 38.7489 200.681 38.3759 199.742 38.3759C198.804 38.3759 197.903 38.7489 197.239 39.4128C196.575 40.0768 196.202 40.9772 196.202 41.9161V46.2516Z" fill="#FF725E"/>
<path d="M212.589 59.2636C212.589 59.3078 206.977 59.3409 200.063 59.3409C193.148 59.3409 187.531 59.3078 187.531 59.2636C187.531 59.2194 193.137 59.1918 200.063 59.1918C206.988 59.1918 212.589 59.2249 212.589 59.2636Z" fill="#263238"/>
<path d="M213.224 63.8091C213.224 63.8478 207.331 63.8809 200.063 63.8809C192.795 63.8809 186.896 63.8478 186.896 63.8091C186.896 63.7705 192.789 63.7318 200.063 63.7318C207.337 63.7318 213.224 63.7539 213.224 63.8091Z" fill="#263238"/>
<path d="M212.644 67.8187C212.644 67.8573 206.944 67.8905 199.914 67.8905C192.883 67.8905 187.211 67.8573 187.211 67.8187C187.211 67.78 192.905 67.7413 199.914 67.7413C206.922 67.7413 212.644 67.7745 212.644 67.8187Z" fill="#263238"/>
<path d="M215.72 116.388H184.748C184.293 116.391 183.852 116.237 183.497 115.954C183.142 115.67 182.895 115.274 182.798 114.83L182.329 112.77C182.256 112.455 182.078 112.173 181.824 111.972C181.57 111.772 181.255 111.663 180.931 111.665H173.426V111.113H180.926C181.379 111.112 181.82 111.266 182.174 111.549C182.529 111.832 182.776 112.228 182.875 112.671L183.345 114.731C183.418 115.046 183.596 115.327 183.85 115.528C184.104 115.729 184.418 115.837 184.742 115.835H215.72C215.933 115.836 216.142 115.776 216.321 115.661C216.5 115.547 216.643 115.383 216.731 115.189L218.145 112.085C218.276 111.791 218.49 111.541 218.761 111.367C219.031 111.192 219.347 111.1 219.669 111.102H225.396V111.654H219.691C219.478 111.654 219.269 111.715 219.089 111.831C218.91 111.946 218.768 112.111 218.681 112.306L217.267 115.41C217.133 115.707 216.916 115.958 216.641 116.132C216.366 116.305 216.046 116.394 215.72 116.388Z" fill="#263238"/>
<path d="M204.398 127.538C204.372 127.192 204.318 126.849 204.238 126.511C204.135 126.121 203.975 125.749 203.763 125.407C203.263 124.575 202.489 123.944 201.573 123.621C200.658 123.299 199.659 123.305 198.748 123.639C198.372 123.768 198.018 123.954 197.699 124.191C197.361 124.439 197.063 124.737 196.815 125.075C196.296 125.792 196.014 126.653 196.009 127.538C196.009 128.15 196.144 128.753 196.404 129.307C196.664 129.86 197.042 130.349 197.512 130.74C197.983 131.131 198.533 131.413 199.125 131.567C199.716 131.721 200.334 131.743 200.935 131.631C201.518 131.524 202.072 131.294 202.559 130.957C203.047 130.62 203.457 130.183 203.763 129.676C203.976 129.334 204.136 128.961 204.238 128.571C204.318 128.235 204.371 127.894 204.398 127.549C204.398 127.549 204.398 127.549 204.398 127.616V127.82C204.408 127.928 204.408 128.037 204.398 128.146C204.383 128.295 204.356 128.443 204.315 128.588C204.225 128.991 204.07 129.377 203.857 129.731C203.549 130.255 203.133 130.707 202.637 131.057C202.141 131.407 201.576 131.648 200.98 131.763C200.226 131.909 199.448 131.848 198.726 131.587C198.33 131.45 197.957 131.253 197.622 131.001C197.27 130.749 196.962 130.441 196.71 130.09C196.166 129.354 195.871 128.462 195.871 127.547C195.871 126.631 196.166 125.739 196.71 125.003C196.964 124.653 197.271 124.346 197.622 124.092C197.957 123.841 198.33 123.643 198.726 123.507C199.448 123.248 200.226 123.187 200.98 123.33C201.636 123.453 202.253 123.731 202.78 124.142C203.228 124.471 203.604 124.888 203.885 125.368C204.099 125.719 204.253 126.104 204.343 126.506C204.383 126.65 204.411 126.798 204.426 126.947C204.436 127.058 204.436 127.169 204.426 127.279V127.478C204.404 127.511 204.404 127.538 204.398 127.538Z" fill="#263238"/>
<g opacity="0.3">
<path d="M200.168 131.824C199.148 131.823 198.162 131.454 197.393 130.784C196.624 130.114 196.123 129.189 195.981 128.179C195.953 128.373 195.938 128.568 195.937 128.764C195.937 129.886 196.383 130.962 197.176 131.756C197.97 132.549 199.046 132.995 200.168 132.995C201.29 132.995 202.366 132.549 203.159 131.756C203.953 130.962 204.398 129.886 204.398 128.764C204.398 128.568 204.383 128.373 204.354 128.179C204.213 129.189 203.712 130.114 202.942 130.784C202.173 131.454 201.188 131.823 200.168 131.824Z" fill="black"/>
</g>
<path d="M215.035 83.7855C215.035 83.8297 208.22 83.8629 199.809 83.8629C191.397 83.8629 184.582 83.8297 184.582 83.7855C184.582 83.7414 191.419 83.6917 199.809 83.6917C208.198 83.6917 215.035 83.7469 215.035 83.7855Z" fill="#263238"/>
<path d="M205.807 82.9517C205.807 82.9903 203.526 83.0235 200.715 83.0235C197.903 83.0235 195.628 82.9903 195.628 82.9517C195.628 82.913 197.903 82.8799 200.715 82.8799C203.526 82.8799 205.807 82.913 205.807 82.9517Z" fill="white"/>
<path d="M207.104 69.2824C207.104 69.3211 204.779 69.3542 201.913 69.3542C199.046 69.3542 196.721 69.3211 196.721 69.2824C196.721 69.2437 199.046 69.2051 201.913 69.2051C204.779 69.2051 207.104 69.2382 207.104 69.2824Z" fill="white"/>
<path d="M205.304 66.5705C205.304 66.6091 203.923 66.6423 202.211 66.6423C200.499 66.6423 199.118 66.6091 199.118 66.5705C201.179 66.4674 203.243 66.4674 205.304 66.5705Z" fill="white"/>
<path d="M203.807 61.8981C203.807 61.9367 202.449 61.9699 200.764 61.9699C199.08 61.9699 197.721 61.9367 197.721 61.8981C199.745 61.7954 201.773 61.7954 203.796 61.8981H203.807Z" fill="white"/>
<path d="M203.31 57.8056C201.815 57.9013 200.315 57.9013 198.82 57.8056C200.315 57.7025 201.815 57.7025 203.31 57.8056Z" fill="white"/>
<path d="M207.105 49.0242C207.105 49.0629 204.934 49.096 202.261 49.096C199.588 49.096 197.423 49.0629 197.423 49.0242C197.423 48.9856 199.588 48.9469 202.261 48.9469C204.934 48.9469 207.105 48.98 207.105 49.0242Z" fill="white"/>
<path d="M202.41 116.978C200.783 117.082 199.15 117.082 197.522 116.978C199.15 116.883 200.782 116.883 202.41 116.978Z" fill="white"/>
<path d="M204.409 121.369C204.409 121.413 202.913 121.446 201.063 121.446C199.212 121.446 197.749 121.413 197.749 121.369C197.749 121.325 199.245 121.297 201.063 121.297C202.88 121.297 204.409 121.331 204.409 121.369Z" fill="white"/>
<path d="M202.504 124.832C202.504 124.832 202.261 124.705 201.852 124.539C201.326 124.326 200.764 124.214 200.195 124.208C199.629 124.212 199.067 124.319 198.538 124.523C198.13 124.683 197.898 124.838 197.887 124.816C197.876 124.793 197.931 124.76 198.036 124.688C198.181 124.586 198.336 124.499 198.5 124.429C199.039 124.183 199.625 124.059 200.217 124.064C200.81 124.065 201.396 124.193 201.935 124.44C202.094 124.517 202.248 124.605 202.393 124.705C202.465 124.782 202.515 124.827 202.504 124.832Z" fill="white"/>
<path d="M208.253 137.783C208.253 137.827 205.552 137.861 202.228 137.861C198.903 137.861 196.202 137.827 196.202 137.783C196.202 137.739 198.897 137.711 202.228 137.711C205.558 137.711 208.253 137.745 208.253 137.783Z" fill="white"/>
<path d="M226.462 113.306C226.507 113.557 226.518 113.813 226.496 114.068C226.439 115.301 226.125 116.509 225.573 117.614C225.471 117.848 225.337 118.067 225.176 118.265C225.264 118.028 225.366 117.796 225.479 117.569C225.724 117.014 225.924 116.439 226.076 115.852C226.226 115.264 226.331 114.666 226.391 114.062C226.401 113.809 226.425 113.556 226.462 113.306Z" fill="white"/>
<path d="M174.9 120.96C174.9 120.96 174.817 120.905 174.685 120.778C174.499 120.607 174.325 120.422 174.166 120.226C173.924 119.928 173.708 119.61 173.52 119.276C173.286 118.869 173.09 118.442 172.934 118C172.783 117.554 172.67 117.096 172.597 116.63C172.54 116.252 172.512 115.87 172.514 115.487C172.516 115.23 172.535 114.974 172.57 114.72C172.576 114.623 172.596 114.528 172.63 114.438C172.63 114.438 172.603 114.841 172.63 115.487C172.643 115.857 172.68 116.226 172.741 116.592C172.822 117.045 172.936 117.492 173.083 117.928C173.236 118.361 173.42 118.782 173.636 119.188C173.816 119.519 174.021 119.837 174.249 120.138C174.635 120.662 174.922 120.944 174.9 120.96Z" fill="white"/>
<path d="M190.74 5.9176C190.58 6.69081 190.619 7.45298 190.458 9.23136C190.319 10.4283 190.256 11.6329 190.271 12.8378C190.273 13.3732 190.385 13.9025 190.598 14.3934C190.812 14.8843 191.123 15.3265 191.513 15.6932C191.915 16.0483 192.424 16.259 192.959 16.292C193.495 16.325 194.026 16.1784 194.468 15.8755V13.3736" fill="#FFBF9D"/>
<path d="M194.468 13.3736C194.509 13.592 194.528 13.8141 194.523 14.0363C194.523 14.4671 194.556 15.0857 194.573 15.8534V15.8975L194.529 15.9307C194.185 16.1914 193.776 16.3529 193.346 16.3977C192.917 16.4425 192.484 16.3688 192.093 16.1847C191.626 15.9584 191.219 15.6265 190.902 15.2152C190.586 14.804 190.37 14.3247 190.271 13.8154C190.15 13.2868 190.098 12.7447 190.116 12.2027C190.116 11.6835 190.155 11.1865 190.193 10.7115C190.282 9.78918 190.365 8.94969 190.436 8.21514C190.508 7.48059 190.536 6.92278 190.596 6.52512C190.609 6.31588 190.658 6.11038 190.74 5.9176C190.744 6.12432 190.733 6.33106 190.707 6.53617C190.707 7.0001 190.663 7.56344 190.635 8.22619C190.608 8.88894 190.519 9.79471 190.458 10.7336C190.431 11.2031 190.403 11.6946 190.398 12.2027C190.384 12.7223 190.434 13.2416 190.547 13.7491C190.635 14.2198 190.83 14.6639 191.118 15.047C191.405 15.4301 191.776 15.7419 192.204 15.9583C192.554 16.1276 192.943 16.2015 193.331 16.1724C193.718 16.1433 194.092 16.0123 194.413 15.7926L194.374 15.8755C194.374 15.1078 194.402 14.4892 194.418 14.0584C194.404 13.8289 194.421 13.5986 194.468 13.3736Z" fill="#FF9A6C"/>
<path d="M198.776 4.63635C197.92 4.73024 195.462 6.34846 195.12 7.13272C194.812 7.94248 194.653 8.80134 194.65 9.66775C194.562 11.2105 194.507 12.7532 194.485 14.296C194.485 15.4668 194.485 16.7261 195.192 17.676C195.601 18.2068 196.181 18.5805 196.834 18.7344C197.487 18.8882 198.172 18.8129 198.776 18.521" fill="#FFBF9D"/>
<path d="M198.776 18.521C198.776 18.521 198.721 18.5707 198.61 18.6315C198.434 18.7144 198.248 18.7774 198.058 18.8193C197.359 18.9647 196.632 18.8591 196.003 18.521C195.565 18.2896 195.197 17.9443 194.937 17.5214C194.646 17.0346 194.458 16.4932 194.385 15.9308C194.291 14.6788 194.291 13.4216 194.385 12.1696C194.451 10.8386 194.435 9.57938 194.595 8.41956C194.66 7.85522 194.849 7.31215 195.147 6.82896C195.461 6.45804 195.823 6.13108 196.224 5.85692C196.793 5.44749 197.404 5.10119 198.047 4.82413C198.274 4.7011 198.528 4.63657 198.787 4.63635C198.551 4.71886 198.32 4.81663 198.097 4.92907C197.491 5.24343 196.916 5.61321 196.379 6.03365C196.004 6.30926 195.664 6.63019 195.368 6.98912C195.111 7.44626 194.953 7.95248 194.904 8.47479C194.761 9.57938 194.783 10.8773 194.717 12.1973C194.631 13.4348 194.631 14.6767 194.717 15.9142C194.766 16.4406 194.926 16.9506 195.186 17.4109C195.418 17.8057 195.749 18.1331 196.147 18.3609C196.733 18.693 197.413 18.8212 198.08 18.7254C198.522 18.6425 198.765 18.521 198.776 18.521Z" fill="#FF9A6C"/>
<path d="M204.63 5.81824C202.3 5.86242 200.35 7.78993 199.505 9.96044C198.66 12.131 198.666 14.5334 198.599 16.8641C198.599 18.0736 198.599 19.4488 199.477 20.2718C199.818 20.5522 200.217 20.7513 200.646 20.8537C201.075 20.9561 201.521 20.9592 201.952 20.8627C202.51 20.7869 203.045 20.5868 203.516 20.2771C203.987 19.9675 204.383 19.5561 204.674 19.0733" fill="#FFBF9D"/>
<path d="M204.674 19.0732C204.649 19.1503 204.616 19.2244 204.575 19.2941C204.459 19.4936 204.32 19.6789 204.161 19.8464C203.547 20.4593 202.754 20.8599 201.896 20.9897C201.301 21.1018 200.685 21.0483 200.118 20.835C199.791 20.7013 199.498 20.4981 199.257 20.2397C199.017 19.9813 198.836 19.6737 198.726 19.3383C198.511 18.6228 198.419 17.8756 198.456 17.1291C198.456 16.3559 198.456 15.5606 198.511 14.7432C198.525 13.1939 198.782 11.6564 199.273 10.1868C199.702 8.98179 200.439 7.9099 201.41 7.07739C202.06 6.51374 202.84 6.12083 203.68 5.93414C203.905 5.88559 204.135 5.85969 204.365 5.85682C204.445 5.84118 204.528 5.84118 204.608 5.85682C204.608 5.88996 204.277 5.88444 203.702 6.02804C202.902 6.25777 202.164 6.6656 201.543 7.22099C200.636 8.0439 199.948 9.08047 199.544 10.2365C199.077 11.6825 198.833 13.1909 198.82 14.7101C198.787 15.522 198.776 16.3228 198.759 17.085C198.714 17.8094 198.795 18.5363 198.997 19.2334C199.095 19.5385 199.259 19.8186 199.476 20.0542C199.694 20.2897 199.96 20.4751 200.256 20.5975C200.783 20.8031 201.355 20.8642 201.913 20.7743C202.736 20.6621 203.506 20.304 204.122 19.747C204.32 19.5337 204.504 19.3087 204.674 19.0732Z" fill="#FF9A6C"/>
<path d="M209.358 8.25391C207.701 8.90561 205.884 9.70644 205.177 11.3412C204.894 12.1783 204.739 13.0535 204.719 13.937C204.619 14.8925 204.437 15.8369 204.398 16.7924C204.333 17.7456 204.524 18.6989 204.951 19.5538C205.172 19.98 205.496 20.3436 205.895 20.611C206.294 20.8784 206.753 21.041 207.232 21.0837C207.714 21.1045 208.187 20.9472 208.561 20.6416C208.935 20.3361 209.183 19.9037 209.258 19.4268C209.297 18.9905 209.159 18.5542 209.165 18.1179C209.165 16.6819 210.645 15.5055 210.479 14.0806C210.984 14.3368 211.554 14.4354 212.115 14.3635C212.677 14.2916 213.203 14.0525 213.627 13.6774" fill="#FFBF9D"/>
<path d="M213.611 13.7216C213.564 13.7832 213.51 13.8389 213.45 13.8873C213.032 14.2325 212.522 14.4469 211.983 14.5039C211.443 14.5608 210.899 14.4578 210.418 14.2076L210.551 14.1193C210.578 14.8634 210.371 15.5972 209.96 16.218C209.595 16.9139 209.143 17.6926 209.308 18.5873C209.433 19.0746 209.4 19.5889 209.214 20.0564C208.973 20.5412 208.556 20.9163 208.049 21.1058C207.526 21.3134 206.943 21.3134 206.42 21.1058C205.892 20.8949 205.431 20.5435 205.089 20.0896C204.526 19.2797 204.233 18.3138 204.249 17.3281C204.269 16.4321 204.353 15.5386 204.503 14.655C204.63 13.8155 204.647 12.9981 204.796 12.247C204.925 11.5336 205.25 10.8701 205.735 10.3305C206.463 9.60194 207.339 9.03708 208.303 8.67365C208.64 8.53558 208.899 8.44169 209.082 8.37542C209.169 8.33605 209.263 8.30999 209.358 8.2981C209.358 8.2981 208.999 8.46931 208.353 8.77859C207.426 9.17013 206.588 9.74499 205.889 10.4686C205.439 10.9864 205.143 11.6195 205.033 12.2967C204.895 13.0257 204.89 13.8431 204.768 14.6937C204.623 15.5646 204.544 16.4452 204.531 17.3281C204.514 18.2601 204.79 19.1738 205.321 19.9404C205.599 20.3597 206.005 20.6784 206.478 20.8494C206.952 21.0205 207.467 21.0348 207.95 20.8904C208.393 20.7288 208.758 20.4051 208.971 19.9846C209.136 19.5639 209.163 19.1018 209.049 18.6646C208.979 18.2006 209.032 17.7263 209.203 17.2894C209.361 16.9085 209.545 16.5394 209.756 16.1848C210.156 15.6032 210.37 14.9136 210.369 14.2076V14.0364L210.523 14.1193C210.883 14.3032 211.279 14.4077 211.683 14.4258C212.087 14.4439 212.49 14.3752 212.865 14.2242C213.129 14.0803 213.378 13.912 213.611 13.7216Z" fill="#FF9A6C"/>
<path d="M205.149 19.9182C205.149 19.9679 204.663 20.0894 203.912 20.4208C202.941 20.8493 202.1 21.5277 201.477 22.387C200.884 23.276 200.429 24.2499 200.129 25.2755C200.019 25.7113 199.875 26.1379 199.698 26.5513C199.718 26.0995 199.796 25.6522 199.93 25.2202C200.183 24.1493 200.629 23.1333 201.245 22.2213C201.893 21.316 202.794 20.6224 203.835 20.2275C204.145 20.1087 204.465 20.0164 204.79 19.9514C205.017 19.9127 205.149 19.8961 205.149 19.9182Z" fill="#FF9A6C"/>
<path d="M202.145 31.5994C201.953 31.5488 201.768 31.4765 201.593 31.384C201.245 31.2294 200.753 30.9808 200.157 30.6495C198.604 29.7944 197.126 28.8096 195.738 27.7057C194.352 26.6026 193.059 25.3871 191.872 24.0717C191.419 23.5635 191.066 23.1383 190.839 22.84C190.707 22.6926 190.594 22.5293 190.503 22.354C190.536 22.3209 191.082 22.956 192.021 23.9336C193.246 25.198 194.55 26.3824 195.926 27.4793C197.305 28.5695 198.751 29.5711 200.256 30.4783C201.427 31.1686 202.167 31.5608 202.145 31.5994Z" fill="white"/>
<path d="M207.154 19.9238C207.154 19.957 206.983 19.9238 206.762 19.841C206.469 19.6987 206.221 19.4791 206.044 19.2058C205.864 18.938 205.757 18.6276 205.735 18.3056C205.735 18.0571 205.779 17.908 205.812 17.9135C205.845 17.919 205.906 18.4658 206.287 19.0181C206.668 19.5704 207.182 19.841 207.154 19.9238Z" fill="white"/>
<path d="M200.77 19.6256C200.77 19.7029 200.129 19.5206 199.764 18.8689C199.634 18.6903 199.552 18.4802 199.529 18.26C199.506 18.0397 199.541 17.8173 199.632 17.6152C199.715 17.6152 199.693 18.1675 200.013 18.7198C200.333 19.2721 200.808 19.5317 200.77 19.6256Z" fill="white"/>
<path d="M196.495 18.0128C196.495 18.046 196.373 18.0625 196.208 18.0128C195.995 17.9221 195.815 17.7666 195.695 17.5683C195.575 17.3701 195.521 17.1392 195.539 16.9082C195.539 16.737 195.617 16.6431 195.655 16.6487C195.694 16.6542 195.716 17.0408 195.948 17.4053C196.18 17.7698 196.511 17.9355 196.495 18.0128Z" fill="white"/>
<path d="M191.574 14.8814C191.574 14.9145 191.436 14.92 191.254 14.8261C191.026 14.6929 190.846 14.4905 190.741 14.2481C190.635 14.0058 190.61 13.7362 190.668 13.4785C190.724 13.2852 190.817 13.1914 190.851 13.2079C190.884 13.2245 190.79 13.6663 191.005 14.1358C191.221 14.6052 191.602 14.8041 191.574 14.8814Z" fill="white"/>
<path d="M167.72 122.695C167.72 122.766 165.042 123.689 161.684 124.744C158.326 125.799 155.609 126.594 155.57 126.517C155.531 126.439 158.243 125.522 161.601 124.468C164.959 123.413 167.671 122.617 167.72 122.695Z" fill="#263238"/>
<path d="M167.671 125.948C166.778 126.855 165.818 127.693 164.799 128.455C163.841 129.292 162.822 130.057 161.75 130.742C163.599 128.996 165.579 127.393 167.671 125.948Z" fill="#263238"/>
<path d="M171.399 129.676C170.783 130.86 170.083 131.998 169.306 133.083C168.605 134.218 167.824 135.301 166.969 136.325C168.281 134.013 169.758 131.798 171.388 129.698L171.399 129.676Z" fill="#263238"/>
<path d="M235.57 70.166C234.504 71.1446 233.377 72.054 232.195 72.8888C231.071 73.799 229.887 74.6312 228.649 75.3797C229.714 74.3995 230.841 73.49 232.024 72.6569C233.148 71.7467 234.332 70.9145 235.57 70.166Z" fill="#263238"/>
<path d="M238.044 78.213C235.19 78.8605 232.297 79.3254 229.384 79.6048C230.8 79.2291 232.239 78.9486 233.692 78.7653C235.129 78.4853 236.583 78.3008 238.044 78.213Z" fill="#263238"/>
<path d="M236.746 86.2487C235.62 86.1764 234.513 85.9266 233.466 85.5087C232.384 85.1828 231.362 84.6849 230.439 84.034C230.478 83.9567 231.82 84.6305 233.559 85.238C235.299 85.8456 236.763 86.1604 236.746 86.2487Z" fill="#263238"/>
</svg>
