<svg width="25" height="25" viewBox="0 0 25 25" fill="none" xmlns="http://www.w3.org/2000/svg">
<path d="M12.5 2.5C9.04822 2.5 6.25 5.29822 6.25 8.75V11.25C4.86929 11.25 3.75 12.3693 3.75 13.75V20C3.75 21.3807 4.86929 22.5 6.25 22.5H18.75C20.1307 22.5 21.25 21.3807 21.25 20V13.75C21.25 12.3693 20.1307 11.25 18.75 11.25H8.75V8.75C8.75 6.67893 10.4289 5 12.5 5C14.2456 5 15.7156 6.1939 16.1319 7.81157C16.304 8.48014 16.9855 8.88262 17.6541 8.71055C18.3226 8.53847 18.7251 7.85699 18.553 7.18843C17.8593 4.49303 15.414 2.5 12.5 2.5Z" fill="#A8A8A8"/>
</svg>
