<svg width="25" height="25" viewBox="0 0 25 25" fill="none" xmlns="http://www.w3.org/2000/svg">
<path fill-rule="evenodd" clip-rule="evenodd" d="M6.25 11.25V8.75C6.25 5.29822 9.04822 2.5 12.5 2.5C15.9518 2.5 18.75 5.29822 18.75 8.75V11.25C20.1307 11.25 21.25 12.3693 21.25 13.75V20C21.25 21.3807 20.1307 22.5 18.75 22.5H6.25C4.86929 22.5 3.75 21.3807 3.75 20V13.75C3.75 12.3693 4.86929 11.25 6.25 11.25ZM16.25 8.75V11.25H8.75V8.75C8.75 6.67893 10.4289 5 12.5 5C14.5711 5 16.25 6.67893 16.25 8.75Z" fill="#A8A8A8"/>
</svg>
