<svg width="204" height="278" viewBox="0 0 204 278" fill="none" xmlns="http://www.w3.org/2000/svg">
<rect x="88.3656" y="188" width="26" height="90" fill="white"/>
<rect y="228.817" width="99.9616" height="16.1238" transform="rotate(-37.4743 0 228.817)" fill="white"/>
<rect x="16.3656" y="186.714" width="80.0691" height="16.1238" transform="rotate(-37.4743 16.3656 186.714)" fill="white"/>
<rect x="28.3656" y="148.304" width="64.6011" height="16.1238" transform="rotate(-37.4743 28.3656 148.304)" fill="white"/>
<rect x="44.3656" y="106.723" width="43.9226" height="16.1238" transform="rotate(-37.4743 44.3656 106.723)" fill="white"/>
<rect x="60.3656" y="64.8147" width="24.3501" height="16.1238" transform="rotate(-37.4743 60.3656 64.8147)" fill="white"/>
<rect x="124.362" y="50" width="24.35" height="16.1238" transform="rotate(38.3156 124.362 50)" fill="white"/>
<rect x="124.213" y="109" width="64.6011" height="16.1238" transform="rotate(37.6421 124.213 109)" fill="white"/>
<rect x="124.213" y="80" width="44.8735" height="16.1238" transform="rotate(37.6421 124.213 80)" fill="white"/>
<rect x="123.962" y="139" width="80.0691" height="16.1238" transform="rotate(36.5242 123.962 139)" fill="white"/>
<rect x="124.122" y="168" width="99.9616" height="16.1238" transform="rotate(37.2365 124.122 168)" fill="white"/>
<path d="M102.866 0L121.485 27H84.246L102.866 0Z" fill="white"/>
<rect x="156.232" y="70.1451" width="68.9986" height="16.1238" transform="rotate(-140.939 156.232 70.1451)" fill="white"/>
<rect x="37.3656" y="56.7228" width="70.0413" height="16.1238" transform="rotate(-37.4743 37.3656 56.7228)" fill="white"/>
</svg>
