<svg width="25" height="25" viewBox="0 0 25 25" fill="none" xmlns="http://www.w3.org/2000/svg">
<path d="M2.5 3.75C2.5 3.05964 3.05964 2.5 3.75 2.5H6.44109C7.05214 2.5 7.57363 2.94177 7.67408 3.5445L8.59822 9.08934C8.68844 9.63063 8.41507 10.1675 7.92425 10.4129L5.98907 11.3805C7.38445 14.8479 10.1521 17.6156 13.6195 19.0109L14.5871 17.0758C14.8325 16.5849 15.3694 16.3116 15.9107 16.4018L21.4555 17.3259C22.0582 17.4264 22.5 17.9479 22.5 18.5589V21.25C22.5 21.9404 21.9404 22.5 21.25 22.5H18.75C9.77537 22.5 2.5 15.2246 2.5 6.25V3.75Z" fill="#A8A8A8"/>
</svg>
